0
SECTION
2
HEADER
9
$INSUNITS
70
4
9
$ACADVER
1
AC1014
9
$HANDSEED
5
FFFF
0
ENDSEC
0
SECTION
2
TABLES
0
TABLE
2
VPORT
5
8
100
AcDbSymbolTable
0
ENDTAB
0
TABLE
2
LTYPE
5
5
100
AcDbSymbolTable
0
LTYPE
5
14
100
AcDbSymbolTableRecord
100
AcDbLinetypeTableRecord
2
BYBLOCK
70
0
0
LTYPE
5
15
100
AcDbSymbolTableRecord
100
AcDbLinetypeTableRecord
2
BYLAYER
70
0
0
ENDTAB
0
TABLE
2
LAYER
5
2
100
AcDbSymbolTable
70
2
0
LAYER
5
50
100
AcDbSymbolTableRecord
100
AcDbLayerTableRecord
2
0
70
0
6
CONTINUOUS
0
ENDTAB
0
TABLE
2
STYLE
5
3
100
AcDbSymbolTable
70
1
0
STYLE
5
11
100
AcDbSymbolTableRecord
100
AcDbTextStyleTableRecord
2
STANDARD
70
0
0
ENDTAB
0
TABLE
2
VIEW
5
6
100
AcDbSymbolTable
70
0
0
ENDTAB
0
TABLE
2
UCS
5
7
100
AcDbSymbolTable
70
0
0
ENDTAB
0
TABLE
2
APPID
5
9
100
AcDbSymbolTable
70
2
0
APPID
5
12
100
AcDbSymbolTableRecord
100
AcDbRegAppTableRecord
2
ACAD
70
0
0
ENDTAB
0
TABLE
2
DIMSTYLE
5
A
100
AcDbSymbolTable
70
1
0
ENDTAB
0
TABLE
2
BLOCK_RECORD
5
1
100
AcDbSymbolTable
70
1
0
BLOCK_RECORD
5
1F
100
AcDbSymbolTableRecord
100
AcDbBlockTableRecord
2
*MODEL_SPACE
0
BLOCK_RECORD
5
1B
100
AcDbSymbolTableRecord
100
AcDbBlockTableRecord
2
*PAPER_SPACE
0
ENDTAB
0
ENDSEC
0
SECTION
2
BLOCKS
0
BLOCK
5
20
100
AcDbEntity
100
AcDbBlockBegin
2
*MODEL_SPACE
0
ENDBLK
5
21
100
AcDbEntity
100
AcDbBlockEnd
0
BLOCK
5
1C
100
AcDbEntity
100
AcDbBlockBegin
2
*PAPER_SPACE
0
ENDBLK
5
1D
100
AcDbEntity
100
AcDbBlockEnd
0
ENDSEC
0
SECTION
2
ENTITIES
0
ARC
5
100
100
AcDbEntity
8
0
100
AcDbCircle
10
7334.503999999999
20
4123.1819999999998
30
0
40
21.081999999999866
210
0
220
0
230
1
100
AcDbArc
50
-44.330420929582623
51
224.33042092958436
0
SPLINE
5
101
100
AcDbEntity
8
0
100
AcDbSpline
70
0
71
3
72
14
73
10
74
0
42
0.000000001
43
0.0000000001
44
0.0000000001
40
3.8578321122856725
40
3.8578321122856725
40
3.8578321122856725
40
3.8578321122856725
40
4.3007065712791714
40
4.3007065712791714
40
4.7435810302726704
40
4.7435810302726704
40
5.1864554892661694
40
5.1864554892661694
40
5.6293299482596675
40
5.6293299482596675
40
5.6293299482596675
40
5.6293299482596675
10
7349.5844144505372
20
4108.4499999999998
30
0
10
7348.5528193251703
20
4107.3940074643169
30
0
10
7347.4315529304022
20
4106.4670271503028
30
0
10
7345.0461134028092
20
4104.8687319831097
30
0
10
7343.7825545502637
20
4104.1992073174824
30
0
10
7341.1729032443745
20
4103.1329917246912
30
0
10
7339.8279642615526
20
4102.7374808962704
30
0
10
7337.1405901550679
20
4102.2208133449813
30
0
10
7335.7981557567755
20
4102.0999999999995
30
0
10
7334.503999999999
20
4102.0999999999995
30
0
0
SPLINE
5
102
100
AcDbEntity
8
0
100
AcDbSpline
70
0
71
3
72
14
73
10
74
0
42
0.000000001
43
0.0000000001
44
0.0000000001
40
-1.771497835973995
40
-1.771497835973995
40
-1.771497835973995
40
-1.771497835973995
40
-1.3286233769804963
40
-1.3286233769804963
40
-0.88574891798699751
40
-0.88574891798699751
40
-0.44287445899349875
40
-0.44287445899349875
40
0
40
0
40
0
40
0
10
7319.4235855494617
20
4108.4499999999998
30
0
10
7320.4551806748277
20
4107.3940074643169
30
0
10
7321.5764470695967
20
4106.4670271503028
30
0
10
7323.9618865971897
20
4104.8687319831097
30
0
10
7325.2254454497343
20
4104.1992073174824
30
0
10
7327.8350967556244
20
4103.1329917246912
30
0
10
7329.1800357384454
20
4102.7374808962704
30
0
10
7331.867409844931
20
4102.2208133449813
30
0
10
7333.2098442432234
20
4102.0999999999995
30
0
10
7334.503999999999
20
4102.0999999999995
30
0
0
LINE
5
103
100
AcDbEntity
8
0
100
AcDbLine
10
8255.2540000000008
20
4062.0632499999992
30
0
11
8261.6040000000012
21
4062.0632499999992
31
0
0
LINE
5
104
100
AcDbEntity
8
0
100
AcDbLine
10
8255.2540000000008
20
4150.9632499999989
30
0
11
8255.2540000000008
21
4062.0632499999992
31
0
0
LINE
5
105
100
AcDbEntity
8
0
100
AcDbLine
10
8256.5874999999978
20
4039.4889999999873
30
0
11
8256.5874999999978
21
4045.8389999999872
31
-2.8199664825479014e-15
0
LINE
5
106
100
AcDbEntity
8
0
100
AcDbLine
10
8256.5874999999978
20
3550.5389999999875
30
3.9745984281582636e-15
11
8256.5874999999978
21
3537.8389999999877
31
5.6399329650958138e-15
0
LINE
5
107
100
AcDbEntity
8
0
100
AcDbLine
10
8256.5874999999978
20
3321.9389999999876
30
0
11
8256.5874999999978
21
3334.6389999999874
31
6.4992455861556687e-14
0
LINE
5
108
100
AcDbEntity
8
0
100
AcDbLine
10
8256.5874999999978
20
3321.9389999999876
30
0
11
8256.5874999999978
21
2832.9889999999878
31
3.9745984281582321e-15
0
LINE
5
109
100
AcDbEntity
8
0
100
AcDbLine
10
8256.5874999999978
20
2826.6389999999869
30
8.8817841970012523e-15
11
8256.5874999999978
21
2832.9889999999878
31
3.9745984281582321e-15
0
LINE
5
110
100
AcDbEntity
8
0
100
AcDbLine
10
8262.9374999999982
20
2826.6389999999869
30
8.8817841970012523e-15
11
8256.5874999999978
21
2826.6389999999869
31
8.8817841970012523e-15
0
LINE
5
111
100
AcDbEntity
8
0
100
AcDbLine
10
8256.5874999999978
20
4045.8389999999872
30
-2.8199664825479014e-15
11
8262.9374999999982
21
4045.8389999999872
31
1.7624790515924346e-15
0
LINE
5
112
100
AcDbEntity
8
0
100
AcDbLine
10
8237.5374999999985
20
3582.288999999987
30
8.8817841970012523e-15
11
8237.5374999999985
21
3575.9389999999876
31
3.0020430585864161e-14
0
LINE
5
113
100
AcDbEntity
8
0
100
AcDbLine
10
8237.5374999999985
20
3582.288999999987
30
8.8817841970012523e-15
11
8237.5374999999985
21
4001.3889999999874
31
9.2814644858661345e-15
0
LINE
5
114
100
AcDbEntity
8
0
100
AcDbLine
10
8237.5374999999985
20
4001.3889999999874
30
9.2814644858661345e-15
11
8237.5374999999985
21
4007.7389999999873
31
6.0618177144533509e-15
0
LINE
5
115
100
AcDbEntity
8
0
100
AcDbLine
10
8237.5374999999985
20
4007.7389999999873
30
6.0618177144533509e-15
11
8243.8874999999989
21
4007.7389999999873
31
-2.8199664825479014e-15
0
LINE
5
116
100
AcDbEntity
8
0
100
AcDbLine
10
8256.5874999999978
20
4007.7389999999873
30
0
11
8243.8874999999989
21
4007.7389999999873
31
-2.8199664825479014e-15
0
LINE
5
117
100
AcDbEntity
8
0
100
AcDbLine
10
8262.9375
20
914.39999999998463
30
0
11
8258.1749999999993
21
914.39999999998463
31
-1.3218592886943262e-15
0
LINE
5
118
100
AcDbEntity
8
0
100
AcDbLine
10
8258.1749999999993
20
914.39999999998463
30
-1.3218592886943262e-15
11
8258.1749999999993
21
2743.1999999999844
31
0
0
LINE
5
119
100
AcDbEntity
8
0
100
AcDbLine
10
8258.1749999999993
20
2743.1999999999844
30
0
11
8262.9375
21
2743.1999999999844
31
0
0
LINE
5
120
100
AcDbEntity
8
0
100
AcDbLine
10
8258.1750000000011
20
609.47300000000132
30
0
11
7038.9750000000013
21
609.47300000000246
31
-3.2770512070127972e-14
0
LINE
5
121
100
AcDbEntity
8
0
100
AcDbLine
10
7038.9750000000004
20
603.12300000000243
30
0
11
7038.9750000000013
21
609.47300000000246
31
-3.2770512070127972e-14
0
LINE
5
122
100
AcDbEntity
8
0
100
AcDbLine
10
8258.1750000000011
20
603.12300000000141
30
0
11
8258.1750000000011
21
609.47300000000132
31
0
0
LINE
5
123
100
AcDbEntity
8
0
100
AcDbLine
10
8262.9374999999945
20
-914.40000000001248
30
0
11
8258.1749999999938
21
-914.40000000001248
31
-1.3218592886943262e-15
0
LINE
5
124
100
AcDbEntity
8
0
100
AcDbLine
10
8258.1749999999938
20
-914.40000000001248
30
-1.3218592886943262e-15
11
8258.1749999999993
21
914.39999999998463
31
-1.3218592886943262e-15
0
LINE
5
125
100
AcDbEntity
8
0
100
AcDbLine
10
8258.1749999999993
20
914.39999999998463
30
-1.3218592886943262e-15
11
8262.9375
21
914.39999999998463
31
0
0
LINE
5
126
100
AcDbEntity
8
0
100
AcDbLine
10
7045.3249999999989
20
1619.250000000003
30
-1.3322676295497407e-14
11
7038.9749999999995
21
1619.250000000003
31
-1.5412802669266813e-14
0
LINE
5
127
100
AcDbEntity
8
0
100
AcDbLine
10
8258.1749999999993
20
-603.37699999999802
30
1.4210854715202004e-13
11
8258.1749999999993
21
-609.72699999999793
31
1.4594959829995582e-13
0
LINE
5
128
100
AcDbEntity
8
0
100
AcDbLine
10
7038.9749999999995
20
-609.72699999999691
30
0
11
8258.1749999999993
21
-609.72699999999793
31
1.4594959829995582e-13
0
LINE
5
129
100
AcDbEntity
8
0
100
AcDbLine
10
7038.9749999999995
20
-603.37699999999688
30
1.8039230865790145e-13
11
7038.9749999999995
21
-609.72699999999691
31
0
0
LINE
5
130
100
AcDbEntity
8
0
100
AcDbLine
10
8262.9375
20
-2743.2000000000126
30
0
11
8258.1749999999993
21
-2743.2000000000126
31
-1.3218592886943262e-15
0
LINE
5
131
100
AcDbEntity
8
0
100
AcDbLine
10
8258.1749999999993
20
-2743.2000000000126
30
-1.3218592886943262e-15
11
8258.1749999999938
21
-914.40000000001248
31
-1.3218592886943262e-15
0
LINE
5
132
100
AcDbEntity
8
0
100
AcDbLine
10
8258.1749999999938
20
-914.40000000001248
30
-1.3218592886943262e-15
11
8262.9374999999945
21
-914.40000000001248
31
0
0
LINE
5
133
100
AcDbEntity
8
0
100
AcDbLine
10
8256.5875000000015
20
-4045.8390000000127
30
8.8817841970012523e-15
11
8256.5875000000015
21
-4039.4890000000123
31
1.0372258607560842e-14
0
LINE
5
134
100
AcDbEntity
8
0
100
AcDbLine
10
8256.5875000000015
20
-2832.9890000000123
30
8.8817841970012523e-15
11
8256.5875000000015
21
-2826.6390000000129
31
7.8242967660457775e-15
0
LINE
5
135
100
AcDbEntity
8
0
100
AcDbLine
10
8256.5875000000015
20
-2832.9890000000123
30
8.8817841970012523e-15
11
8256.5875000000015
21
-3321.9390000000121
31
1.0372258607560826e-14
0
LINE
5
136
100
AcDbEntity
8
0
100
AcDbLine
10
8256.5875000000015
20
-3334.6390000000129
30
8.8817841970012523e-15
11
8256.5875000000015
21
-3321.9390000000121
31
1.0372258607560826e-14
0
LINE
5
137
100
AcDbEntity
8
0
100
AcDbLine
10
8256.5875000000015
20
-3537.8390000000127
30
-7.8242967660457901e-15
11
8256.5875000000015
21
-3550.5390000000125
31
8.8817841970012523e-15
0
LINE
5
138
100
AcDbEntity
8
0
100
AcDbLine
10
8262.9375000000018
20
-4045.8390000000127
30
0
11
8256.5875000000015
21
-4045.8390000000127
31
8.8817841970012523e-15
0
LINE
5
139
100
AcDbEntity
8
0
100
AcDbLine
10
8256.5875000000015
20
-2826.6390000000129
30
7.8242967660457775e-15
11
8262.9375
21
-2826.6390000000129
31
1.2626804363995754e-14
0
ARC
5
140
100
AcDbEntity
8
0
100
AcDbCircle
10
8267.3748800000012
20
-3542.2763800000125
30
-8.8817841970012523e-15
40
4.4373799999999619
210
0
220
-0
230
1
100
AcDbArc
50
90
51
180
0
ARC
5
141
100
AcDbEntity
8
0
100
AcDbCircle
10
8267.3748800000012
20
-3335.2663800000118
30
0
40
4.4373800000005303
210
-9.7608444055239341e-16
220
-2.5007538997259885e-28
230
1
100
AcDbArc
50
180
51
269.99999999997652
0
LINE
5
142
100
AcDbEntity
8
0
100
AcDbLine
10
8336.5974999999999
20
-3537.8390000000127
30
0
11
8267.3748800000012
21
-3537.8390000000127
31
-8.8817841970012523e-15
0
LINE
5
143
100
AcDbEntity
8
0
100
AcDbLine
10
8336.5974999999999
20
-3339.7037600000122
30
0
11
8267.3748799999994
21
-3339.7037600000122
31
0
0
ARC
5
144
100
AcDbEntity
8
0
100
AcDbCircle
10
8336.5974999999999
20
-3535.2990000000127
30
0
40
2.540000000000191
210
0
220
0
230
1
100
AcDbArc
50
-90
51
0
0
ARC
5
145
100
AcDbEntity
8
0
100
AcDbCircle
10
8336.5975000000017
20
-3342.2437600000112
30
0
40
2.5399999999990541
210
0
220
0
230
1
100
AcDbArc
50
0
51
90.000000000041027
0
LINE
5
146
100
AcDbEntity
8
0
100
AcDbLine
10
8339.1375000000007
20
-3342.2437600000126
30
0
11
8339.1375000000007
21
-3535.2990000000127
31
0
0
LINE
5
147
100
AcDbEntity
8
0
100
AcDbLine
10
8237.5375000000022
20
-3582.2890000000134
30
0
11
8237.5375000000022
21
-4001.3890000000133
31
-1.2601031329492744e-15
0
LINE
5
148
100
AcDbEntity
8
0
100
AcDbLine
10
8237.5375000000022
20
-4001.3890000000133
30
-1.2601031329492744e-15
11
8237.5375000000022
21
-4007.7390000000132
31
1.0574874309554658e-15
0
LINE
5
149
100
AcDbEntity
8
0
100
AcDbLine
10
8243.8875000000025
20
-4007.7390000000132
30
1.0574874309554658e-15
11
8237.5375000000022
21
-4007.7390000000132
31
1.0574874309554658e-15
0
LINE
5
150
100
AcDbEntity
8
0
100
AcDbLine
10
8237.5375000000022
20
-3582.2890000000134
30
0
11
8237.5375000000004
21
-3575.939000000013
31
6.0906835130936191e-14
0
LINE
5
151
100
AcDbEntity
8
0
100
AcDbLine
10
8255.2539999999935
20
-4150.9632499999998
30
0
11
8255.2539999999935
21
-4062.0632500000002
31
1.5787371410169753e-14
0
LINE
5
152
100
AcDbEntity
8
0
100
AcDbLine
10
8255.2539999999935
20
-4062.0632500000002
30
1.5787371410169753e-14
11
8261.6039999999939
21
-4062.0632500000002
31
1.5787371410169753e-14
0
ARC
5
153
100
AcDbEntity
8
0
100
AcDbCircle
10
7334.5039999999935
20
-4123.1819999999989
30
0
40
21.081999999999866
210
0
220
0
230
1
100
AcDbArc
50
-224.33042092958436
51
44.33042092958263
0
SPLINE
5
154
100
AcDbEntity
8
0
100
AcDbSpline
70
0
71
3
72
14
73
10
74
0
42
0.000000001
43
0.0000000001
44
0.0000000001
40
3.8578321122856725
40
3.8578321122856725
40
3.8578321122856725
40
3.8578321122856725
40
4.3007065712791714
40
4.3007065712791714
40
4.7435810302726704
40
4.7435810302726704
40
5.1864554892661694
40
5.1864554892661694
40
5.6293299482596675
40
5.6293299482596675
40
5.6293299482596675
40
5.6293299482596675
10
7319.4235855494562
20
-4108.4499999999989
30
0
10
7320.4551806748223
20
-4107.3940074643169
30
0
10
7321.5764470695913
20
-4106.4670271503019
30
0
10
7323.9618865971843
20
-4104.8687319831097
30
0
10
7325.2254454497288
20
-4104.1992073174815
30
0
10
7327.835096755618
20
-4103.1329917246912
30
0
10
7329.1800357384409
20
-4102.7374808962704
30
0
10
7331.8674098449255
20
-4102.2208133449803
30
0
10
7333.209844243218
20
-4102.0999999999995
30
0
10
7334.5039999999935
20
-4102.0999999999995
30
0
0
SPLINE
5
155
100
AcDbEntity
8
0
100
AcDbSpline
70
0
71
3
72
14
73
10
74
0
42
0.000000001
43
0.0000000001
44
0.0000000001
40
-1.771497835973995
40
-1.771497835973995
40
-1.771497835973995
40
-1.771497835973995
40
-1.3286233769804963
40
-1.3286233769804963
40
-0.88574891798699751
40
-0.88574891798699751
40
-0.44287445899349875
40
-0.44287445899349875
40
0
40
0
40
0
40
0
10
7349.5844144505318
20
-4108.4499999999989
30
0
10
7348.5528193251648
20
-4107.3940074643169
30
0
10
7347.4315529303967
20
-4106.4670271503019
30
0
10
7345.0461134028037
20
-4104.8687319831097
30
0
10
7343.7825545502583
20
-4104.1992073174815
30
0
10
7341.1729032443691
20
-4103.1329917246912
30
0
10
7339.8279642615471
20
-4102.7374808962704
30
0
10
7337.1405901550625
20
-4102.2208133449803
30
0
10
7335.79815575677
20
-4102.0999999999995
30
0
10
7334.5039999999935
20
-4102.0999999999995
30
0
0
ARC
5
156
100
AcDbEntity
8
0
100
AcDbCircle
10
6082.6967500000092
20
-4123.1819999999952
30
0
40
21.081999999999866
210
0
220
0
230
1
100
AcDbArc
50
-224.3304209295861
51
44.330420929586118
0
SPLINE
5
157
100
AcDbEntity
8
0
100
AcDbSpline
70
0
71
3
72
14
73
10
74
0
42
0.000000001
43
0.0000000001
44
0.0000000001
40
3.8578321122856725
40
3.8578321122856725
40
3.8578321122856725
40
3.8578321122856725
40
4.3007065712791714
40
4.3007065712791714
40
4.7435810302726704
40
4.7435810302726704
40
5.1864554892661694
40
5.1864554892661694
40
5.6293299482596675
40
5.6293299482596675
40
5.6293299482596675
40
5.6293299482596675
10
6067.6163355494718
20
-4108.4499999999944
30
0
10
6068.6479306748379
20
-4107.3940074643124
30
0
10
6069.7691970696069
20
-4106.4670271502973
30
0
10
6072.154636597199
20
-4104.8687319831051
30
0
10
6073.4181954497444
20
-4104.199207317477
30
0
10
6076.0278467556336
20
-4103.1329917246867
30
0
10
6077.3727857384565
20
-4102.7374808962659
30
0
10
6080.0601598449412
20
-4102.2208133449758
30
0
10
6081.4025942432327
20
-4102.0999999999949
30
0
10
6082.6967500000092
20
-4102.0999999999949
30
0
0
SPLINE
5
158
100
AcDbEntity
8
0
100
AcDbSpline
70
0
71
3
72
14
73
10
74
0
42
0.000000001
43
0.0000000001
44
0.0000000001
40
-1.771497835973995
40
-1.771497835973995
40
-1.771497835973995
40
-1.771497835973995
40
-1.3286233769804963
40
-1.3286233769804963
40
-0.88574891798699751
40
-0.88574891798699751
40
-0.44287445899349875
40
-0.44287445899349875
40
0
40
0
40
0
40
0
10
6097.7771644505465
20
-4108.4499999999944
30
0
10
6096.7455693251804
20
-4107.3940074643124
30
0
10
6095.6243029304114
20
-4106.4670271502973
30
0
10
6093.2388634028193
20
-4104.8687319831051
30
0
10
6091.9753045502739
20
-4104.199207317477
30
0
10
6089.3656532443847
20
-4103.1329917246867
30
0
10
6088.0207142615636
20
-4102.7374808962659
30
0
10
6085.3333401550772
20
-4102.2208133449758
30
0
10
6083.9909057567857
20
-4102.0999999999949
30
0
10
6082.6967500000092
20
-4102.0999999999949
30
0
0
LINE
5
159
100
AcDbEntity
8
0
100
AcDbLine
10
6072.3780000000097
20
-4089.4000000000001
30
0
11
4929.3780000000097
21
-4089.4000000000001
31
0
0
SPLINE
5
160
100
AcDbEntity
8
0
100
AcDbSpline
70
0
71
3
72
18
73
14
74
0
42
0.000000001
43
0.0000000001
44
0.0000000001
40
5.3874957587564145
40
5.3874957587564145
40
5.3874957587564145
40
5.3874957587564145
40
5.8115267615253003
40
5.8115267615253003
40
6.0789853823507753
40
6.0789853823507753
40
6.3464440031762503
40
6.3464440031762503
40
6.6139026240017253
40
6.6139026240017253
40
6.8813612448272004
40
6.8813612448272004
40
7.3053922475960871
40
7.3053922475960871
40
7.3053922475960871
40
7.3053922475960871
10
4928.5528716482513
20
-4108.4499999999944
30
0
10
4927.3378413051578
20
-4107.6670079847581
30
0
10
4925.9743594492584
20
-4107.0079982017778
30
0
10
4923.6480044738382
20
-4106.2408768638616
30
0
10
4922.7224678287157
20
-4106.0175830553153
30
0
10
4920.8738893083628
20
-4105.7250971375688
30
0
10
4919.9507787360917
20
-4105.6559999999954
30
0
10
4918.1677212639224
20
-4105.6559999999954
30
0
10
4917.2446106916514
20
-4105.7250971375688
30
0
10
4915.3960321712984
20
-4106.0175830553153
30
0
10
4914.4704955261759
20
-4106.2408768638616
30
0
10
4912.1441405507558
20
-4107.0079982017778
30
0
10
4910.7806586948564
20
-4107.6670079847581
30
0
10
4909.5656283517637
20
-4108.4499999999944
30
0
0
ARC
5
161
100
AcDbEntity
8
0
100
AcDbCircle
10
4919.0592500000075
20
-4123.1819999999952
30
0
40
21.082000000000278
210
0
220
0
230
1
100
AcDbArc
50
-224.33042092958263
51
44.330420929584392
0
SPLINE
5
162
100
AcDbEntity
8
0
100
AcDbSpline
70
0
71
3
72
14
73
10
74
0
42
0.000000001
43
0.0000000001
44
0.0000000001
40
3.8578321122856725
40
3.8578321122856725
40
3.8578321122856725
40
3.8578321122856725
40
4.3007065712791714
40
4.3007065712791714
40
4.7435810302726704
40
4.7435810302726704
40
5.1864554892661694
40
5.1864554892661694
40
5.6293299482596675
40
5.6293299482596675
40
5.6293299482596675
40
5.6293299482596675
10
4903.9788355494684
20
-4108.4499999999944
30
0
10
4905.0104306748353
20
-4107.3940074643124
30
0
10
4906.1316970696043
20
-4106.4670271502973
30
0
10
4908.5171365971964
20
-4104.8687319831051
30
0
10
4909.7806954497428
20
-4104.199207317477
30
0
10
4912.390346755632
20
-4103.1329917246867
30
0
10
4913.735285738454
20
-4102.7374808962659
30
0
10
4916.4226598449395
20
-4102.2208133449758
30
0
10
4917.765094243231
20
-4102.0999999999949
30
0
10
4919.0592500000075
20
-4102.0999999999949
30
0
0
SPLINE
5
163
100
AcDbEntity
8
0
100
AcDbSpline
70
0
71
3
72
14
73
10
74
0
42
0.000000001
43
0.0000000001
44
0.0000000001
40
-1.771497835973995
40
-1.771497835973995
40
-1.771497835973995
40
-1.771497835973995
40
-1.3286233769804963
40
-1.3286233769804963
40
-0.88574891798699751
40
-0.88574891798699751
40
-0.44287445899349875
40
-0.44287445899349875
40
0
40
0
40
0
40
0
10
4934.1396644505458
20
-4108.4499999999944
30
0
10
4933.1080693251788
20
-4107.3940074643124
30
0
10
4931.9868029304098
20
-4106.4670271502973
30
0
10
4929.6013634028177
20
-4104.8687319831051
30
0
10
4928.3378045502723
20
-4104.199207317477
30
0
10
4925.7281532443822
20
-4103.1329917246867
30
0
10
4924.3832142615602
20
-4102.7374808962659
30
0
10
4921.6958401550746
20
-4102.2208133449758
30
0
10
4920.3534057567831
20
-4102.0999999999949
30
0
10
4919.0592500000075
20
-4102.0999999999949
30
0
0
ARC
5
164
100
AcDbEntity
8
0
100
AcDbCircle
10
3667.2519999999872
20
-4123.1819999999952
30
0
40
21.082000000000278
210
0
220
0
230
1
100
AcDbArc
50
-224.33042092958436
51
44.330420929584392
0
SPLINE
5
165
100
AcDbEntity
8
0
100
AcDbSpline
70
0
71
3
72
14
73
10
74
0
42
0.000000001
43
0.0000000001
44
0.0000000001
40
3.8578321122856725
40
3.8578321122856725
40
3.8578321122856725
40
3.8578321122856725
40
4.3007065712791714
40
4.3007065712791714
40
4.7435810302726704
40
4.7435810302726704
40
5.1864554892661694
40
5.1864554892661694
40
5.6293299482596675
40
5.6293299482596675
40
5.6293299482596675
40
5.6293299482596675
10
3652.171585549449
20
-4108.4499999999944
30
0
10
3653.2031806748155
20
-4107.3940074643124
30
0
10
3654.3244470695845
20
-4106.4670271502973
30
0
10
3656.709886597177
20
-4104.8687319831051
30
0
10
3657.9734454497225
20
-4104.199207317477
30
0
10
3660.5830967556126
20
-4103.1329917246867
30
0
10
3661.9280357384337
20
-4102.7374808962659
30
0
10
3664.6154098449192
20
-4102.2208133449758
30
0
10
3665.9578442432112
20
-4102.0999999999949
30
0
10
3667.2519999999872
20
-4102.0999999999949
30
0
0
SPLINE
5
166
100
AcDbEntity
8
0
100
AcDbSpline
70
0
71
3
72
14
73
10
74
0
42
0.000000001
43
0.0000000001
44
0.0000000001
40
-1.771497835973995
40
-1.771497835973995
40
-1.771497835973995
40
-1.771497835973995
40
-1.3286233769804963
40
-1.3286233769804963
40
-0.88574891798699751
40
-0.88574891798699751
40
-0.44287445899349875
40
-0.44287445899349875
40
0
40
0
40
0
40
0
10
3682.3324144505254
20
-4108.4499999999944
30
0
10
3681.300819325159
20
-4107.3940074643124
30
0
10
3680.1795529303899
20
-4106.4670271502973
30
0
10
3677.7941134027974
20
-4104.8687319831051
30
0
10
3676.530554550252
20
-4104.199207317477
30
0
10
3673.9209032443619
20
-4103.1329917246867
30
0
10
3672.5759642615408
20
-4102.7374808962659
30
0
10
3669.8885901550552
20
-4102.2208133449758
30
0
10
3668.5461557567633
20
-4102.0999999999949
30
0
10
3667.2519999999872
20
-4102.0999999999949
30
0
0
ARC
5
167
100
AcDbEntity
8
0
100
AcDbCircle
10
1833.6259999999975
20
-4123.1819999999952
30
0
40
21.082000000000068
210
0
220
0
230
1
100
AcDbArc
50
-224.33042092958482
51
44.330420929584392
0
SPLINE
5
168
100
AcDbEntity
8
0
100
AcDbSpline
70
0
71
3
72
14
73
10
74
0
42
0.000000001
43
0.0000000001
44
0.0000000001
40
3.8578321122856725
40
3.8578321122856725
40
3.8578321122856725
40
3.8578321122856725
40
4.3007065712791714
40
4.3007065712791714
40
4.7435810302726704
40
4.7435810302726704
40
5.1864554892661694
40
5.1864554892661694
40
5.6293299482596675
40
5.6293299482596675
40
5.6293299482596675
40
5.6293299482596675
10
1818.5455855494595
20
-4108.4499999999944
30
0
10
1819.5771806748257
20
-4107.3940074643124
30
0
10
1820.6984470695952
20
-4106.4670271502973
30
0
10
1823.0838865971875
20
-4104.8687319831051
30
0
10
1824.3474454497327
20
-4104.199207317477
30
0
10
1826.9570967556228
20
-4103.1329917246867
30
0
10
1828.3020357384441
20
-4102.7374808962659
30
0
10
1830.9894098449297
20
-4102.2208133449758
30
0
10
1832.3318442432214
20
-4102.0999999999949
30
0
10
1833.6259999999975
20
-4102.0999999999949
30
0
0
SPLINE
5
169
100
AcDbEntity
8
0
100
AcDbSpline
70
0
71
3
72
14
73
10
74
0
42
0.000000001
43
0.0000000001
44
0.0000000001
40
-1.771497835973995
40
-1.771497835973995
40
-1.771497835973995
40
-1.771497835973995
40
-1.3286233769804963
40
-1.3286233769804963
40
-0.88574891798699751
40
-0.88574891798699751
40
-0.44287445899349875
40
-0.44287445899349875
40
0
40
0
40
0
40
0
10
1848.7064144505357
20
-4108.4499999999944
30
0
10
1847.6748193251694
20
-4107.3940074643124
30
0
10
1846.5535529304
20
-4106.4670271502973
30
0
10
1844.1681134028076
20
-4104.8687319831051
30
0
10
1842.9045545502622
20
-4104.199207317477
30
0
10
1840.2949032443723
20
-4103.1329917246867
30
0
10
1838.949964261551
20
-4102.7374808962659
30
0
10
1836.2625901550655
20
-4102.2208133449758
30
0
10
1834.920155756774
20
-4102.0999999999949
30
0
10
1833.6259999999975
20
-4102.0999999999949
30
0
0
SPLINE
5
170
100
AcDbEntity
8
0
100
AcDbSpline
70
0
71
3
72
18
73
14
74
0
42
0.000000001
43
0.0000000001
44
0.0000000001
40
5.3874957587564145
40
5.3874957587564145
40
5.3874957587564145
40
5.3874957587564145
40
5.8115267615253003
40
5.8115267615253003
40
6.0789853823507753
40
6.0789853823507753
40
6.3464440031762503
40
6.3464440031762503
40
6.6139026240017253
40
6.6139026240017253
40
6.8813612448272004
40
6.8813612448272004
40
7.3053922475960871
40
7.3053922475960871
40
7.3053922475960871
40
7.3053922475960871
10
9.4936216482439733
20
-4108.4499999999944
30
0
10
8.2785913051507336
20
-4107.6670079847581
30
0
10
6.9151094492519007
20
-4107.0079982017778
30
0
10
4.5887544738311377
20
-4106.2408768638616
30
0
10
3.6632178287093877
20
-4106.0175830553153
30
0
10
1.8146393083565624
20
-4105.7250971375688
30
0
10
0.8915287360852715
20
-4105.6559999999954
30
0
10
-0.89152873608456129
20
-4105.6559999999954
30
0
10
-1.8146393083558541
20
-4105.7250971375688
30
0
10
-3.6632178287086781
20
-4106.0175830553153
30
0
10
-4.5887544738304271
20
-4106.2408768638616
30
0
10
-6.9151094492511938
20
-4107.0079982017778
30
0
10
-8.2785913051500284
20
-4107.6670079847581
30
0
10
-9.4936216482432698
20
-4108.4499999999944
30
0
0
ARC
5
171
100
AcDbEntity
8
0
100
AcDbCircle
10
3.5416114485542494e-13
20
-4123.1819999999952
30
0
40
21.082000000000146
210
0
220
0
230
1
100
AcDbArc
50
-224.33042092958451
51
44.330420929584491
0
SPLINE
5
172
100
AcDbEntity
8
0
100
AcDbSpline
70
0
71
3
72
14
73
10
74
0
42
0.000000001
43
0.0000000001
44
0.0000000001
40
3.8578321122856725
40
3.8578321122856725
40
3.8578321122856725
40
3.8578321122856725
40
4.3007065712791714
40
4.3007065712791714
40
4.7435810302726704
40
4.7435810302726704
40
5.1864554892661694
40
5.1864554892661694
40
5.6293299482596675
40
5.6293299482596675
40
5.6293299482596675
40
5.6293299482596675
10
-15.080414450537791
20
-4108.4499999999944
30
0
10
-14.048819325171404
20
-4107.3940074643124
30
0
10
-12.927552930402113
20
-4106.4670271502973
30
0
10
-10.542113402809697
20
-4104.8687319831051
30
0
10
-9.2785545502644045
20
-4104.199207317477
30
0
10
-6.66890324437448
20
-4103.1329917246867
30
0
10
-5.3239642615530833
20
-4102.7374808962659
30
0
10
-2.6365901550675739
20
-4102.2208133449758
30
0
10
-1.2941557567759405
20
-4102.0999999999949
30
0
10
3.5527136788005009e-13
20
-4102.0999999999949
30
0
0
SPLINE
5
173
100
AcDbEntity
8
0
100
AcDbSpline
70
0
71
3
72
14
73
10
74
0
42
0.000000001
43
0.0000000001
44
0.0000000001
40
-1.771497835973995
40
-1.771497835973995
40
-1.771497835973995
40
-1.771497835973995
40
-1.3286233769804963
40
-1.3286233769804963
40
-0.88574891798699751
40
-0.88574891798699751
40
-0.44287445899349875
40
-0.44287445899349875
40
0
40
0
40
0
40
0
10
15.080414450538502
20
-4108.4499999999944
30
0
10
14.048819325172115
20
-4107.3940074643124
30
0
10
12.927552930402824
20
-4106.4670271502973
30
0
10
10.542113402810408
20
-4104.8687319831051
30
0
10
9.2785545502651168
20
-4104.199207317477
30
0
10
6.6689032443751923
20
-4103.1329917246867
30
0
10
5.3239642615537974
20
-4102.7374808962659
30
0
10
2.636590155068288
20
-4102.2208133449758
30
0
10
1.2941557567766528
20
-4102.0999999999949
30
0
10
3.5527136788005009e-13
20
-4102.0999999999949
30
0
0
ARC
5
174
100
AcDbEntity
8
0
100
AcDbCircle
10
-1833.6260000000027
20
-4123.1819999999952
30
0
40
21.082000000000068
210
0
220
0
230
1
100
AcDbArc
50
-224.33042092958482
51
44.330420929584825
0
SPLINE
5
175
100
AcDbEntity
8
0
100
AcDbSpline
70
0
71
3
72
14
73
10
74
0
42
0.000000001
43
0.0000000001
44
0.0000000001
40
3.8578321122856725
40
3.8578321122856725
40
3.8578321122856725
40
3.8578321122856725
40
4.3007065712791714
40
4.3007065712791714
40
4.7435810302726704
40
4.7435810302726704
40
5.1864554892661694
40
5.1864554892661694
40
5.6293299482596675
40
5.6293299482596675
40
5.6293299482596675
40
5.6293299482596675
10
-1848.7064144505407
20
-4108.4499999999944
30
0
10
-1847.6748193251747
20
-4107.3940074643124
30
0
10
-1846.5535529304052
20
-4106.4670271502973
30
0
10
-1844.1681134028127
20
-4104.8687319831051
30
0
10
-1842.9045545502674
20
-4104.199207317477
30
0
10
-1840.2949032443776
20
-4103.1329917246867
30
0
10
-1838.949964261556
20
-4102.7374808962659
30
0
10
-1836.2625901550705
20
-4102.2208133449758
30
0
10
-1834.920155756779
20
-4102.0999999999949
30
0
10
-1833.6260000000027
20
-4102.0999999999949
30
0
0
SPLINE
5
176
100
AcDbEntity
8
0
100
AcDbSpline
70
0
71
3
72
14
73
10
74
0
42
0.000000001
43
0.0000000001
44
0.0000000001
40
-1.771497835973995
40
-1.771497835973995
40
-1.771497835973995
40
-1.771497835973995
40
-1.3286233769804963
40
-1.3286233769804963
40
-0.88574891798699751
40
-0.88574891798699751
40
-0.44287445899349875
40
-0.44287445899349875
40
0
40
0
40
0
40
0
10
-1818.5455855494647
20
-4108.4499999999944
30
0
10
-1819.5771806748307
20
-4107.3940074643124
30
0
10
-1820.6984470696002
20
-4106.4670271502973
30
0
10
-1823.0838865971928
20
-4104.8687319831051
30
0
10
-1824.347445449738
20
-4104.199207317477
30
0
10
-1826.9570967556278
20
-4103.1329917246867
30
0
10
-1828.3020357384494
20
-4102.7374808962659
30
0
10
-1830.9894098449349
20
-4102.2208133449758
30
0
10
-1832.3318442432264
20
-4102.0999999999949
30
0
10
-1833.6260000000027
20
-4102.0999999999949
30
0
0
ARC
5
177
100
AcDbEntity
8
0
100
AcDbCircle
10
-3667.2520000000127
20
-4123.1819999999952
30
0
40
21.082000000000278
210
0
220
0
230
1
100
AcDbArc
50
-224.33042092958351
51
44.330420929584392
0
SPLINE
5
178
100
AcDbEntity
8
0
100
AcDbSpline
70
0
71
3
72
14
73
10
74
0
42
0.000000001
43
0.0000000001
44
0.0000000001
40
3.8578321122856725
40
3.8578321122856725
40
3.8578321122856725
40
3.8578321122856725
40
4.3007065712791714
40
4.3007065712791714
40
4.7435810302726704
40
4.7435810302726704
40
5.1864554892661694
40
5.1864554892661694
40
5.6293299482596675
40
5.6293299482596675
40
5.6293299482596675
40
5.6293299482596675
10
-3682.3324144505514
20
-4108.4499999999944
30
0
10
-3681.3008193251844
20
-4107.3940074643124
30
0
10
-3680.1795529304154
20
-4106.4670271502973
30
0
10
-3677.7941134028233
20
-4104.8687319831051
30
0
10
-3676.5305545502774
20
-4104.199207317477
30
0
10
-3673.9209032443878
20
-4103.1329917246867
30
0
10
-3672.5759642615662
20
-4102.7374808962659
30
0
10
-3669.8885901550807
20
-4102.2208133449758
30
0
10
-3668.5461557567892
20
-4102.0999999999949
30
0
10
-3667.2520000000127
20
-4102.0999999999949
30
0
0
SPLINE
5
179
100
AcDbEntity
8
0
100
AcDbSpline
70
0
71
3
72
14
73
10
74
0
42
0.000000001
43
0.0000000001
44
0.0000000001
40
-1.771497835973995
40
-1.771497835973995
40
-1.771497835973995
40
-1.771497835973995
40
-1.3286233769804963
40
-1.3286233769804963
40
-0.88574891798699751
40
-0.88574891798699751
40
-0.44287445899349875
40
-0.44287445899349875
40
0
40
0
40
0
40
0
10
-3652.1715855494745
20
-4108.4499999999944
30
0
10
-3653.203180674841
20
-4107.3940074643124
30
0
10
-3654.32444706961
20
-4106.4670271502973
30
0
10
-3656.7098865972025
20
-4104.8687319831051
30
0
10
-3657.9734454497479
20
-4104.199207317477
30
0
10
-3660.5830967556381
20
-4103.1329917246867
30
0
10
-3661.9280357384596
20
-4102.7374808962659
30
0
10
-3664.6154098449451
20
-4102.2208133449758
30
0
10
-3665.9578442432367
20
-4102.0999999999949
30
0
10
-3667.2520000000127
20
-4102.0999999999949
30
0
0
ARC
5
180
100
AcDbEntity
8
0
100
AcDbCircle
10
-4919.0592499999912
20
-4123.1819999999952
30
0
40
21.082000000000278
210
0
220
0
230
1
100
AcDbArc
50
-224.33042092958436
51
44.330420929584392
0
SPLINE
5
181
100
AcDbEntity
8
0
100
AcDbSpline
70
0
71
3
72
14
73
10
74
0
42
0.000000001
43
0.0000000001
44
0.0000000001
40
3.8578321122856725
40
3.8578321122856725
40
3.8578321122856725
40
3.8578321122856725
40
4.3007065712791714
40
4.3007065712791714
40
4.7435810302726704
40
4.7435810302726704
40
5.1864554892661694
40
5.1864554892661694
40
5.6293299482596675
40
5.6293299482596675
40
5.6293299482596675
40
5.6293299482596675
10
-4934.1396644505294
20
-4108.4499999999944
30
0
10
-4933.1080693251633
20
-4107.3940074643124
30
0
10
-4931.9868029303943
20
-4106.4670271502973
30
0
10
-4929.6013634028013
20
-4104.8687319831051
30
0
10
-4928.3378045502559
20
-4104.199207317477
30
0
10
-4925.7281532443658
20
-4103.1329917246867
30
0
10
-4924.3832142615447
20
-4102.7374808962659
30
0
10
-4921.6958401550592
20
-4102.2208133449758
30
0
10
-4920.3534057567676
20
-4102.0999999999949
30
0
10
-4919.0592499999912
20
-4102.0999999999949
30
0
0
SPLINE
5
182
100
AcDbEntity
8
0
100
AcDbSpline
70
0
71
3
72
14
73
10
74
0
42
0.000000001
43
0.0000000001
44
0.0000000001
40
-1.771497835973995
40
-1.771497835973995
40
-1.771497835973995
40
-1.771497835973995
40
-1.3286233769804963
40
-1.3286233769804963
40
-0.88574891798699751
40
-0.88574891798699751
40
-0.44287445899349875
40
-0.44287445899349875
40
0
40
0
40
0
40
0
10
-4903.9788355494529
20
-4108.4499999999944
30
0
10
-4905.010430674819
20
-4107.3940074643124
30
0
10
-4906.131697069588
20
-4106.4670271502973
30
0
10
-4908.517136597181
20
-4104.8687319831051
30
0
10
-4909.7806954497264
20
-4104.199207317477
30
0
10
-4912.3903467556165
20
-4103.1329917246867
30
0
10
-4913.7352857384376
20
-4102.7374808962659
30
0
10
-4916.4226598449231
20
-4102.2208133449758
30
0
10
-4917.7650942432147
20
-4102.0999999999949
30
0
10
-4919.0592499999912
20
-4102.0999999999949
30
0
0
LINE
5
183
100
AcDbEntity
8
0
100
AcDbLine
10
-4929.3779999999888
20
-4089.4000000000001
30
0
11
-6072.3779999999888
21
-4089.4000000000001
31
0
0
ARC
5
184
100
AcDbEntity
8
0
100
AcDbCircle
10
-6082.6967499999937
20
-4123.1819999999952
30
0
40
21.081999999999866
210
0
220
0
230
1
100
AcDbArc
50
-224.3304209295861
51
44.330420929584392
0
SPLINE
5
185
100
AcDbEntity
8
0
100
AcDbSpline
70
0
71
3
72
14
73
10
74
0
42
0.000000001
43
0.0000000001
44
0.0000000001
40
3.8578321122856725
40
3.8578321122856725
40
3.8578321122856725
40
3.8578321122856725
40
4.3007065712791714
40
4.3007065712791714
40
4.7435810302726704
40
4.7435810302726704
40
5.1864554892661694
40
5.1864554892661694
40
5.6293299482596675
40
5.6293299482596675
40
5.6293299482596675
40
5.6293299482596675
10
-6097.777164450531
20
-4108.4499999999944
30
0
10
-6096.745569325165
20
-4107.3940074643124
30
0
10
-6095.624302930396
20
-4106.4670271502973
30
0
10
-6093.238863402803
20
-4104.8687319831051
30
0
10
-6091.9753045502584
20
-4104.199207317477
30
0
10
-6089.3656532443683
20
-4103.1329917246867
30
0
10
-6088.0207142615463
20
-4102.7374808962659
30
0
10
-6085.3333401550617
20
-4102.2208133449758
30
0
10
-6083.9909057567693
20
-4102.0999999999949
30
0
10
-6082.6967499999937
20
-4102.0999999999949
30
0
0
SPLINE
5
186
100
AcDbEntity
8
0
100
AcDbSpline
70
0
71
3
72
14
73
10
74
0
42
0.000000001
43
0.0000000001
44
0.0000000001
40
-1.771497835973995
40
-1.771497835973995
40
-1.771497835973995
40
-1.771497835973995
40
-1.3286233769804963
40
-1.3286233769804963
40
-0.88574891798699751
40
-0.88574891798699751
40
-0.44287445899349875
40
-0.44287445899349875
40
0
40
0
40
0
40
0
10
-6067.6163355494555
20
-4108.4499999999944
30
0
10
-6068.6479306748224
20
-4107.3940074643124
30
0
10
-6069.7691970695905
20
-4106.4670271502973
30
0
10
-6072.1546365971835
20
-4104.8687319831051
30
0
10
-6073.418195449729
20
-4104.199207317477
30
0
10
-6076.0278467556182
20
-4103.1329917246867
30
0
10
-6077.3727857384392
20
-4102.7374808962659
30
0
10
-6080.0601598449248
20
-4102.2208133449758
30
0
10
-6081.4025942432172
20
-4102.0999999999949
30
0
10
-6082.6967499999937
20
-4102.0999999999949
30
0
0
ARC
5
187
100
AcDbEntity
8
0
100
AcDbCircle
10
-7334.503999999999
20
-4123.1819999999989
30
0
40
21.081999999999866
210
0
220
0
230
1
100
AcDbArc
50
-224.33042092958263
51
44.330420929584356
0
SPLINE
5
188
100
AcDbEntity
8
0
100
AcDbSpline
70
0
71
3
72
14
73
10
74
0
42
0.000000001
43
0.0000000001
44
0.0000000001
40
3.8578321122856725
40
3.8578321122856725
40
3.8578321122856725
40
3.8578321122856725
40
4.3007065712791714
40
4.3007065712791714
40
4.7435810302726704
40
4.7435810302726704
40
5.1864554892661694
40
5.1864554892661694
40
5.6293299482596675
40
5.6293299482596675
40
5.6293299482596675
40
5.6293299482596675
10
-7349.5844144505372
20
-4108.4499999999989
30
0
10
-7348.5528193251703
20
-4107.3940074643169
30
0
10
-7347.4315529304022
20
-4106.4670271503019
30
0
10
-7345.0461134028092
20
-4104.8687319831097
30
0
10
-7343.7825545502637
20
-4104.1992073174815
30
0
10
-7341.1729032443745
20
-4103.1329917246912
30
0
10
-7339.8279642615526
20
-4102.7374808962704
30
0
10
-7337.1405901550679
20
-4102.2208133449803
30
0
10
-7335.7981557567755
20
-4102.0999999999995
30
0
10
-7334.503999999999
20
-4102.0999999999995
30
0
0
SPLINE
5
189
100
AcDbEntity
8
0
100
AcDbSpline
70
0
71
3
72
14
73
10
74
0
42
0.000000001
43
0.0000000001
44
0.0000000001
40
-1.771497835973995
40
-1.771497835973995
40
-1.771497835973995
40
-1.771497835973995
40
-1.3286233769804963
40
-1.3286233769804963
40
-0.88574891798699751
40
-0.88574891798699751
40
-0.44287445899349875
40
-0.44287445899349875
40
0
40
0
40
0
40
0
10
-7319.4235855494617
20
-4108.4499999999989
30
0
10
-7320.4551806748277
20
-4107.3940074643169
30
0
10
-7321.5764470695967
20
-4106.4670271503019
30
0
10
-7323.9618865971897
20
-4104.8687319831097
30
0
10
-7325.2254454497343
20
-4104.1992073174815
30
0
10
-7327.8350967556244
20
-4103.1329917246912
30
0
10
-7329.1800357384454
20
-4102.7374808962704
30
0
10
-7331.867409844931
20
-4102.2208133449803
30
0
10
-7333.2098442432234
20
-4102.0999999999995
30
0
10
-7334.503999999999
20
-4102.0999999999995
30
0
0
LINE
5
190
100
AcDbEntity
8
0
100
AcDbLine
10
-8255.2540000000008
20
-4062.0632499999992
30
0
11
-8261.6040000000012
21
-4062.0632499999992
31
0
0
LINE
5
191
100
AcDbEntity
8
0
100
AcDbLine
10
-8255.2540000000008
20
-4150.9632499999989
30
0
11
-8255.2540000000008
21
-4062.0632499999992
31
0
0
LINE
5
192
100
AcDbEntity
8
0
100
AcDbLine
10
-8261.6040000000012
20
-4150.9632499999989
30
1.480482403337644e-14
11
-8255.2540000000008
21
-4150.9632499999989
31
0
0
LINE
5
193
100
AcDbEntity
8
0
100
AcDbLine
10
-8256.5874999999978
20
-4039.4890000000146
30
0
11
-8256.5874999999978
21
-4045.8390000000145
31
-2.8199664825479014e-15
0
LINE
5
194
100
AcDbEntity
8
0
100
AcDbLine
10
-8256.5874999999978
20
-3550.5390000000148
30
3.9745984281582636e-15
11
-8256.5874999999978
21
-3537.8390000000149
31
5.6399329650958138e-15
0
LINE
5
195
100
AcDbEntity
8
0
100
AcDbLine
10
-8256.5874999999978
20
-3321.9390000000149
30
0
11
-8256.5874999999978
21
-3334.6390000000147
31
1.1701750679549174e-14
0
LINE
5
196
100
AcDbEntity
8
0
100
AcDbLine
10
-8256.5874999999978
20
-3321.9390000000149
30
0
11
-8256.5874999999978
21
-2832.989000000015
31
3.9745984281582321e-15
0
LINE
5
197
100
AcDbEntity
8
0
100
AcDbLine
10
-8256.5874999999978
20
-2826.6390000000142
30
8.8817841970012523e-15
11
-8256.5874999999978
21
-2832.989000000015
31
3.9745984281582321e-15
0
LINE
5
198
100
AcDbEntity
8
0
100
AcDbLine
10
-8262.9374999999982
20
-2826.6390000000142
30
8.8817841970012523e-15
11
-8256.5874999999978
21
-2826.6390000000142
31
8.8817841970012523e-15
0
LINE
5
199
100
AcDbEntity
8
0
100
AcDbLine
10
-8256.5874999999978
20
-4045.8390000000145
30
-2.8199664825479014e-15
11
-8262.9374999999982
21
-4045.8390000000145
31
-3.1307917175958887e-31
0
LINE
5
200
100
AcDbEntity
8
0
100
AcDbLine
10
-8256.5874999999978
20
-4007.7390000000146
30
0
11
-8243.8874999999989
21
-4007.7390000000146
31
6.2615834351917774e-31
0
LINE
5
201
100
AcDbEntity
8
0
100
AcDbLine
10
-8237.5374999999985
20
-3582.2890000000143
30
0
11
-8237.5374999999985
21
-3575.9390000000149
31
1.2256862191861656e-14
0
LINE
5
202
100
AcDbEntity
8
0
100
AcDbLine
10
-8237.5374999999985
20
-3582.2890000000143
30
0
11
-8237.5374999999985
21
-4001.3890000000147
31
3.9968028886488217e-16
0
LINE
5
203
100
AcDbEntity
8
0
100
AcDbLine
10
-8237.5374999999985
20
-4001.3890000000147
30
3.9968028886488217e-16
11
-8237.5374999999985
21
-4007.7390000000146
31
-2.8199664825479014e-15
0
LINE
5
204
100
AcDbEntity
8
0
100
AcDbLine
10
-8237.5374999999985
20
-4007.7390000000146
30
-2.8199664825479014e-15
11
-8243.8874999999989
21
-4007.7390000000146
31
6.2615834351917774e-31
0
ARC
5
205
100
AcDbEntity
8
0
100
AcDbCircle
10
-8267.3748799999976
20
-3335.2663800000141
30
-8.8817841970012523e-15
40
4.4373799999999619
210
-0
220
0
230
1
100
AcDbArc
50
270
51
360
0
ARC
5
206
100
AcDbEntity
8
0
100
AcDbCircle
10
-8267.3748799999976
20
-3542.2763800000157
30
0
40
4.4373800000005303
210
2.7211021906121482e-15
220
1.0457302614426312e-27
230
1
100
AcDbArc
50
0
51
90
0
LINE
5
207
100
AcDbEntity
8
0
100
AcDbLine
10
-8336.5974999999962
20
-3339.703760000014
30
0
11
-8267.3748799999976
21
-3339.703760000014
31
-8.8817841970012523e-15
0
LINE
5
208
100
AcDbEntity
8
0
100
AcDbLine
10
-8336.5974999999962
20
-3537.8390000000145
30
0
11
-8267.3748799999976
21
-3537.8390000000149
31
0
0
ARC
5
209
100
AcDbEntity
8
0
100
AcDbCircle
10
-8336.5974999999962
20
-3342.2437600000144
30
0
40
2.540000000000191
210
-1.1551831962204445e-47
220
0
230
1
100
AcDbArc
50
90
51
180
0
ARC
5
210
100
AcDbEntity
8
0
100
AcDbCircle
10
-8336.5974999999962
20
-3535.2990000000136
30
-8.8817841970012523e-15
40
2.540000000000191
210
0
220
0
230
1
100
AcDbArc
50
180
51
270
0
LINE
5
211
100
AcDbEntity
8
0
100
AcDbLine
10
-8339.1374999999971
20
-3535.2990000000141
30
-8.8817841970012523e-15
11
-8339.1374999999971
21
-3342.2437600000144
31
8.4381515617724857e-46
0
LINE
5
212
100
AcDbEntity
8
0
100
AcDbLine
10
-8258.1750000000011
20
-609.59999999999229
30
-7.1054273576010019e-14
11
-7038.9750000000013
21
-609.59999999999309
31
-6.0807557411733239e-14
0
LINE
5
213
100
AcDbEntity
8
0
100
AcDbLine
10
-7038.9750000000013
20
-603.24999999999307
30
-7.1054273576010019e-14
11
-7038.9750000000013
21
-609.59999999999309
31
-6.0807557411733239e-14
0
LINE
5
214
100
AcDbEntity
8
0
100
AcDbLine
10
-8258.1749999999993
20
-914.40000000001135
30
0
11
-8258.1749999999993
21
-2743.2000000000112
31
0
0
LINE
5
215
100
AcDbEntity
8
0
100
AcDbLine
10
-8258.1749999999993
20
-2743.2000000000112
30
0
11
-8262.9375
21
-2743.2000000000112
31
0
0
LINE
5
216
100
AcDbEntity
8
0
100
AcDbLine
10
-7038.9750000000004
20
609.60000000000423
30
0
11
-8258.1749999999993
21
609.60000000000502
31
-3.9931458198022694e-14
0
LINE
5
217
100
AcDbEntity
8
0
100
AcDbLine
10
-7038.9750000000004
20
603.25000000000432
30
1.0246716164276275e-14
11
-7038.9750000000004
21
609.60000000000423
31
0
0
LINE
5
218
100
AcDbEntity
8
0
100
AcDbLine
10
-8262.9375
20
2743.1999999999853
30
0
11
-8258.1749999999993
21
2743.1999999999853
31
0
0
LINE
5
219
100
AcDbEntity
8
0
100
AcDbLine
10
-8258.1749999999993
20
2743.1999999999853
30
0
11
-8258.1749999999938
21
914.39999999998577
31
0
0
LINE
5
220
100
AcDbEntity
8
0
100
AcDbLine
10
-8256.5875000000015
20
4045.8389999999854
30
0
11
-8256.5875000000015
21
4039.488999999985
31
1.4904744105595264e-15
0
LINE
5
221
100
AcDbEntity
8
0
100
AcDbLine
10
-8256.5875000000015
20
2832.988999999985
30
0
11
-8256.5875000000015
21
2826.6389999999856
31
-1.0574874309554733e-15
0
LINE
5
222
100
AcDbEntity
8
0
100
AcDbLine
10
-8256.5875000000015
20
2832.988999999985
30
0
11
-8256.5875000000015
21
3321.9389999999848
31
1.4904744105595106e-15
0
LINE
5
223
100
AcDbEntity
8
0
100
AcDbLine
10
-8256.5875000000015
20
3334.6389999999856
30
8.8817841970012523e-15
11
-8256.5875000000015
21
3321.9389999999848
31
1.4904744105595106e-15
0
LINE
5
224
100
AcDbEntity
8
0
100
AcDbLine
10
-8256.5875000000015
20
3537.8389999999854
30
1.0574874309554614e-15
11
-8256.5875000000015
21
3550.5389999999852
31
0
0
LINE
5
225
100
AcDbEntity
8
0
100
AcDbLine
10
-8262.9375000000018
20
4045.8389999999854
30
0
11
-8256.5875000000015
21
4045.8389999999854
31
0
0
LINE
5
226
100
AcDbEntity
8
0
100
AcDbLine
10
-8256.5875000000015
20
2826.6389999999856
30
-1.0574874309554733e-15
11
-8262.9375
21
2826.6389999999856
31
1.9825411154020665e-15
0
ARC
5
227
100
AcDbEntity
8
0
100
AcDbCircle
10
-8267.3748800000012
20
3542.2763799999852
30
8.8817841970012523e-15
40
4.4373799999999619
210
-1.7172643381697906e-47
220
0
230
1
100
AcDbArc
50
270
51
360
0
ARC
5
228
100
AcDbEntity
8
0
100
AcDbCircle
10
-8267.3748800000012
20
3335.2663799999846
30
4.9647566685258167e-44
40
4.4373800000005303
210
-1.0254985198882656e-15
220
-2.6268610270420429e-28
230
1
100
AcDbArc
50
0
51
89.999999999976509
0
LINE
5
229
100
AcDbEntity
8
0
100
AcDbLine
10
-8336.5974999999999
20
3537.8389999999854
30
0
11
-8267.3748800000012
21
3537.8389999999854
31
8.8817841970012523e-15
0
LINE
5
230
100
AcDbEntity
8
0
100
AcDbLine
10
-8336.5974999999999
20
3339.7037599999849
30
8.8817841970012523e-15
11
-8267.3748799999994
21
3339.7037599999849
31
-2.1877972522559287e-31
0
ARC
5
231
100
AcDbEntity
8
0
100
AcDbCircle
10
-8336.5974999999999
20
3535.2989999999854
30
0
40
2.540000000000191
210
-0
220
0
230
1
100
AcDbArc
50
90
51
180
0
ARC
5
232
100
AcDbEntity
8
0
100
AcDbCircle
10
-8336.5975000000017
20
3342.2437599999839
30
8.8817841970012523e-15
40
2.5399999999990541
210
0
220
0
230
1
100
AcDbArc
50
180
51
270.00000000004104
0
LINE
5
233
100
AcDbEntity
8
0
100
AcDbLine
10
-8339.1375000000007
20
3342.2437599999853
30
8.8817841970012523e-15
11
-8339.1375000000007
21
3535.2989999999854
31
0
0
LINE
5
234
100
AcDbEntity
8
0
100
AcDbLine
10
-8243.8875000000025
20
3575.9389999999858
30
0
11
-8256.5875000000015
21
3575.9389999999858
31
0
0
LINE
5
235
100
AcDbEntity
8
0
100
AcDbLine
10
-8237.5375000000022
20
3582.2889999999861
30
0
11
-8237.5375000000022
21
4001.388999999986
31
-1.2601031329493375e-15
0
LINE
5
236
100
AcDbEntity
8
0
100
AcDbLine
10
-8237.5375000000022
20
4001.388999999986
30
-1.2601031329493375e-15
11
-8237.5375000000022
21
4007.7389999999859
31
1.0574874309554646e-15
0
LINE
5
237
100
AcDbEntity
8
0
100
AcDbLine
10
-8243.8875000000025
20
4007.7389999999859
30
1.0574874309554646e-15
11
-8237.5375000000022
21
4007.7389999999859
31
1.0574874309554646e-15
0
LINE
5
238
100
AcDbEntity
8
0
100
AcDbLine
10
-8237.5375000000004
20
3423.5389999999861
30
-5.3290705182007514e-14
11
-8243.8875000000025
21
3423.5389999999861
31
-7.6161299489286395e-15
0
LINE
5
239
100
AcDbEntity
8
0
100
AcDbLine
10
-8237.5375000000022
20
3582.2889999999861
30
0
11
-8237.5375000000004
21
3575.9389999999858
31
-5.4556359430080114e-14
0
LINE
5
240
100
AcDbEntity
8
0
100
AcDbLine
10
-8256.5875000000015
20
4007.7389999999855
30
4.2299497238218584e-15
11
-8243.8875000000025
21
4007.7389999999859
31
1.0574874309554646e-15
0
LINE
5
241
100
AcDbEntity
8
0
100
AcDbLine
10
-8255.2539999999935
20
4150.9632499999998
30
0
11
-8255.2539999999935
21
4062.0632500000002
31
0
0
LINE
5
242
100
AcDbEntity
8
0
100
AcDbLine
10
-8255.2539999999935
20
4062.0632500000002
30
0
11
-8261.6039999999939
21
4062.0632500000002
31
0
0
ARC
5
243
100
AcDbEntity
8
0
100
AcDbCircle
10
-7334.5039999999935
20
4123.1819999999998
30
0
40
21.081999999999866
210
0
220
0
230
1
100
AcDbArc
50
-44.330420929584356
51
224.33042092958263
0
SPLINE
5
244
100
AcDbEntity
8
0
100
AcDbSpline
70
0
71
3
72
14
73
10
74
0
42
0.000000001
43
0.0000000001
44
0.0000000001
40
3.8578321122856725
40
3.8578321122856725
40
3.8578321122856725
40
3.8578321122856725
40
4.3007065712791714
40
4.3007065712791714
40
4.7435810302726704
40
4.7435810302726704
40
5.1864554892661694
40
5.1864554892661694
40
5.6293299482596675
40
5.6293299482596675
40
5.6293299482596675
40
5.6293299482596675
10
-7319.4235855494562
20
4108.4499999999998
30
0
10
-7320.4551806748223
20
4107.3940074643169
30
0
10
-7321.5764470695913
20
4106.4670271503028
30
0
10
-7323.9618865971843
20
4104.8687319831097
30
0
10
-7325.2254454497288
20
4104.1992073174824
30
0
10
-7327.835096755618
20
4103.1329917246912
30
0
10
-7329.1800357384409
20
4102.7374808962704
30
0
10
-7331.8674098449255
20
4102.2208133449813
30
0
10
-7333.209844243218
20
4102.0999999999995
30
0
10
-7334.5039999999935
20
4102.0999999999995
30
0
0
SPLINE
5
245
100
AcDbEntity
8
0
100
AcDbSpline
70
0
71
3
72
14
73
10
74
0
42
0.000000001
43
0.0000000001
44
0.0000000001
40
-1.771497835973995
40
-1.771497835973995
40
-1.771497835973995
40
-1.771497835973995
40
-1.3286233769804963
40
-1.3286233769804963
40
-0.88574891798699751
40
-0.88574891798699751
40
-0.44287445899349875
40
-0.44287445899349875
40
0
40
0
40
0
40
0
10
-7349.5844144505318
20
4108.4499999999998
30
0
10
-7348.5528193251648
20
4107.3940074643169
30
0
10
-7347.4315529303967
20
4106.4670271503028
30
0
10
-7345.0461134028037
20
4104.8687319831097
30
0
10
-7343.7825545502583
20
4104.1992073174824
30
0
10
-7341.1729032443691
20
4103.1329917246912
30
0
10
-7339.8279642615471
20
4102.7374808962704
30
0
10
-7337.1405901550625
20
4102.2208133449813
30
0
10
-7335.79815575677
20
4102.0999999999995
30
0
10
-7334.5039999999935
20
4102.0999999999995
30
0
0
SPLINE
5
246
100
AcDbEntity
8
0
100
AcDbSpline
70
0
71
3
72
18
73
14
74
0
42
0.000000001
43
0.0000000001
44
0.0000000001
40
5.3874957587564145
40
5.3874957587564145
40
5.3874957587564145
40
5.3874957587564145
40
5.8115267615253003
40
5.8115267615253003
40
6.0789853823507753
40
6.0789853823507753
40
6.3464440031762503
40
6.3464440031762503
40
6.6139026240017253
40
6.6139026240017253
40
6.8813612448272004
40
6.8813612448272004
40
7.3053922475960871
40
7.3053922475960871
40
7.3053922475960871
40
7.3053922475960871
10
-6092.1903716482529
20
4108.4499999999953
30
0
10
-6090.9753413051603
20
4107.667007984759
30
0
10
-6089.6118594492609
20
4107.0079982017778
30
0
10
-6087.2855044738399
20
4106.2408768638625
30
0
10
-6086.3599678287192
20
4106.0175830553162
30
0
10
-6084.5113893083653
20
4105.7250971375688
30
0
10
-6083.5882787360933
20
4105.6559999999954
30
0
10
-6081.805221263925
20
4105.6559999999954
30
0
10
-6080.882110691653
20
4105.7250971375688
30
0
10
-6079.0335321712992
20
4106.0175830553162
30
0
10
-6078.1079955261785
20
4106.2408768638625
30
0
10
-6075.7816405507574
20
4107.0079982017778
30
0
10
-6074.418158694858
20
4107.667007984759
30
0
10
-6073.2031283517654
20
4108.4499999999953
30
0
0
ARC
5
247
100
AcDbEntity
8
0
100
AcDbCircle
10
-6082.6967500000092
20
4123.1819999999952
30
0
40
21.081999999999866
210
0
220
0
230
1
100
AcDbArc
50
-44.330420929584356
51
224.33042092958436
0
SPLINE
5
248
100
AcDbEntity
8
0
100
AcDbSpline
70
0
71
3
72
14
73
10
74
0
42
0.000000001
43
0.0000000001
44
0.0000000001
40
3.8578321122856725
40
3.8578321122856725
40
3.8578321122856725
40
3.8578321122856725
40
4.3007065712791714
40
4.3007065712791714
40
4.7435810302726704
40
4.7435810302726704
40
5.1864554892661694
40
5.1864554892661694
40
5.6293299482596675
40
5.6293299482596675
40
5.6293299482596675
40
5.6293299482596675
10
-6067.6163355494718
20
4108.4499999999953
30
0
10
-6068.6479306748379
20
4107.3940074643124
30
0
10
-6069.7691970696069
20
4106.4670271502982
30
0
10
-6072.154636597199
20
4104.8687319831051
30
0
10
-6073.4181954497444
20
4104.1992073174779
30
0
10
-6076.0278467556336
20
4103.1329917246867
30
0
10
-6077.3727857384565
20
4102.7374808962659
30
0
10
-6080.0601598449412
20
4102.2208133449767
30
0
10
-6081.4025942432327
20
4102.0999999999949
30
0
10
-6082.6967500000092
20
4102.0999999999949
30
0
0
SPLINE
5
249
100
AcDbEntity
8
0
100
AcDbSpline
70
0
71
3
72
14
73
10
74
0
42
0.000000001
43
0.0000000001
44
0.0000000001
40
-1.771497835973995
40
-1.771497835973995
40
-1.771497835973995
40
-1.771497835973995
40
-1.3286233769804963
40
-1.3286233769804963
40
-0.88574891798699751
40
-0.88574891798699751
40
-0.44287445899349875
40
-0.44287445899349875
40
0
40
0
40
0
40
0
10
-6097.7771644505465
20
4108.4499999999953
30
0
10
-6096.7455693251804
20
4107.3940074643124
30
0
10
-6095.6243029304114
20
4106.4670271502982
30
0
10
-6093.2388634028193
20
4104.8687319831051
30
0
10
-6091.9753045502739
20
4104.1992073174779
30
0
10
-6089.3656532443847
20
4103.1329917246867
30
0
10
-6088.0207142615636
20
4102.7374808962659
30
0
10
-6085.3333401550772
20
4102.2208133449767
30
0
10
-6083.9909057567857
20
4102.0999999999949
30
0
10
-6082.6967500000092
20
4102.0999999999949
30
0
0
SPLINE
5
250
100
AcDbEntity
8
0
100
AcDbSpline
70
0
71
3
72
18
73
14
74
0
42
0.000000001
43
0.0000000001
44
0.0000000001
40
5.3874957587564145
40
5.3874957587564145
40
5.3874957587564145
40
5.3874957587564145
40
5.8115267615253003
40
5.8115267615253003
40
6.0789853823507753
40
6.0789853823507753
40
6.3464440031762503
40
6.3464440031762503
40
6.6139026240017253
40
6.6139026240017253
40
6.8813612448272004
40
6.8813612448272004
40
7.3053922475960871
40
7.3053922475960871
40
7.3053922475960871
40
7.3053922475960871
10
-4928.5528716482513
20
4108.4499999999953
30
0
10
-4927.3378413051578
20
4107.667007984759
30
0
10
-4925.9743594492584
20
4107.0079982017778
30
0
10
-4923.6480044738382
20
4106.2408768638625
30
0
10
-4922.7224678287157
20
4106.0175830553162
30
0
10
-4920.8738893083628
20
4105.7250971375688
30
0
10
-4919.9507787360917
20
4105.6559999999954
30
0
10
-4918.1677212639224
20
4105.6559999999954
30
0
10
-4917.2446106916514
20
4105.7250971375688
30
0
10
-4915.3960321712984
20
4106.0175830553162
30
0
10
-4914.4704955261759
20
4106.2408768638625
30
0
10
-4912.1441405507558
20
4107.0079982017778
30
0
10
-4910.7806586948564
20
4107.667007984759
30
0
10
-4909.5656283517637
20
4108.4499999999953
30
0
0
ARC
5
251
100
AcDbEntity
8
0
100
AcDbCircle
10
-4919.0592500000075
20
4123.1819999999952
30
0
40
21.082000000000278
210
0
220
0
230
1
100
AcDbArc
50
-44.330420929580889
51
224.33042092958263
0
SPLINE
5
252
100
AcDbEntity
8
0
100
AcDbSpline
70
0
71
3
72
14
73
10
74
0
42
0.000000001
43
0.0000000001
44
0.0000000001
40
3.8578321122856725
40
3.8578321122856725
40
3.8578321122856725
40
3.8578321122856725
40
4.3007065712791714
40
4.3007065712791714
40
4.7435810302726704
40
4.7435810302726704
40
5.1864554892661694
40
5.1864554892661694
40
5.6293299482596675
40
5.6293299482596675
40
5.6293299482596675
40
5.6293299482596675
10
-4903.9788355494684
20
4108.4499999999953
30
0
10
-4905.0104306748353
20
4107.3940074643124
30
0
10
-4906.1316970696043
20
4106.4670271502982
30
0
10
-4908.5171365971964
20
4104.8687319831051
30
0
10
-4909.7806954497428
20
4104.1992073174779
30
0
10
-4912.390346755632
20
4103.1329917246867
30
0
10
-4913.735285738454
20
4102.7374808962659
30
0
10
-4916.4226598449395
20
4102.2208133449767
30
0
10
-4917.765094243231
20
4102.0999999999949
30
0
10
-4919.0592500000075
20
4102.0999999999949
30
0
0
SPLINE
5
253
100
AcDbEntity
8
0
100
AcDbSpline
70
0
71
3
72
14
73
10
74
0
42
0.000000001
43
0.0000000001
44
0.0000000001
40
-1.771497835973995
40
-1.771497835973995
40
-1.771497835973995
40
-1.771497835973995
40
-1.3286233769804963
40
-1.3286233769804963
40
-0.88574891798699751
40
-0.88574891798699751
40
-0.44287445899349875
40
-0.44287445899349875
40
0
40
0
40
0
40
0
10
-4934.1396644505458
20
4108.4499999999953
30
0
10
-4933.1080693251788
20
4107.3940074643124
30
0
10
-4931.9868029304098
20
4106.4670271502982
30
0
10
-4929.6013634028177
20
4104.8687319831051
30
0
10
-4928.3378045502723
20
4104.1992073174779
30
0
10
-4925.7281532443822
20
4103.1329917246867
30
0
10
-4924.3832142615602
20
4102.7374808962659
30
0
10
-4921.6958401550746
20
4102.2208133449767
30
0
10
-4920.3534057567831
20
4102.0999999999949
30
0
10
-4919.0592500000075
20
4102.0999999999949
30
0
0
ARC
5
254
100
AcDbEntity
8
0
100
AcDbCircle
10
-3667.2519999999872
20
4123.1819999999952
30
0
40
21.082000000000278
210
0
220
0
230
1
100
AcDbArc
50
-44.330420929582623
51
224.33042092958263
0
SPLINE
5
255
100
AcDbEntity
8
0
100
AcDbSpline
70
0
71
3
72
14
73
10
74
0
42
0.000000001
43
0.0000000001
44
0.0000000001
40
3.8578321122856725
40
3.8578321122856725
40
3.8578321122856725
40
3.8578321122856725
40
4.3007065712791714
40
4.3007065712791714
40
4.7435810302726704
40
4.7435810302726704
40
5.1864554892661694
40
5.1864554892661694
40
5.6293299482596675
40
5.6293299482596675
40
5.6293299482596675
40
5.6293299482596675
10
-3652.171585549449
20
4108.4499999999953
30
0
10
-3653.2031806748155
20
4107.3940074643124
30
0
10
-3654.3244470695845
20
4106.4670271502982
30
0
10
-3656.709886597177
20
4104.8687319831051
30
0
10
-3657.9734454497225
20
4104.1992073174779
30
0
10
-3660.5830967556126
20
4103.1329917246867
30
0
10
-3661.9280357384337
20
4102.7374808962659
30
0
10
-3664.6154098449192
20
4102.2208133449767
30
0
10
-3665.9578442432112
20
4102.0999999999949
30
0
10
-3667.2519999999872
20
4102.0999999999949
30
0
0
SPLINE
5
256
100
AcDbEntity
8
0
100
AcDbSpline
70
0
71
3
72
14
73
10
74
0
42
0.000000001
43
0.0000000001
44
0.0000000001
40
-1.771497835973995
40
-1.771497835973995
40
-1.771497835973995
40
-1.771497835973995
40
-1.3286233769804963
40
-1.3286233769804963
40
-0.88574891798699751
40
-0.88574891798699751
40
-0.44287445899349875
40
-0.44287445899349875
40
0
40
0
40
0
40
0
10
-3682.3324144505254
20
4108.4499999999953
30
0
10
-3681.300819325159
20
4107.3940074643124
30
0
10
-3680.1795529303899
20
4106.4670271502982
30
0
10
-3677.7941134027974
20
4104.8687319831051
30
0
10
-3676.530554550252
20
4104.1992073174779
30
0
10
-3673.9209032443619
20
4103.1329917246867
30
0
10
-3672.5759642615408
20
4102.7374808962659
30
0
10
-3669.8885901550552
20
4102.2208133449767
30
0
10
-3668.5461557567633
20
4102.0999999999949
30
0
10
-3667.2519999999872
20
4102.0999999999949
30
0
0
ARC
5
257
100
AcDbEntity
8
0
100
AcDbCircle
10
-1833.6259999999975
20
4123.1819999999952
30
0
40
21.082000000000068
210
0
220
0
230
1
100
AcDbArc
50
-44.330420929583077
51
224.33042092958263
0
SPLINE
5
258
100
AcDbEntity
8
0
100
AcDbSpline
70
0
71
3
72
14
73
10
74
0
42
0.000000001
43
0.0000000001
44
0.0000000001
40
3.8578321122856725
40
3.8578321122856725
40
3.8578321122856725
40
3.8578321122856725
40
4.3007065712791714
40
4.3007065712791714
40
4.7435810302726704
40
4.7435810302726704
40
5.1864554892661694
40
5.1864554892661694
40
5.6293299482596675
40
5.6293299482596675
40
5.6293299482596675
40
5.6293299482596675
10
-1818.5455855494595
20
4108.4499999999953
30
0
10
-1819.5771806748257
20
4107.3940074643124
30
0
10
-1820.6984470695952
20
4106.4670271502982
30
0
10
-1823.0838865971875
20
4104.8687319831051
30
0
10
-1824.3474454497327
20
4104.1992073174779
30
0
10
-1826.9570967556228
20
4103.1329917246867
30
0
10
-1828.3020357384441
20
4102.7374808962659
30
0
10
-1830.9894098449297
20
4102.2208133449767
30
0
10
-1832.3318442432214
20
4102.0999999999949
30
0
10
-1833.6259999999975
20
4102.0999999999949
30
0
0
SPLINE
5
259
100
AcDbEntity
8
0
100
AcDbSpline
70
0
71
3
72
14
73
10
74
0
42
0.000000001
43
0.0000000001
44
0.0000000001
40
-1.771497835973995
40
-1.771497835973995
40
-1.771497835973995
40
-1.771497835973995
40
-1.3286233769804963
40
-1.3286233769804963
40
-0.88574891798699751
40
-0.88574891798699751
40
-0.44287445899349875
40
-0.44287445899349875
40
0
40
0
40
0
40
0
10
-1848.7064144505357
20
4108.4499999999953
30
0
10
-1847.6748193251694
20
4107.3940074643124
30
0
10
-1846.5535529304
20
4106.4670271502982
30
0
10
-1844.1681134028076
20
4104.8687319831051
30
0
10
-1842.9045545502622
20
4104.1992073174779
30
0
10
-1840.2949032443723
20
4103.1329917246867
30
0
10
-1838.949964261551
20
4102.7374808962659
30
0
10
-1836.2625901550655
20
4102.2208133449767
30
0
10
-1834.920155756774
20
4102.0999999999949
30
0
10
-1833.6259999999975
20
4102.0999999999949
30
0
0
ARC
5
260
100
AcDbEntity
8
0
100
AcDbCircle
10
-3.5416114485542494e-13
20
4123.1819999999952
30
0
40
21.082000000000146
210
0
220
0
230
1
100
AcDbArc
50
-44.330420929582729
51
224.33042092958274
0
SPLINE
5
261
100
AcDbEntity
8
0
100
AcDbSpline
70
0
71
3
72
14
73
10
74
0
42
0.000000001
43
0.0000000001
44
0.0000000001
40
3.8578321122856725
40
3.8578321122856725
40
3.8578321122856725
40
3.8578321122856725
40
4.3007065712791714
40
4.3007065712791714
40
4.7435810302726704
40
4.7435810302726704
40
5.1864554892661694
40
5.1864554892661694
40
5.6293299482596675
40
5.6293299482596675
40
5.6293299482596675
40
5.6293299482596675
10
15.080414450537791
20
4108.4499999999953
30
0
10
14.048819325171404
20
4107.3940074643124
30
0
10
12.927552930402113
20
4106.4670271502982
30
0
10
10.542113402809697
20
4104.8687319831051
30
0
10
9.2785545502644045
20
4104.1992073174779
30
0
10
6.66890324437448
20
4103.1329917246867
30
0
10
5.3239642615530833
20
4102.7374808962659
30
0
10
2.6365901550675739
20
4102.2208133449767
30
0
10
1.2941557567759405
20
4102.0999999999949
30
0
10
-3.5527136788005009e-13
20
4102.0999999999949
30
0
0
SPLINE
5
262
100
AcDbEntity
8
0
100
AcDbSpline
70
0
71
3
72
14
73
10
74
0
42
0.000000001
43
0.0000000001
44
0.0000000001
40
-1.771497835973995
40
-1.771497835973995
40
-1.771497835973995
40
-1.771497835973995
40
-1.3286233769804963
40
-1.3286233769804963
40
-0.88574891798699751
40
-0.88574891798699751
40
-0.44287445899349875
40
-0.44287445899349875
40
0
40
0
40
0
40
0
10
-15.080414450538502
20
4108.4499999999953
30
0
10
-14.048819325172115
20
4107.3940074643124
30
0
10
-12.927552930402824
20
4106.4670271502982
30
0
10
-10.542113402810408
20
4104.8687319831051
30
0
10
-9.2785545502651168
20
4104.1992073174779
30
0
10
-6.6689032443751923
20
4103.1329917246867
30
0
10
-5.3239642615537974
20
4102.7374808962659
30
0
10
-2.636590155068288
20
4102.2208133449767
30
0
10
-1.2941557567766528
20
4102.0999999999949
30
0
10
-3.5527136788005009e-13
20
4102.0999999999949
30
0
0
ARC
5
263
100
AcDbEntity
8
0
100
AcDbCircle
10
1833.6260000000027
20
4123.1819999999952
30
0
40
21.082000000000068
210
0
220
0
230
1
100
AcDbArc
50
-44.330420929583077
51
224.33042092958306
0
SPLINE
5
264
100
AcDbEntity
8
0
100
AcDbSpline
70
0
71
3
72
14
73
10
74
0
42
0.000000001
43
0.0000000001
44
0.0000000001
40
3.8578321122856725
40
3.8578321122856725
40
3.8578321122856725
40
3.8578321122856725
40
4.3007065712791714
40
4.3007065712791714
40
4.7435810302726704
40
4.7435810302726704
40
5.1864554892661694
40
5.1864554892661694
40
5.6293299482596675
40
5.6293299482596675
40
5.6293299482596675
40
5.6293299482596675
10
1848.7064144505407
20
4108.4499999999953
30
0
10
1847.6748193251747
20
4107.3940074643124
30
0
10
1846.5535529304052
20
4106.4670271502982
30
0
10
1844.1681134028127
20
4104.8687319831051
30
0
10
1842.9045545502674
20
4104.1992073174779
30
0
10
1840.2949032443776
20
4103.1329917246867
30
0
10
1838.949964261556
20
4102.7374808962659
30
0
10
1836.2625901550705
20
4102.2208133449767
30
0
10
1834.920155756779
20
4102.0999999999949
30
0
10
1833.6260000000027
20
4102.0999999999949
30
0
0
SPLINE
5
265
100
AcDbEntity
8
0
100
AcDbSpline
70
0
71
3
72
14
73
10
74
0
42
0.000000001
43
0.0000000001
44
0.0000000001
40
-1.771497835973995
40
-1.771497835973995
40
-1.771497835973995
40
-1.771497835973995
40
-1.3286233769804963
40
-1.3286233769804963
40
-0.88574891798699751
40
-0.88574891798699751
40
-0.44287445899349875
40
-0.44287445899349875
40
0
40
0
40
0
40
0
10
1818.5455855494647
20
4108.4499999999953
30
0
10
1819.5771806748307
20
4107.3940074643124
30
0
10
1820.6984470696002
20
4106.4670271502982
30
0
10
1823.0838865971928
20
4104.8687319831051
30
0
10
1824.347445449738
20
4104.1992073174779
30
0
10
1826.9570967556278
20
4103.1329917246867
30
0
10
1828.3020357384494
20
4102.7374808962659
30
0
10
1830.9894098449349
20
4102.2208133449767
30
0
10
1832.3318442432264
20
4102.0999999999949
30
0
10
1833.6260000000027
20
4102.0999999999949
30
0
0
ARC
5
266
100
AcDbEntity
8
0
100
AcDbCircle
10
3667.2520000000127
20
4123.1819999999952
30
0
40
21.082000000000278
210
0
220
0
230
1
100
AcDbArc
50
-44.330420929581763
51
224.33042092958263
0
SPLINE
5
267
100
AcDbEntity
8
0
100
AcDbSpline
70
0
71
3
72
14
73
10
74
0
42
0.000000001
43
0.0000000001
44
0.0000000001
40
3.8578321122856725
40
3.8578321122856725
40
3.8578321122856725
40
3.8578321122856725
40
4.3007065712791714
40
4.3007065712791714
40
4.7435810302726704
40
4.7435810302726704
40
5.1864554892661694
40
5.1864554892661694
40
5.6293299482596675
40
5.6293299482596675
40
5.6293299482596675
40
5.6293299482596675
10
3682.3324144505514
20
4108.4499999999953
30
0
10
3681.3008193251844
20
4107.3940074643124
30
0
10
3680.1795529304154
20
4106.4670271502982
30
0
10
3677.7941134028233
20
4104.8687319831051
30
0
10
3676.5305545502774
20
4104.1992073174779
30
0
10
3673.9209032443878
20
4103.1329917246867
30
0
10
3672.5759642615662
20
4102.7374808962659
30
0
10
3669.8885901550807
20
4102.2208133449767
30
0
10
3668.5461557567892
20
4102.0999999999949
30
0
10
3667.2520000000127
20
4102.0999999999949
30
0
0
SPLINE
5
268
100
AcDbEntity
8
0
100
AcDbSpline
70
0
71
3
72
14
73
10
74
0
42
0.000000001
43
0.0000000001
44
0.0000000001
40
-1.771497835973995
40
-1.771497835973995
40
-1.771497835973995
40
-1.771497835973995
40
-1.3286233769804963
40
-1.3286233769804963
40
-0.88574891798699751
40
-0.88574891798699751
40
-0.44287445899349875
40
-0.44287445899349875
40
0
40
0
40
0
40
0
10
3652.1715855494745
20
4108.4499999999953
30
0
10
3653.203180674841
20
4107.3940074643124
30
0
10
3654.32444706961
20
4106.4670271502982
30
0
10
3656.7098865972025
20
4104.8687319831051
30
0
10
3657.9734454497479
20
4104.1992073174779
30
0
10
3660.5830967556381
20
4103.1329917246867
30
0
10
3661.9280357384596
20
4102.7374808962659
30
0
10
3664.6154098449451
20
4102.2208133449767
30
0
10
3665.9578442432367
20
4102.0999999999949
30
0
10
3667.2520000000127
20
4102.0999999999949
30
0
0
ARC
5
269
100
AcDbEntity
8
0
100
AcDbCircle
10
4919.0592499999912
20
4123.1819999999952
30
0
40
21.082000000000278
210
0
220
0
230
1
100
AcDbArc
50
-44.330420929582623
51
224.33042092958263
0
SPLINE
5
270
100
AcDbEntity
8
0
100
AcDbSpline
70
0
71
3
72
14
73
10
74
0
42
0.000000001
43
0.0000000001
44
0.0000000001
40
3.8578321122856725
40
3.8578321122856725
40
3.8578321122856725
40
3.8578321122856725
40
4.3007065712791714
40
4.3007065712791714
40
4.7435810302726704
40
4.7435810302726704
40
5.1864554892661694
40
5.1864554892661694
40
5.6293299482596675
40
5.6293299482596675
40
5.6293299482596675
40
5.6293299482596675
10
4934.1396644505294
20
4108.4499999999953
30
0
10
4933.1080693251633
20
4107.3940074643124
30
0
10
4931.9868029303943
20
4106.4670271502982
30
0
10
4929.6013634028013
20
4104.8687319831051
30
0
10
4928.3378045502559
20
4104.1992073174779
30
0
10
4925.7281532443658
20
4103.1329917246867
30
0
10
4924.3832142615447
20
4102.7374808962659
30
0
10
4921.6958401550592
20
4102.2208133449767
30
0
10
4920.3534057567676
20
4102.0999999999949
30
0
10
4919.0592499999912
20
4102.0999999999949
30
0
0
SPLINE
5
271
100
AcDbEntity
8
0
100
AcDbSpline
70
0
71
3
72
14
73
10
74
0
42
0.000000001
43
0.0000000001
44
0.0000000001
40
-1.771497835973995
40
-1.771497835973995
40
-1.771497835973995
40
-1.771497835973995
40
-1.3286233769804963
40
-1.3286233769804963
40
-0.88574891798699751
40
-0.88574891798699751
40
-0.44287445899349875
40
-0.44287445899349875
40
0
40
0
40
0
40
0
10
4903.9788355494529
20
4108.4499999999953
30
0
10
4905.010430674819
20
4107.3940074643124
30
0
10
4906.131697069588
20
4106.4670271502982
30
0
10
4908.517136597181
20
4104.8687319831051
30
0
10
4909.7806954497264
20
4104.1992073174779
30
0
10
4912.3903467556165
20
4103.1329917246867
30
0
10
4913.7352857384376
20
4102.7374808962659
30
0
10
4916.4226598449231
20
4102.2208133449767
30
0
10
4917.7650942432147
20
4102.0999999999949
30
0
10
4919.0592499999912
20
4102.0999999999949
30
0
0
LINE
5
272
100
AcDbEntity
8
0
100
AcDbLine
10
4929.3779999999888
20
4089.4000000000001
30
0
11
6072.3779999999888
21
4089.4000000000001
31
0
0
ARC
5
273
100
AcDbEntity
8
0
100
AcDbCircle
10
6082.6967499999937
20
4123.1819999999952
30
0
40
21.081999999999866
210
0
220
0
230
1
100
AcDbArc
50
-44.330420929584356
51
224.33042092958263
0
SPLINE
5
274
100
AcDbEntity
8
0
100
AcDbSpline
70
0
71
3
72
14
73
10
74
0
42
0.000000001
43
0.0000000001
44
0.0000000001
40
3.8578321122856725
40
3.8578321122856725
40
3.8578321122856725
40
3.8578321122856725
40
4.3007065712791714
40
4.3007065712791714
40
4.7435810302726704
40
4.7435810302726704
40
5.1864554892661694
40
5.1864554892661694
40
5.6293299482596675
40
5.6293299482596675
40
5.6293299482596675
40
5.6293299482596675
10
6097.777164450531
20
4108.4499999999953
30
0
10
6096.745569325165
20
4107.3940074643124
30
0
10
6095.624302930396
20
4106.4670271502982
30
0
10
6093.238863402803
20
4104.8687319831051
30
0
10
6091.9753045502584
20
4104.1992073174779
30
0
10
6089.3656532443683
20
4103.1329917246867
30
0
10
6088.0207142615463
20
4102.7374808962659
30
0
10
6085.3333401550617
20
4102.2208133449767
30
0
10
6083.9909057567693
20
4102.0999999999949
30
0
10
6082.6967499999937
20
4102.0999999999949
30
0
0
SPLINE
5
275
100
AcDbEntity
8
0
100
AcDbSpline
70
0
71
3
72
14
73
10
74
0
42
0.000000001
43
0.0000000001
44
0.0000000001
40
-1.771497835973995
40
-1.771497835973995
40
-1.771497835973995
40
-1.771497835973995
40
-1.3286233769804963
40
-1.3286233769804963
40
-0.88574891798699751
40
-0.88574891798699751
40
-0.44287445899349875
40
-0.44287445899349875
40
0
40
0
40
0
40
0
10
6067.6163355494555
20
4108.4499999999953
30
0
10
6068.6479306748224
20
4107.3940074643124
30
0
10
6069.7691970695905
20
4106.4670271502982
30
0
10
6072.1546365971835
20
4104.8687319831051
30
0
10
6073.418195449729
20
4104.1992073174779
30
0
10
6076.0278467556182
20
4103.1329917246867
30
0
10
6077.3727857384392
20
4102.7374808962659
30
0
10
6080.0601598449248
20
4102.2208133449767
30
0
10
6081.4025942432172
20
4102.0999999999949
30
0
10
6082.6967499999937
20
4102.0999999999949
30
0
0
ARC
5
276
100
AcDbEntity
8
0
100
AcDbCircle
10
7334.503999999999
20
4123.1819999999998
30
0
40
21.081999999999866
210
0
220
0
230
1
100
AcDbArc
50
-44.330420929582623
51
224.33042092958436
0
SPLINE
5
277
100
AcDbEntity
8
0
100
AcDbSpline
70
0
71
3
72
14
73
10
74
0
42
0.000000001
43
0.0000000001
44
0.0000000001
40
3.8578321122856725
40
3.8578321122856725
40
3.8578321122856725
40
3.8578321122856725
40
4.3007065712791714
40
4.3007065712791714
40
4.7435810302726704
40
4.7435810302726704
40
5.1864554892661694
40
5.1864554892661694
40
5.6293299482596675
40
5.6293299482596675
40
5.6293299482596675
40
5.6293299482596675
10
7349.5844144505372
20
4108.4499999999998
30
0
10
7348.5528193251703
20
4107.3940074643169
30
0
10
7347.4315529304022
20
4106.4670271503028
30
0
10
7345.0461134028092
20
4104.8687319831097
30
0
10
7343.7825545502637
20
4104.1992073174824
30
0
10
7341.1729032443745
20
4103.1329917246912
30
0
10
7339.8279642615526
20
4102.7374808962704
30
0
10
7337.1405901550679
20
4102.2208133449813
30
0
10
7335.7981557567755
20
4102.0999999999995
30
0
10
7334.503999999999
20
4102.0999999999995
30
0
0
SPLINE
5
278
100
AcDbEntity
8
0
100
AcDbSpline
70
0
71
3
72
14
73
10
74
0
42
0.000000001
43
0.0000000001
44
0.0000000001
40
-1.771497835973995
40
-1.771497835973995
40
-1.771497835973995
40
-1.771497835973995
40
-1.3286233769804963
40
-1.3286233769804963
40
-0.88574891798699751
40
-0.88574891798699751
40
-0.44287445899349875
40
-0.44287445899349875
40
0
40
0
40
0
40
0
10
7319.4235855494617
20
4108.4499999999998
30
0
10
7320.4551806748277
20
4107.3940074643169
30
0
10
7321.5764470695967
20
4106.4670271503028
30
0
10
7323.9618865971897
20
4104.8687319831097
30
0
10
7325.2254454497343
20
4104.1992073174824
30
0
10
7327.8350967556244
20
4103.1329917246912
30
0
10
7329.1800357384454
20
4102.7374808962704
30
0
10
7331.867409844931
20
4102.2208133449813
30
0
10
7333.2098442432234
20
4102.0999999999995
30
0
10
7334.503999999999
20
4102.0999999999995
30
0
0
LINE
5
279
100
AcDbEntity
8
0
100
AcDbLine
10
-2843.8464855212487
20
3690.7161711353447
30
0
11
-2842.3185167712491
21
3687.9330188759404
31
-2.4784861663018538e-16
0
LINE
5
280
100
AcDbEntity
8
0
100
AcDbLine
10
-2843.8464855212487
20
3690.7161711353447
30
0
11
-2898.6088855212483
21
3790.4643481123703
31
8.8828944200258449e-15
0
LINE
5
281
100
AcDbEntity
8
0
100
AcDbLine
10
-2900.1368542712489
20
3793.2475003717741
30
0
11
-2898.6088855212483
21
3790.4643481123703
31
8.8828944200258449e-15
0
LINE
5
282
100
AcDbEntity
8
0
100
AcDbLine
10
-2900.1368542712489
20
3793.2475003717741
30
0
11
-2903.4372667712487
21
3799.2591092520861
31
5.3535301192120088e-16
0
LINE
5
283
100
AcDbEntity
8
0
100
AcDbLine
10
-2904.9652355212484
20
3802.0422615114894
30
0
11
-2903.4372667712487
21
3799.2591092520861
31
5.3535301192120088e-16
0
LINE
5
284
100
AcDbEntity
8
0
100
AcDbLine
10
-2904.9652355212484
20
3802.0422615114894
30
0
11
-2938.4583105212482
21
3863.0489590376164
31
5.4328416765336606e-15
0
LINE
5
285
100
AcDbEntity
8
0
100
AcDbLine
10
-2938.4583105212482
20
3863.0489590376164
30
5.4328416765336606e-15
11
-2932.8920060024411
21
3866.1048965376167
31
0
0
LINE
5
286
100
AcDbEntity
8
0
100
AcDbLine
10
-2676.1932560024416
20
3398.5353169578093
30
1.0266405781056506e-14
11
-2681.7595605212491
21
3395.479379457809
31
5.9867194563906132e-16
0
LINE
5
287
100
AcDbEntity
8
0
100
AcDbLine
10
-2681.7595605212491
20
3395.479379457809
30
5.9867194563906132e-16
11
-2837.4901355212482
21
3679.1382577362256
31
-1.0266405781056506e-14
0
LINE
5
288
100
AcDbEntity
8
0
100
AcDbLine
10
-2839.0181042712488
20
3681.9214099956293
30
0
11
-2837.4901355212482
21
3679.1382577362256
31
-1.0266405781056506e-14
0
LINE
5
289
100
AcDbEntity
8
0
100
AcDbLine
10
-2839.0181042712488
20
3681.9214099956293
30
0
11
-2842.3185167712491
21
3687.9330188759404
31
-2.4784861663018538e-16
0
LINE
5
290
100
AcDbEntity
8
0
100
AcDbLine
10
-2508.5039999999999
20
3392.3816384954225
30
0
11
-2505.3290000000002
21
3392.3816384954225
31
0
0
LINE
5
291
100
AcDbEntity
8
0
100
AcDbLine
10
-2505.3290000000002
20
3392.3816384954225
30
0
11
-2498.471
21
3392.3816384954225
31
0
0
LINE
5
292
100
AcDbEntity
8
0
100
AcDbLine
10
-2495.2960000000003
20
3392.3816384954225
30
0
11
-2498.471
21
3392.3816384954225
31
0
0
LINE
5
293
100
AcDbEntity
8
0
100
AcDbLine
10
-2495.2960000000003
20
3392.3816384954225
30
0
11
-2203.4500000000003
21
3392.3816384954225
31
0
0
LINE
5
294
100
AcDbEntity
8
0
100
AcDbLine
10
-2673.3499999999999
20
3392.3816384954225
30
0
11
-2635.5039999999999
21
3392.3816384954225
31
0
0
LINE
5
295
100
AcDbEntity
8
0
100
AcDbLine
10
-2632.3290000000002
20
3392.3816384954225
30
0
11
-2635.5039999999999
21
3392.3816384954225
31
0
0
LINE
5
296
100
AcDbEntity
8
0
100
AcDbLine
10
-2632.3290000000002
20
3392.3816384954225
30
0
11
-2625.471
21
3392.3816384954225
31
0
0
LINE
5
297
100
AcDbEntity
8
0
100
AcDbLine
10
-2625.471
20
3392.3816384954225
30
0
11
-2622.2960000000003
21
3392.3816384954225
31
0
0
LINE
5
298
100
AcDbEntity
8
0
100
AcDbLine
10
-2622.2960000000003
20
3392.3816384954225
30
0
11
-2508.5039999999999
21
3392.3816384954225
31
0
0
LINE
5
299
100
AcDbEntity
8
0
100
AcDbLine
10
-2673.3499999999999
20
3392.3816384954225
30
0
11
-2673.3499999999999
21
3398.7316384954229
31
-4.1091641293446019e-31
0
LINE
5
300
100
AcDbEntity
8
0
100
AcDbLine
10
-2203.4499999999998
20
3398.7316384954229
30
0
11
-2203.4500000000003
21
3392.3816384954225
31
0
0
LINE
5
301
100
AcDbEntity
8
0
100
AcDbLine
10
-2100.4286144787534
20
3567.8121673600772
30
0
11
-2098.9006457287533
21
3570.595319619481
31
-9.0877826097735455e-16
0
LINE
5
302
100
AcDbEntity
8
0
100
AcDbLine
10
-2100.4286144787534
20
3567.8121673600772
30
0
11
-2155.1910144787539
21
3468.063990383052
31
-2.9565239145767093e-15
0
LINE
5
303
100
AcDbEntity
8
0
100
AcDbLine
10
-2156.718983228754
20
3465.2808381236482
30
0
11
-2155.1910144787539
21
3468.063990383052
31
-2.9565239145767093e-15
0
LINE
5
304
100
AcDbEntity
8
0
100
AcDbLine
10
-2156.718983228754
20
3465.2808381236482
30
0
11
-2160.0193957287538
21
3459.2692292433362
31
1.9629610437110822e-15
0
LINE
5
305
100
AcDbEntity
8
0
100
AcDbLine
10
-2161.5473644787539
20
3456.4860769839329
30
0
11
-2160.0193957287538
21
3459.2692292433362
31
1.9629610437110822e-15
0
LINE
5
306
100
AcDbEntity
8
0
100
AcDbLine
10
-2161.5473644787539
20
3456.4860769839329
30
0
11
-2195.0404394787538
21
3395.4793794578059
31
-1.560671730738146e-14
0
LINE
5
307
100
AcDbEntity
8
0
100
AcDbLine
10
-2195.0404394787538
20
3395.4793794578059
30
-1.560671730738146e-14
11
-2200.6067439975614
21
3398.5353169578057
31
-3.5527136788005009e-14
0
LINE
5
308
100
AcDbEntity
8
0
100
AcDbLine
10
-1943.9079939975595
20
3866.1048965376121
30
-2.1568406782801724e-14
11
-1938.3416894787524
21
3863.0489590376119
31
-7.5733730711244988e-16
0
LINE
5
309
100
AcDbEntity
8
0
100
AcDbLine
10
-1938.3416894787524
20
3863.0489590376119
30
-7.5733730711244988e-16
11
-2094.0722644787534
21
3579.3900807591963
31
-1.3958730005203285e-14
0
LINE
5
310
100
AcDbEntity
8
0
100
AcDbLine
10
-2095.6002332287535
20
3576.606928499793
30
-3.5527136788005009e-14
11
-2094.0722644787534
21
3579.3900807591963
31
-1.3958730005203285e-14
0
LINE
5
311
100
AcDbEntity
8
0
100
AcDbLine
10
-2095.6002332287535
20
3576.606928499793
30
-3.5527136788005009e-14
11
-2098.9006457287533
21
3570.595319619481
31
-9.0877826097735455e-16
0
LINE
5
312
100
AcDbEntity
8
0
100
AcDbLine
10
2032.9535144787528
20
3690.7161711353438
30
0
11
2034.4814832287529
21
3687.93301887594
31
-2.4784861663018538e-16
0
LINE
5
313
100
AcDbEntity
8
0
100
AcDbLine
10
2032.9535144787528
20
3690.7161711353438
30
0
11
1978.1911144787528
21
3790.4643481123694
31
8.8828944200258449e-15
0
LINE
5
314
100
AcDbEntity
8
0
100
AcDbLine
10
1976.6631457287529
20
3793.2475003717736
30
0
11
1978.1911144787528
21
3790.4643481123694
31
8.8828944200258449e-15
0
LINE
5
315
100
AcDbEntity
8
0
100
AcDbLine
10
1976.6631457287529
20
3793.2475003717736
30
0
11
1973.3627332287529
21
3799.2591092520852
31
5.3535301192120088e-16
0
LINE
5
316
100
AcDbEntity
8
0
100
AcDbLine
10
1971.8347644787527
20
3802.0422615114885
30
0
11
1973.3627332287529
21
3799.2591092520852
31
5.3535301192120088e-16
0
LINE
5
317
100
AcDbEntity
8
0
100
AcDbLine
10
1971.8347644787527
20
3802.0422615114885
30
0
11
1938.3416894787529
21
3863.0489590376155
31
5.4328416765336606e-15
0
LINE
5
318
100
AcDbEntity
8
0
100
AcDbLine
10
1938.3416894787529
20
3863.0489590376155
30
5.4328416765336606e-15
11
1943.9079939975602
21
3866.1048965376158
31
3.5527136788005009e-14
0
LINE
5
319
100
AcDbEntity
8
0
100
AcDbLine
10
2200.60674399756
20
3398.5353169578088
30
1.0266405781056506e-14
11
2195.0404394787524
21
3395.4793794578086
31
5.9867194563906132e-16
0
LINE
5
320
100
AcDbEntity
8
0
100
AcDbLine
10
2195.0404394787524
20
3395.4793794578086
30
5.9867194563906132e-16
11
2039.3098644787526
21
3679.1382577362247
31
-1.0266405781056506e-14
0
LINE
5
321
100
AcDbEntity
8
0
100
AcDbLine
10
2037.7818957287527
20
3681.9214099956289
30
0
11
2039.3098644787526
21
3679.1382577362247
31
-1.0266405781056506e-14
0
LINE
5
322
100
AcDbEntity
8
0
100
AcDbLine
10
2037.7818957287527
20
3681.9214099956289
30
0
11
2034.4814832287529
21
3687.93301887594
31
-2.4784861663018538e-16
0
LINE
5
323
100
AcDbEntity
8
0
100
AcDbLine
10
1955.7999999999997
20
3889.3750000000005
30
0
11
2921
21
3889.3750000000005
31
0
0
LINE
5
324
100
AcDbEntity
8
0
100
AcDbLine
10
2921
20
3889.3750000000005
30
0
11
2920.9999999999995
21
3886.2000000000007
31
1.3697213764481981e-31
0
LINE
5
325
100
AcDbEntity
8
0
100
AcDbLine
10
1955.7999999999995
20
3886.2000000000007
30
0
11
1955.7999999999997
21
3889.3750000000005
31
0
0
LINE
5
326
100
AcDbEntity
8
0
100
AcDbLine
10
2368.2959999999998
20
3392.3816384954225
30
0
11
2371.471
21
3392.3816384954225
31
0
0
LINE
5
327
100
AcDbEntity
8
0
100
AcDbLine
10
2371.471
20
3392.3816384954225
30
0
11
2378.3289999999997
21
3392.3816384954225
31
0
0
LINE
5
328
100
AcDbEntity
8
0
100
AcDbLine
10
2381.5039999999999
20
3392.3816384954225
30
0
11
2378.3289999999997
21
3392.3816384954225
31
0
0
LINE
5
329
100
AcDbEntity
8
0
100
AcDbLine
10
2381.5039999999999
20
3392.3816384954225
30
0
11
2673.3499999999999
21
3392.3816384954225
31
0
0
LINE
5
330
100
AcDbEntity
8
0
100
AcDbLine
10
2203.4499999999998
20
3392.3816384954225
30
0
11
2241.2959999999998
21
3392.3816384954225
31
0
0
LINE
5
331
100
AcDbEntity
8
0
100
AcDbLine
10
2244.471
20
3392.3816384954225
30
0
11
2241.2959999999998
21
3392.3816384954225
31
0
0
LINE
5
332
100
AcDbEntity
8
0
100
AcDbLine
10
2244.471
20
3392.3816384954225
30
0
11
2251.3290000000002
21
3392.3816384954225
31
0
0
LINE
5
333
100
AcDbEntity
8
0
100
AcDbLine
10
2251.3290000000002
20
3392.3816384954225
30
0
11
2254.5039999999999
21
3392.3816384954225
31
0
0
LINE
5
334
100
AcDbEntity
8
0
100
AcDbLine
10
2254.5039999999999
20
3392.3816384954225
30
0
11
2368.2959999999998
21
3392.3816384954225
31
0
0
LINE
5
335
100
AcDbEntity
8
0
100
AcDbLine
10
2203.4499999999998
20
3392.3816384954225
30
0
11
2203.4499999999998
21
3398.7316384954229
31
-4.1091641293446019e-31
0
LINE
5
336
100
AcDbEntity
8
0
100
AcDbLine
10
2673.3499999999999
20
3398.7316384954229
30
0
11
2673.3499999999999
21
3392.3816384954225
31
0
0
LINE
5
337
100
AcDbEntity
8
0
100
AcDbLine
10
2776.3713855212468
20
3567.8121673600772
30
0
11
2777.8993542712465
21
3570.595319619481
31
-9.0877826097735455e-16
0
LINE
5
338
100
AcDbEntity
8
0
100
AcDbLine
10
2776.3713855212468
20
3567.8121673600772
30
0
11
2721.6089855212467
21
3468.063990383052
31
-2.9565239145767093e-15
0
LINE
5
339
100
AcDbEntity
8
0
100
AcDbLine
10
2720.0810167712461
20
3465.2808381236482
30
0
11
2721.6089855212467
21
3468.063990383052
31
-2.9565239145767093e-15
0
LINE
5
340
100
AcDbEntity
8
0
100
AcDbLine
10
2720.0810167712461
20
3465.2808381236482
30
0
11
2716.7806042712459
21
3459.2692292433362
31
1.9629610437110822e-15
0
LINE
5
341
100
AcDbEntity
8
0
100
AcDbLine
10
2715.2526355212462
20
3456.4860769839329
30
0
11
2716.7806042712459
21
3459.2692292433362
31
1.9629610437110822e-15
0
LINE
5
342
100
AcDbEntity
8
0
100
AcDbLine
10
2715.2526355212462
20
3456.4860769839329
30
0
11
2681.7595605212459
21
3395.4793794578059
31
-1.560671730738146e-14
0
LINE
5
343
100
AcDbEntity
8
0
100
AcDbLine
10
2681.7595605212459
20
3395.4793794578059
30
-1.560671730738146e-14
11
2676.1932560024388
21
3398.5353169578057
31
-3.5527136788005009e-14
0
LINE
5
344
100
AcDbEntity
8
0
100
AcDbLine
10
2932.8920060024402
20
3866.1048965376121
30
-2.1568406782801724e-14
11
2938.4583105212478
21
3863.0489590376119
31
-7.5733730711244988e-16
0
LINE
5
345
100
AcDbEntity
8
0
100
AcDbLine
10
2938.4583105212478
20
3863.0489590376119
30
-7.5733730711244988e-16
11
2782.7277355212464
21
3579.3900807591963
31
-1.3958730005203285e-14
0
LINE
5
346
100
AcDbEntity
8
0
100
AcDbLine
10
2781.1997667712467
20
3576.606928499793
30
-3.5527136788005009e-14
11
2782.7277355212464
21
3579.3900807591963
31
-1.3958730005203285e-14
0
LINE
5
347
100
AcDbEntity
8
0
100
AcDbLine
10
2781.1997667712467
20
3576.606928499793
30
-3.5527136788005009e-14
11
2777.8993542712465
21
3570.595319619481
31
-9.0877826097735455e-16
0
LINE
5
348
100
AcDbEntity
8
0
100
AcDbLine
10
-2921
20
3889.3750000000005
30
0
11
-1955.8000000000002
21
3889.3750000000005
31
0
0
LINE
5
349
100
AcDbEntity
8
0
100
AcDbLine
10
-1955.8000000000002
20
3889.3750000000005
30
0
11
-1955.8000000000004
21
3886.2000000000007
31
1.3697213764481981e-31
0
LINE
5
350
100
AcDbEntity
8
0
100
AcDbLine
10
-2921
20
3886.2000000000007
30
0
11
-2921
21
3889.3750000000005
31
0
0
LINE
5
351
100
AcDbEntity
8
0
100
AcDbLine
10
-1955.7999999999997
20
-3889.3750000000005
30
0
11
-2921
21
-3889.3750000000005
31
-1.6320278461989915e-14
0
LINE
5
352
100
AcDbEntity
8
0
100
AcDbLine
10
-2921
20
-3889.3750000000005
30
-1.6320278461989915e-14
11
-2920.9999999999995
21
-3886.2000000000007
31
-1.0762096529235891e-31
0
LINE
5
353
100
AcDbEntity
8
0
100
AcDbLine
10
-1955.7999999999995
20
-3886.2000000000007
30
1.6320278461989915e-14
11
-1955.7999999999997
21
-3889.3750000000005
31
0
0
LINE
5
354
100
AcDbEntity
8
0
100
AcDbLine
10
-2776.3713855212468
20
-3567.8121673600772
30
-3.5527136788005009e-14
11
-2777.8993542712465
21
-3570.595319619481
31
-3.6011818527192932e-14
0
LINE
5
355
100
AcDbEntity
8
0
100
AcDbLine
10
-2776.3713855212468
20
-3567.8121673600772
30
-3.5527136788005009e-14
11
-2721.6089855212467
21
-3468.063990383052
31
-1.8156143255509963e-14
0
LINE
5
356
100
AcDbEntity
8
0
100
AcDbLine
10
-2720.0810167712461
20
-3465.2808381236482
30
0
11
-2721.6089855212467
21
-3468.063990383052
31
-1.8156143255509963e-14
0
LINE
5
357
100
AcDbEntity
8
0
100
AcDbLine
10
-2720.0810167712461
20
-3465.2808381236482
30
0
11
-2716.7806042712459
21
-3459.2692292433362
31
1.0469125566459076e-15
0
LINE
5
358
100
AcDbEntity
8
0
100
AcDbLine
10
-2715.2526355212462
20
-3456.4860769839329
30
0
11
-2716.7806042712459
21
-3459.2692292433362
31
1.0469125566459076e-15
0
LINE
5
359
100
AcDbEntity
8
0
100
AcDbLine
10
-2715.2526355212462
20
-3456.4860769839329
30
0
11
-2681.7595605212459
21
-3395.4793794578059
31
1.0624223722999195e-14
0
LINE
5
360
100
AcDbEntity
8
0
100
AcDbLine
10
-2681.7595605212459
20
-3395.4793794578059
30
1.0624223722999195e-14
11
-2676.1932560024388
21
-3398.5353169578057
31
0
0
LINE
5
361
100
AcDbEntity
8
0
100
AcDbLine
10
-2932.8920060024402
20
-3866.1048965376121
30
-1.3871626070027788e-14
11
-2938.4583105212478
21
-3863.0489590376119
31
3.6314759340606265e-14
0
LINE
5
362
100
AcDbEntity
8
0
100
AcDbLine
10
-2938.4583105212478
20
-3863.0489590376119
30
3.6314759340606265e-14
11
-2782.7277355212464
21
-3579.3900807591963
31
1.3871626070027788e-14
0
LINE
5
363
100
AcDbEntity
8
0
100
AcDbLine
10
-2781.1997667712467
20
-3576.606928499793
30
-3.5527136788005009e-14
11
-2782.7277355212464
21
-3579.3900807591963
31
1.3871626070027788e-14
0
LINE
5
364
100
AcDbEntity
8
0
100
AcDbLine
10
-2781.1997667712467
20
-3576.606928499793
30
-3.5527136788005009e-14
11
-2777.8993542712465
21
-3570.595319619481
31
-3.6011818527192932e-14
0
LINE
5
365
100
AcDbEntity
8
0
100
AcDbLine
10
-2368.2959999999998
20
-3392.3816384954225
30
-3.5527136788005009e-14
11
-2371.471
21
-3392.3816384954225
31
-3.4645897262208791e-14
0
LINE
5
366
100
AcDbEntity
8
0
100
AcDbLine
10
-2371.471
20
-3392.3816384954225
30
-3.4645897262208791e-14
11
-2378.3289999999997
21
-3392.3816384954225
31
-3.362365941228518e-14
0
LINE
5
367
100
AcDbEntity
8
0
100
AcDbLine
10
-2381.5039999999999
20
-3392.3816384954225
30
0
11
-2378.3289999999997
21
-3392.3816384954225
31
-3.362365941228518e-14
0
LINE
5
368
100
AcDbEntity
8
0
100
AcDbLine
10
-2381.5039999999999
20
-3392.3816384954225
30
0
11
-2673.3499999999999
21
-3392.3816384954225
31
9.949263635178294e-15
0
LINE
5
369
100
AcDbEntity
8
0
100
AcDbLine
10
-2203.4499999999998
20
-3392.3816384954225
30
0
11
-2241.2959999999998
21
-3392.3816384954225
31
1.0504375147490896e-14
0
LINE
5
370
100
AcDbEntity
8
0
100
AcDbLine
10
-2244.471
20
-3392.3816384954225
30
-3.5527136788005009e-14
11
-2241.2959999999998
21
-3392.3816384954225
31
1.0504375147490896e-14
0
LINE
5
371
100
AcDbEntity
8
0
100
AcDbLine
10
-2244.471
20
-3392.3816384954225
30
-3.5527136788005009e-14
11
-2251.3290000000002
21
-3392.3816384954225
31
-3.362365941228518e-14
0
LINE
5
372
100
AcDbEntity
8
0
100
AcDbLine
10
-2251.3290000000002
20
-3392.3816384954225
30
-3.362365941228518e-14
11
-2254.5039999999999
21
-3392.3816384954225
31
8.8123952579621475e-16
0
LINE
5
373
100
AcDbEntity
8
0
100
AcDbLine
10
-2254.5039999999999
20
-3392.3816384954225
30
8.8123952579621475e-16
11
-2368.2959999999998
21
-3392.3816384954225
31
-3.5527136788005009e-14
0
LINE
5
374
100
AcDbEntity
8
0
100
AcDbLine
10
-2203.4499999999998
20
-3392.3816384954225
30
0
11
-2203.4499999999998
21
-3398.7316384954229
31
2.9351172352461333e-32
0
LINE
5
375
100
AcDbEntity
8
0
100
AcDbLine
10
-2673.3499999999999
20
-3398.7316384954229
30
0
11
-2673.3499999999999
21
-3392.3816384954225
31
9.949263635178294e-15
0
LINE
5
376
100
AcDbEntity
8
0
100
AcDbLine
10
-2032.9535144787528
20
-3690.7161711353438
30
3.5527136788005009e-14
11
-2034.4814832287529
21
-3687.93301887594
31
3.570338469316425e-14
0
LINE
5
377
100
AcDbEntity
8
0
100
AcDbLine
10
-2032.9535144787528
20
-3690.7161711353438
30
3.5527136788005009e-14
11
-1978.1911144787528
21
-3790.4643481123694
31
2.9210411867097723e-14
0
LINE
5
378
100
AcDbEntity
8
0
100
AcDbLine
10
-1976.6631457287529
20
-3793.2475003717736
30
3.5527136788005009e-14
11
-1978.1911144787528
21
-3790.4643481123694
31
2.9210411867097723e-14
0
LINE
5
379
100
AcDbEntity
8
0
100
AcDbLine
10
-1976.6631457287529
20
-3793.2475003717736
30
3.5527136788005009e-14
11
-1973.3627332287529
21
-3799.2591092520852
31
3.5146441312861046e-14
0
LINE
5
380
100
AcDbEntity
8
0
100
AcDbLine
10
-1971.8347644787527
20
-3802.0422615114885
30
3.5527136788005009e-14
11
-1973.3627332287529
21
-3799.2591092520852
31
3.5146441312861046e-14
0
LINE
5
381
100
AcDbEntity
8
0
100
AcDbLine
10
-1971.8347644787527
20
-3802.0422615114885
30
3.5527136788005009e-14
11
-1938.3416894787529
21
-3863.0489590376155
31
3.1663782706914389e-14
0
LINE
5
382
100
AcDbEntity
8
0
100
AcDbLine
10
-1938.3416894787529
20
-3863.0489590376155
30
3.1663782706914389e-14
11
-1943.9079939975602
21
-3866.1048965376158
31
3.5527136788005009e-14
0
LINE
5
383
100
AcDbEntity
8
0
100
AcDbLine
10
-2200.6067439975595
20
-3398.5353169578088
30
1.7963186493830105e-14
11
-2195.0404394787524
21
-3395.4793794578086
31
-9.4628791407464744e-16
0
LINE
5
384
100
AcDbEntity
8
0
100
AcDbLine
10
-2195.0404394787524
20
-3395.4793794578086
30
-9.4628791407464744e-16
11
-2039.3098644787526
21
-3679.1382577362247
31
1.7563950294174904e-14
0
LINE
5
385
100
AcDbEntity
8
0
100
AcDbLine
10
-2037.7818957287527
20
-3681.9214099956289
30
3.5527136788005009e-14
11
-2039.3098644787526
21
-3679.1382577362247
31
1.7563950294174904e-14
0
LINE
5
386
100
AcDbEntity
8
0
100
AcDbLine
10
-2037.7818957287527
20
-3681.9214099956289
30
3.5527136788005009e-14
11
-2034.4814832287529
21
-3687.93301887594
31
3.570338469316425e-14
0
LINE
5
387
100
AcDbEntity
8
0
100
AcDbLine
10
2843.8464855212487
20
-3690.7161711353447
30
0
11
2842.3185167712491
21
-3687.9330188759404
31
1.7624790515924352e-16
0
LINE
5
388
100
AcDbEntity
8
0
100
AcDbLine
10
2843.8464855212487
20
-3690.7161711353447
30
0
11
2898.6088855212483
21
-3790.4643481123703
31
-6.3167249209072884e-15
0
LINE
5
389
100
AcDbEntity
8
0
100
AcDbLine
10
2900.1368542712489
20
-3793.2475003717741
30
0
11
2898.6088855212483
21
-3790.4643481123703
31
-6.3167249209072884e-15
0
LINE
5
390
100
AcDbEntity
8
0
100
AcDbLine
10
2900.1368542712489
20
-3793.2475003717741
30
0
11
2903.4372667712487
21
-3799.2591092520861
31
-3.8069547514396636e-16
0
LINE
5
391
100
AcDbEntity
8
0
100
AcDbLine
10
2904.9652355212484
20
-3802.0422615114894
30
0
11
2903.4372667712487
21
-3799.2591092520861
31
-3.8069547514396636e-16
0
LINE
5
392
100
AcDbEntity
8
0
100
AcDbLine
10
2904.9652355212484
20
-3802.0422615114894
30
0
11
2938.4583105212482
21
-3863.0489590376164
31
-3.863354081090616e-15
0
LINE
5
393
100
AcDbEntity
8
0
100
AcDbLine
10
2938.4583105212482
20
-3863.0489590376164
30
-3.863354081090616e-15
11
2932.8920060024411
21
-3866.1048965376167
31
3.5527136788005009e-14
0
LINE
5
394
100
AcDbEntity
8
0
100
AcDbLine
10
2676.1932560024416
20
-3398.5353169578093
30
-1.7563950294174904e-14
11
2681.7595605212491
21
-3395.479379457809
31
-9.4628791407464744e-16
0
LINE
5
395
100
AcDbEntity
8
0
100
AcDbLine
10
2681.7595605212491
20
-3395.479379457809
30
-9.4628791407464744e-16
11
2837.4901355212482
21
-3679.1382577362256
31
1.7563950294174904e-14
0
LINE
5
396
100
AcDbEntity
8
0
100
AcDbLine
10
2839.0181042712488
20
-3681.9214099956293
30
0
11
2837.4901355212482
21
-3679.1382577362256
31
1.7563950294174904e-14
0
LINE
5
397
100
AcDbEntity
8
0
100
AcDbLine
10
2839.0181042712488
20
-3681.9214099956293
30
0
11
2842.3185167712491
21
-3687.9330188759404
31
1.7624790515924352e-16
0
LINE
5
398
100
AcDbEntity
8
0
100
AcDbLine
10
2921
20
-3889.3750000000005
30
0
11
1955.8000000000002
21
-3889.3750000000005
31
-1.6320278461989915e-14
0
LINE
5
399
100
AcDbEntity
8
0
100
AcDbLine
10
1955.8000000000002
20
-3889.3750000000005
30
-1.6320278461989915e-14
11
1955.8000000000004
21
-3886.2000000000007
31
-1.0762096529235891e-31
0
LINE
5
400
100
AcDbEntity
8
0
100
AcDbLine
10
2921
20
-3886.2000000000007
30
1.6320278461989915e-14
11
2921
21
-3889.3750000000005
31
0
0
LINE
5
401
100
AcDbEntity
8
0
100
AcDbLine
10
2100.4286144787534
20
-3567.8121673600772
30
0
11
2098.9006457287533
21
-3570.595319619481
31
-4.8468173918791976e-16
0
LINE
5
402
100
AcDbEntity
8
0
100
AcDbLine
10
2100.4286144787534
20
-3567.8121673600772
30
0
11
2155.1910144787539
21
-3468.063990383052
31
1.7370993532495046e-14
0
LINE
5
403
100
AcDbEntity
8
0
100
AcDbLine
10
2156.718983228754
20
-3465.2808381236482
30
3.5527136788005009e-14
11
2155.1910144787539
21
-3468.063990383052
31
1.7370993532495046e-14
0
LINE
5
404
100
AcDbEntity
8
0
100
AcDbLine
10
2156.718983228754
20
-3465.2808381236482
30
3.5527136788005009e-14
11
2160.0193957287538
21
-3459.2692292433362
31
3.6574049344650918e-14
0
LINE
5
405
100
AcDbEntity
8
0
100
AcDbLine
10
2161.5473644787539
20
-3456.4860769839329
30
3.5527136788005009e-14
11
2160.0193957287538
21
-3459.2692292433362
31
3.6574049344650918e-14
0
LINE
5
406
100
AcDbEntity
8
0
100
AcDbLine
10
2161.5473644787539
20
-3456.4860769839329
30
3.5527136788005009e-14
11
2195.0404394787538
21
-3395.4793794578059
31
4.6151360511004201e-14
0
LINE
5
407
100
AcDbEntity
8
0
100
AcDbLine
10
2195.0404394787538
20
-3395.4793794578059
30
4.6151360511004201e-14
11
2200.6067439975614
21
-3398.5353169578057
31
0
0
LINE
5
408
100
AcDbEntity
8
0
100
AcDbLine
10
1943.9079939975595
20
-3866.1048965376121
30
-1.3871626070027788e-14
11
1938.3416894787524
21
-3863.0489590376119
31
3.6314759340606265e-14
0
LINE
5
409
100
AcDbEntity
8
0
100
AcDbLine
10
1938.3416894787524
20
-3863.0489590376119
30
3.6314759340606265e-14
11
2094.0722644787534
21
-3579.3900807591963
31
4.9398762858032797e-14
0
LINE
5
410
100
AcDbEntity
8
0
100
AcDbLine
10
2095.6002332287535
20
-3576.606928499793
30
0
11
2094.0722644787534
21
-3579.3900807591963
31
4.9398762858032797e-14
0
LINE
5
411
100
AcDbEntity
8
0
100
AcDbLine
10
2095.6002332287535
20
-3576.606928499793
30
0
11
2098.9006457287533
21
-3570.595319619481
31
-4.8468173918791976e-16
0
LINE
5
412
100
AcDbEntity
8
0
100
AcDbLine
10
2508.5039999999999
20
-3392.3816384954225
30
0
11
2505.3290000000002
21
-3392.3816384954225
31
8.8123952579621722e-16
0
LINE
5
413
100
AcDbEntity
8
0
100
AcDbLine
10
2505.3290000000002
20
-3392.3816384954225
30
8.8123952579621722e-16
11
2498.471
21
-3392.3816384954225
31
1.9034773757198285e-15
0
LINE
5
414
100
AcDbEntity
8
0
100
AcDbLine
10
2495.2960000000003
20
-3392.3816384954225
30
3.5527136788005009e-14
11
2498.471
21
-3392.3816384954225
31
1.9034773757198285e-15
0
LINE
5
415
100
AcDbEntity
8
0
100
AcDbLine
10
2495.2960000000003
20
-3392.3816384954225
30
3.5527136788005009e-14
11
2203.4500000000003
21
-3392.3816384954225
31
9.949263635178294e-15
0
LINE
5
416
100
AcDbEntity
8
0
100
AcDbLine
10
2673.3499999999999
20
-3392.3816384954225
30
0
11
2635.5039999999999
21
-3392.3816384954225
31
1.0504375147490896e-14
0
LINE
5
417
100
AcDbEntity
8
0
100
AcDbLine
10
2632.3290000000002
20
-3392.3816384954225
30
0
11
2635.5039999999999
21
-3392.3816384954225
31
1.0504375147490896e-14
0
LINE
5
418
100
AcDbEntity
8
0
100
AcDbLine
10
2632.3290000000002
20
-3392.3816384954225
30
0
11
2625.471
21
-3392.3816384954225
31
1.9034773757198312e-15
0
LINE
5
419
100
AcDbEntity
8
0
100
AcDbLine
10
2625.471
20
-3392.3816384954225
30
1.9034773757198312e-15
11
2622.2960000000003
21
-3392.3816384954225
31
3.6408376313801221e-14
0
LINE
5
420
100
AcDbEntity
8
0
100
AcDbLine
10
2622.2960000000003
20
-3392.3816384954225
30
3.6408376313801221e-14
11
2508.5039999999999
21
-3392.3816384954225
31
0
0
LINE
5
421
100
AcDbEntity
8
0
100
AcDbLine
10
2673.3499999999999
20
-3392.3816384954225
30
0
11
2673.3499999999999
21
-3398.7316384954229
31
2.9351172352461333e-32
0
LINE
5
422
100
AcDbEntity
8
0
100
AcDbLine
10
2203.4499999999998
20
-3398.7316384954229
30
0
11
2203.4500000000003
21
-3392.3816384954225
31
9.949263635178294e-15
0
LINE
5
423
100
AcDbEntity
8
0
100
AcDbLine
10
2663.8250000000198
20
-574.67500000000098
30
0
11
2663.8250000000198
21
-542.92500000000098
31
-1.1504686092678134e-14
0
LINE
5
424
100
AcDbEntity
8
0
100
AcDbLine
10
2663.8250000000198
20
-542.92500000000098
30
-1.1504686092678134e-14
11
2663.8250000000198
21
-536.57500000000095
31
1.1909917496666429e-14
0
LINE
5
425
100
AcDbEntity
8
0
100
AcDbLine
10
2663.8250000000198
20
-536.57500000000095
30
1.1909917496666429e-14
11
2663.8250000000198
21
-390.52500000000123
31
-1.0288991880713053e-14
0
LINE
5
426
100
AcDbEntity
8
0
100
AcDbLine
10
2663.8250000000198
20
-377.8250000000013
30
0
11
2663.8250000000198
21
-390.52500000000123
31
-1.0288991880713053e-14
0
LINE
5
427
100
AcDbEntity
8
0
100
AcDbLine
10
2654.3000000000202
20
-377.8250000000013
30
0
11
2663.8250000000198
21
-377.8250000000013
31
0
0
ARC
5
428
100
AcDbEntity
8
0
100
AcDbCircle
10
2649.8626200000194
20
-379.72999999999456
30
0
40
4.4373799999999619
210
-1.0960787726587266e-15
220
7.0204563028950529e-29
230
1
100
AcDbArc
50
0
51
90
0
ARC
5
429
100
AcDbEntity
8
0
100
AcDbCircle
10
2649.8626200000194
20
-172.71999999999485
30
8.8817841970012523e-15
40
4.4373799999999974
210
0
220
0
230
1
100
AcDbArc
50
-90
51
0
0
LINE
5
430
100
AcDbEntity
8
0
100
AcDbLine
10
2580.6400000000194
20
-375.29261999999494
30
8.8817841970012523e-15
11
2649.8626200000194
21
-375.2926199999946
31
0
0
LINE
5
431
100
AcDbEntity
8
0
100
AcDbLine
10
2580.6400000000194
20
-177.15737999999487
30
0
11
2649.8626200000194
21
-177.15737999999487
31
8.8817841970012523e-15
0
ARC
5
432
100
AcDbEntity
8
0
100
AcDbCircle
10
2580.6400000000203
20
-372.75261999999435
30
-9.2014949942578808e-44
40
2.5400000000007594
210
-2.1807132127531561e-45
220
1.9721522630524778e-31
230
1
100
AcDbArc
50
180
51
269.99999999997948
0
ARC
5
433
100
AcDbEntity
8
0
100
AcDbCircle
10
2580.6400000000194
20
-179.69737999999489
30
0
40
2.5400000000000134
210
4.767646687511632e-47
220
-0
230
1
100
AcDbArc
50
90
51
180
0
LINE
5
434
100
AcDbEntity
8
0
100
AcDbLine
10
2578.1000000000195
20
-372.75261999999486
30
5.369309997611458e-46
11
2578.1000000000195
21
-179.69737999999489
31
-3.2064045742999264e-45
0
ARC
5
435
100
AcDbEntity
8
0
100
AcDbCircle
10
2649.8626200000194
20
379.72999999999507
30
0
40
4.437380000000033
210
-0
220
0
230
1
100
AcDbArc
50
-90
51
0
0
ARC
5
436
100
AcDbEntity
8
0
100
AcDbCircle
10
2649.8626200000194
20
172.71999999999537
30
8.8817841970012523e-15
40
4.4373799999999619
210
-2.7223670255469376e-16
220
1.525732166112275e-29
230
1
100
AcDbArc
50
0
51
90
0
LINE
5
437
100
AcDbEntity
8
0
100
AcDbLine
10
2580.6400000000194
20
375.29261999999505
30
8.8817841970012523e-15
11
2649.8626200000194
21
375.29261999999505
31
0
0
LINE
5
438
100
AcDbEntity
8
0
100
AcDbLine
10
2580.6400000000194
20
177.15737999999507
30
0
11
2649.8626200000194
21
177.15737999999533
31
8.8817841970012523e-15
0
ARC
5
439
100
AcDbEntity
8
0
100
AcDbCircle
10
2580.6400000000194
20
372.75261999999509
30
0
40
2.5399999999999778
210
4.767646687511632e-47
220
-3.4967654318902873e-15
230
1
100
AcDbArc
50
90
51
180
0
ARC
5
440
100
AcDbEntity
8
0
100
AcDbCircle
10
2580.6400000000203
20
179.69737999999566
30
1.1385550022639139e-43
40
2.5400000000007594
210
-1.9519793916161414e-45
220
-1.9721522630525201e-31
230
1
100
AcDbArc
50
180
51
269.99999999997948
0
LINE
5
441
100
AcDbEntity
8
0
100
AcDbLine
10
2578.1000000000195
20
179.69737999999509
30
-3.2064045742999239e-45
11
2578.1000000000195
21
372.75261999999509
31
5.3693099976114984e-46
0
LINE
5
442
100
AcDbEntity
8
0
100
AcDbLine
10
2663.8250000000098
20
377.8249999999951
30
-3.5527136788005009e-14
11
2663.8250000000098
21
390.52499999999509
31
-3.4117153546731055e-14
0
LINE
5
443
100
AcDbEntity
8
0
100
AcDbLine
10
2663.8250000000098
20
536.57499999999504
30
0
11
2663.8250000000098
21
390.52499999999509
31
-3.4117153546731055e-14
0
LINE
5
444
100
AcDbEntity
8
0
100
AcDbLine
10
2663.8250000000098
20
574.67499999999507
30
0
11
2663.8250000000098
21
542.92499999999507
31
0
0
LINE
5
445
100
AcDbEntity
8
0
100
AcDbLine
10
2663.8250000000098
20
377.8249999999951
30
-3.5527136788005009e-14
11
2654.3000000000097
21
377.82499999999516
31
-3.3414133902529897e-17
0
LINE
5
446
100
AcDbEntity
8
0
100
AcDbLine
10
1933.5749999999898
20
708.02499999999998
30
0
11
1901.8249999999898
21
708.02499999999998
31
3.5249581031848854e-15
0
LINE
5
447
100
AcDbEntity
8
0
100
AcDbLine
10
1901.8249999999898
20
708.02499999999998
30
3.5249581031848854e-15
11
1895.4749999999899
21
708.02499999999998
31
7.0499162063697831e-16
0
LINE
5
448
100
AcDbEntity
8
0
100
AcDbLine
10
1895.4749999999899
20
708.02499999999998
30
7.0499162063697831e-16
11
1749.42499999999
21
708.02499999999998
31
1.6214807274650466e-14
0
LINE
5
449
100
AcDbEntity
8
0
100
AcDbLine
10
1736.7249999999899
20
708.02499999999998
30
0
11
1749.42499999999
21
708.02499999999998
31
1.6214807274650466e-14
0
LINE
5
450
100
AcDbEntity
8
0
100
AcDbLine
10
1736.7249999999899
20
698.5
30
0
11
1736.7249999999899
21
708.02499999999998
31
0
0
ARC
5
451
100
AcDbEntity
8
0
100
AcDbCircle
10
1531.6199999999917
20
694.06261999997992
30
8.8817841970012523e-15
40
4.4373799999999619
210
0
220
-1.8652362955863259e-48
230
1
100
AcDbArc
50
0
51
90
0
ARC
5
452
100
AcDbEntity
8
0
100
AcDbCircle
10
1738.6299999999917
20
694.06261999998026
30
8.8817841970012523e-15
40
4.4373799999998198
210
1.2066075653777151e-28
220
1.8838333041037778e-15
230
1
100
AcDbArc
50
89.999999999997058
51
180
0
LINE
5
453
100
AcDbEntity
8
0
100
AcDbLine
10
1536.0573799999918
20
624.83999999997991
30
8.8817841970012523e-15
11
1536.0573799999918
21
694.06261999997992
31
8.8817841970012523e-15
0
LINE
5
454
100
AcDbEntity
8
0
100
AcDbLine
10
1734.1926199999921
20
624.83999999998002
30
8.8817841970012523e-15
11
1734.1926199999921
21
694.06261999997992
31
8.8817841970012523e-15
0
ARC
5
455
100
AcDbEntity
8
0
100
AcDbCircle
10
1538.597379999992
20
624.83999999997991
30
8.8817841970012523e-15
40
2.540000000000191
210
0
220
0
230
1
100
AcDbArc
50
180
51
270
0
ARC
5
456
100
AcDbEntity
8
0
100
AcDbCircle
10
1731.6526199999919
20
624.83999999997991
30
8.8817841970012523e-15
40
2.5399999999999068
210
0
220
0
230
1
100
AcDbArc
50
-90
51
0
0
LINE
5
457
100
AcDbEntity
8
0
100
AcDbLine
10
1731.6526199999919
20
622.29999999997995
30
8.8817841970012523e-15
11
1538.597379999992
21
622.29999999997995
31
8.8817841970012523e-15
0
ARC
5
458
100
AcDbEntity
8
0
100
AcDbCircle
10
979.169999999997
20
694.06261999998992
30
0
40
4.4373799999999619
210
-1.2325951644078416e-32
220
-1.8652362955863259e-48
230
1
100
AcDbArc
50
0
51
90.000000000001464
0
ARC
5
459
100
AcDbEntity
8
0
100
AcDbCircle
10
1186.1799999999967
20
694.06261999999015
30
-6.4043718877345155e-45
40
4.4373799999998198
210
-1.1325239826316074e-29
220
-1.1774965633720601e-16
230
1
100
AcDbArc
50
89.999999999994117
51
180
0
LINE
5
460
100
AcDbEntity
8
0
100
AcDbLine
10
983.60737999999697
20
624.83999999998991
30
0
11
983.60737999999697
21
694.06261999998992
31
5.469493130640021e-32
0
LINE
5
461
100
AcDbEntity
8
0
100
AcDbLine
10
1181.742619999997
20
624.83999999998991
30
0
11
1181.742619999997
21
694.06261999998992
31
-5.4694931306400407e-32
0
ARC
5
462
100
AcDbEntity
8
0
100
AcDbCircle
10
986.14737999999704
20
624.83999999998991
30
8.8817841970012523e-15
40
2.5400000000000489
210
-3.4967654318901895e-15
220
0
230
1
100
AcDbArc
50
180
51
270
0
ARC
5
463
100
AcDbEntity
8
0
100
AcDbCircle
10
1179.2026199999968
20
624.83999999999003
30
0
40
2.5400000000000489
210
0
220
0
230
1
100
AcDbArc
50
270
51
360
0
LINE
5
464
100
AcDbEntity
8
0
100
AcDbLine
10
1179.2026199999968
20
622.29999999998995
30
0
11
986.14737999999704
21
622.29999999998984
31
8.8817841970012523e-15
0
ARC
5
465
100
AcDbEntity
8
0
100
AcDbCircle
10
426.71999999999196
20
694.06261999997992
30
0
40
4.437380000000033
210
-1.2325951644078221e-32
220
-1.8652362955863259e-48
230
1
100
AcDbArc
50
0
51
89.999999999999261
0
ARC
5
466
100
AcDbEntity
8
0
100
AcDbCircle
10
633.72999999999183
20
694.06261999998014
30
-1.9432068548254299e-45
40
4.4373799999999619
210
-5.6687828889797166e-30
220
-1.1774965633720227e-16
230
1
100
AcDbArc
50
89.999999999997058
51
180
0
LINE
5
467
100
AcDbEntity
8
0
100
AcDbLine
10
431.15737999999197
20
624.83999999997991
30
0
11
431.15737999999197
21
694.06261999997992
31
5.469493130640021e-32
0
LINE
5
468
100
AcDbEntity
8
0
100
AcDbLine
10
629.29261999999198
20
624.83999999998002
30
0
11
629.29261999999198
21
694.06261999997992
31
-5.4694931306399674e-32
0
ARC
5
469
100
AcDbEntity
8
0
100
AcDbCircle
10
433.69737999999199
20
624.83999999997991
30
0
40
2.5400000000000489
210
0
220
0
230
1
100
AcDbArc
50
180
51
270
0
ARC
5
470
100
AcDbEntity
8
0
100
AcDbCircle
10
626.75261999999202
20
624.8399999999798
30
0
40
2.5399999999998357
210
0
220
0
230
1
100
AcDbArc
50
-90.000000000002558
51
0
0
LINE
5
471
100
AcDbEntity
8
0
100
AcDbLine
10
626.75261999999191
20
622.29999999997995
30
0
11
433.69737999999199
21
622.29999999997995
31
0
0
LINE
5
472
100
AcDbEntity
8
0
100
AcDbLine
10
428.62499999996987
20
708.02499999999998
30
0
11
415.92499999996988
21
708.02499999999998
31
0
0
LINE
5
473
100
AcDbEntity
8
0
100
AcDbLine
10
428.62499999996987
20
708.02499999999998
30
0
11
428.62499999996987
21
698.5
31
0
0
LINE
5
474
100
AcDbEntity
8
0
100
AcDbLine
10
273.05000000000416
20
711.19999999999186
30
-3.5527136788005009e-14
11
273.05000000000416
21
708.02499999999191
31
-3.5527136788005009e-14
0
LINE
5
475
100
AcDbEntity
8
0
100
AcDbLine
10
-260.34999999999582
20
711.19999999999197
30
0
11
-260.34999999999582
21
708.02499999999202
31
-2.0744517215121021e-14
0
LINE
5
476
100
AcDbEntity
8
0
100
AcDbLine
10
-260.34999999999582
20
711.19999999999197
30
0
11
273.05000000000416
21
711.19999999999186
31
-3.5527136788005009e-14
0
LINE
5
477
100
AcDbEntity
8
0
100
AcDbLine
10
-263.52499999998003
20
708.02499999999998
30
0
11
-269.87499999998005
21
708.02499999999998
31
0
0
LINE
5
478
100
AcDbEntity
8
0
100
AcDbLine
10
-269.87499999998005
20
708.02499999999998
30
0
11
-415.92499999998006
21
708.02499999999998
31
0
0
LINE
5
479
100
AcDbEntity
8
0
100
AcDbLine
10
-428.6249999999801
20
708.02499999999998
30
0
11
-415.92499999998006
21
708.02499999999998
31
0
0
LINE
5
480
100
AcDbEntity
8
0
100
AcDbLine
10
-428.6249999999801
20
698.5
30
0
11
-428.6249999999801
21
708.02499999999998
31
0
0
ARC
5
481
100
AcDbEntity
8
0
100
AcDbCircle
10
-426.71999999999201
20
694.06261999997992
30
6.9107004344143811e-46
40
4.4373799999999619
210
-1.6011172110571419e-29
220
-1.0006766131420897e-15
230
1
100
AcDbArc
50
89.999999999999261
51
180
0
ARC
5
482
100
AcDbEntity
8
0
100
AcDbCircle
10
-633.72999999999195
20
694.06261999997992
30
0
40
4.437380000000033
210
1.2325951644078221e-32
220
-1.8652362955863259e-48
230
1
100
AcDbArc
50
0
51
90
0
LINE
5
483
100
AcDbEntity
8
0
100
AcDbLine
10
-431.15737999999197
20
624.83999999997991
30
0
11
-431.15737999999197
21
694.06261999998014
31
5.4694931306400385e-32
0
LINE
5
484
100
AcDbEntity
8
0
100
AcDbLine
10
-629.29261999999198
20
624.83999999997991
30
0
11
-629.29261999999187
21
694.06261999997992
31
-5.469493130640021e-32
0
ARC
5
485
100
AcDbEntity
8
0
100
AcDbCircle
10
-433.69737999999194
20
624.8399999999798
30
0
40
2.5399999999999068
210
0
220
0
230
1
100
AcDbArc
50
-90.000000000001265
51
0
0
ARC
5
486
100
AcDbEntity
8
0
100
AcDbCircle
10
-626.75261999999191
20
624.83999999997991
30
0
40
2.5400000000000489
210
0
220
0
230
1
100
AcDbArc
50
180
51
270
0
LINE
5
487
100
AcDbEntity
8
0
100
AcDbLine
10
-433.69737999999199
20
622.29999999997995
30
0
11
-626.75261999999191
21
622.29999999997995
31
0
0
ARC
5
488
100
AcDbEntity
8
0
100
AcDbCircle
10
-979.16999999999223
20
694.06261999998026
30
6.1922612803415989e-45
40
4.4373799999996777
210
-9.6128662421661216e-29
220
-1.0006766131421538e-15
230
1
100
AcDbArc
50
89.999999999994117
51
180
0
ARC
5
489
100
AcDbEntity
8
0
100
AcDbCircle
10
-1186.1799999999919
20
694.06261999997992
30
0
40
4.4373799999999619
210
1.2325951644078416e-32
220
-1.8652362955863259e-48
230
1
100
AcDbArc
50
0
51
90
0
LINE
5
490
100
AcDbEntity
8
0
100
AcDbLine
10
-983.60737999999185
20
624.83999999997991
30
0
11
-983.60737999999185
21
694.06261999997992
31
5.4694931306400407e-32
0
LINE
5
491
100
AcDbEntity
8
0
100
AcDbLine
10
-1181.7426199999918
20
624.83999999997991
30
0
11
-1181.7426199999918
21
694.06261999997992
31
-5.469493130640021e-32
0
ARC
5
492
100
AcDbEntity
8
0
100
AcDbCircle
10
-986.14737999999193
20
624.83999999998014
30
8.8817841970012523e-15
40
2.540000000000191
210
0
220
0
230
1
100
AcDbArc
50
270
51
360
0
ARC
5
493
100
AcDbEntity
8
0
100
AcDbCircle
10
-1179.2026199999918
20
624.83999999997991
30
0
40
2.5400000000000489
210
0
220
0
230
1
100
AcDbArc
50
180
51
270
0
LINE
5
494
100
AcDbEntity
8
0
100
AcDbLine
10
-986.14737999999193
20
622.29999999997995
30
8.8817841970012523e-15
11
-1179.2026199999918
21
622.29999999997995
31
0
0
ARC
5
495
100
AcDbEntity
8
0
100
AcDbCircle
10
-1531.6199999999922
20
694.06261999998014
30
8.8817841970012523e-15
40
4.4373799999996777
210
6.4108706872024218e-29
220
1.0009063472988943e-15
230
1
100
AcDbArc
50
89.999999999994117
51
180
0
ARC
5
496
100
AcDbEntity
8
0
100
AcDbCircle
10
-1738.6299999999919
20
694.0626199999798
30
8.8817841970012523e-15
40
4.4373799999999619
210
0
220
-1.8652362955863259e-48
230
1
100
AcDbArc
50
0
51
90
0
LINE
5
497
100
AcDbEntity
8
0
100
AcDbLine
10
-1536.0573799999918
20
624.8399999999798
30
8.8817841970012523e-15
11
-1536.0573799999918
21
694.0626199999798
31
8.8817841970012523e-15
0
LINE
5
498
100
AcDbEntity
8
0
100
AcDbLine
10
-1734.1926199999921
20
624.8399999999798
30
8.8817841970012523e-15
11
-1734.1926199999921
21
694.0626199999798
31
8.8817841970012523e-15
0
ARC
5
499
100
AcDbEntity
8
0
100
AcDbCircle
10
-1538.597379999992
20
624.83999999997968
30
8.8817841970012523e-15
40
2.5399999999999068
210
0
220
0
230
1
100
AcDbArc
50
-90
51
0
0
ARC
5
500
100
AcDbEntity
8
0
100
AcDbCircle
10
-1731.6526199999919
20
624.8399999999798
30
8.8817841970012523e-15
40
2.540000000000191
210
0
220
0
230
1
100
AcDbArc
50
180
51
270
0
LINE
5
501
100
AcDbEntity
8
0
100
AcDbLine
10
-1538.597379999992
20
622.29999999997983
30
8.8817841970012523e-15
11
-1731.6526199999919
21
622.29999999997983
31
8.8817841970012523e-15
0
LINE
5
502
100
AcDbEntity
8
0
100
AcDbLine
10
-1736.7249999999899
20
708.02499999999998
30
0
11
-1749.42499999999
21
708.02499999999998
31
1.7958584249704034e-15
0
LINE
5
503
100
AcDbEntity
8
0
100
AcDbLine
10
-1895.4749999999899
20
708.02499999999998
30
0
11
-1749.42499999999
21
708.02499999999998
31
1.7958584249704034e-15
0
LINE
5
504
100
AcDbEntity
8
0
100
AcDbLine
10
-1901.82499999999
20
708.02499999999998
30
0
11
-1895.4749999999899
21
708.02499999999998
31
0
0
LINE
5
505
100
AcDbEntity
8
0
100
AcDbLine
10
-1933.5749999999898
20
708.02499999999998
30
0
11
-1901.82499999999
21
708.02499999999998
31
0
0
LINE
5
506
100
AcDbEntity
8
0
100
AcDbLine
10
-1736.7249999999899
20
708.02499999999998
30
0
11
-1736.7249999999899
21
698.5
31
1.0181298520739711e-30
0
LINE
5
507
100
AcDbEntity
8
0
100
AcDbLine
10
-2663.8249999999994
20
574.67499999999882
30
0
11
-2663.8249999999994
21
542.92499999999882
31
-1.1504686092678134e-14
0
LINE
5
508
100
AcDbEntity
8
0
100
AcDbLine
10
-2663.8249999999994
20
542.92499999999882
30
-1.1504686092678134e-14
11
-2663.8249999999994
21
536.57499999999891
31
1.1909917496666429e-14
0
LINE
5
509
100
AcDbEntity
8
0
100
AcDbLine
10
-2663.8249999999994
20
536.57499999999891
30
1.1909917496666429e-14
11
-2663.8249999999994
21
390.52499999999907
31
-1.0288991880713053e-14
0
LINE
5
510
100
AcDbEntity
8
0
100
AcDbLine
10
-2663.8249999999994
20
377.82499999999914
30
0
11
-2663.8249999999994
21
390.52499999999907
31
-1.0288991880713053e-14
0
LINE
5
511
100
AcDbEntity
8
0
100
AcDbLine
10
-2654.2999999999993
20
377.82499999999914
30
0
11
-2663.8249999999994
21
377.82499999999914
31
0
0
ARC
5
512
100
AcDbEntity
8
0
100
AcDbCircle
10
-2649.8626200000099
20
379.72999999999502
30
0
40
4.4373799999999619
210
1.0960787726587266e-15
220
1.7551140757237632e-29
230
1
100
AcDbArc
50
180
51
270
0
ARC
5
513
100
AcDbEntity
8
0
100
AcDbCircle
10
-2649.8626200000099
20
172.71999999999494
30
8.8817841970012523e-15
40
4.4373799999999974
210
0
220
-0
230
1
100
AcDbArc
50
90
51
180
0
LINE
5
514
100
AcDbEntity
8
0
100
AcDbLine
10
-2580.6400000000099
20
375.29261999999494
30
8.8817841970012523e-15
11
-2649.8626200000099
21
375.29261999999505
31
0
0
LINE
5
515
100
AcDbEntity
8
0
100
AcDbLine
10
-2580.6400000000099
20
177.1573799999949
30
0
11
-2649.8626200000099
21
177.15737999999493
31
8.8817841970012523e-15
0
ARC
5
516
100
AcDbEntity
8
0
100
AcDbCircle
10
-2580.6400000000094
20
372.75261999999492
30
2.0253141867194622e-44
40
2.5399999999996226
210
2.2453646551915423e-45
220
-1.9721522630524778e-31
230
1
100
AcDbArc
50
0
51
90.00000000001026
0
ARC
5
517
100
AcDbEntity
8
0
100
AcDbCircle
10
-2580.6400000000099
20
179.69737999999492
30
0
40
2.5400000000000134
210
-4.767646687511632e-47
220
0
230
1
100
AcDbArc
50
-90
51
0
0
LINE
5
518
100
AcDbEntity
8
0
100
AcDbLine
10
-2578.1000000000095
20
372.75261999999486
30
5.3693099976114891e-46
11
-2578.1000000000095
21
179.69737999999492
31
-3.2064045742999264e-45
0
ARC
5
519
100
AcDbEntity
8
0
100
AcDbCircle
10
-2649.8626200000099
20
-379.72999999999507
30
0
40
4.437380000000033
210
0
220
-0
230
1
100
AcDbArc
50
90
51
180
0
ARC
5
520
100
AcDbEntity
8
0
100
AcDbCircle
10
-2649.8626200000099
20
-172.71999999999508
30
8.8817841970012523e-15
40
4.4373799999999619
210
2.7223670255469376e-16
220
0
230
1
100
AcDbArc
50
180
51
270
0
LINE
5
521
100
AcDbEntity
8
0
100
AcDbLine
10
-2580.6400000000099
20
-375.29261999999505
30
8.8817841970012523e-15
11
-2649.8626200000099
21
-375.29261999999505
31
0
0
LINE
5
522
100
AcDbEntity
8
0
100
AcDbLine
10
-2580.6400000000099
20
-177.15737999999504
30
0
11
-2649.8626200000099
21
-177.15737999999504
31
8.8817841970012523e-15
0
ARC
5
523
100
AcDbEntity
8
0
100
AcDbCircle
10
-2580.6400000000099
20
-372.75261999999498
30
0
40
2.5400000000000489
210
-4.767646687511632e-47
220
3.4967654318901895e-15
230
1
100
AcDbArc
50
-90
51
0
0
ARC
5
524
100
AcDbEntity
8
0
100
AcDbCircle
10
-2580.6400000000099
20
-179.69737999999509
30
1.0290785597385375e-44
40
2.540000000000191
210
2.555392854354631e-45
220
1.9721522630525201e-31
230
1
100
AcDbArc
50
0
51
90
0
LINE
5
525
100
AcDbEntity
8
0
100
AcDbLine
10
-2578.1000000000095
20
-179.69737999999506
30
-3.206404574299927e-45
11
-2578.1000000000095
21
-372.75261999999498
31
5.3693099976114984e-46
0
LINE
5
526
100
AcDbEntity
8
0
100
AcDbLine
10
-2663.8250000000098
20
-377.82500000000317
30
-3.5527136788005009e-14
11
-2663.8250000000098
21
-390.52500000000322
31
-3.4117153546731055e-14
0
LINE
5
527
100
AcDbEntity
8
0
100
AcDbLine
10
-2663.8250000000098
20
-536.57500000000323
30
0
11
-2663.8250000000098
21
-390.52500000000322
31
-3.4117153546731055e-14
0
LINE
5
528
100
AcDbEntity
8
0
100
AcDbLine
10
-2663.8250000000098
20
-542.92500000000314
30
0
11
-2663.8250000000098
21
-536.57500000000323
31
0
0
LINE
5
529
100
AcDbEntity
8
0
100
AcDbLine
10
-2663.8250000000098
20
-574.67500000000325
30
0
11
-2663.8250000000098
21
-542.92500000000314
31
0
0
LINE
5
530
100
AcDbEntity
8
0
100
AcDbLine
10
-2663.8250000000098
20
-377.82500000000317
30
-3.5527136788005009e-14
11
-2654.3000000000097
21
-377.82500000000323
31
-3.3414133902529897e-17
0
LINE
5
531
100
AcDbEntity
8
0
100
AcDbLine
10
-1933.5749999999898
20
-708.02499999999998
30
0
11
-1901.8249999999898
21
-708.02499999999998
31
3.5249581031848854e-15
0
LINE
5
532
100
AcDbEntity
8
0
100
AcDbLine
10
-1901.8249999999898
20
-708.02499999999998
30
3.5249581031848854e-15
11
-1895.4749999999899
21
-708.02499999999998
31
7.0499162063697831e-16
0
LINE
5
533
100
AcDbEntity
8
0
100
AcDbLine
10
-1895.4749999999899
20
-708.02499999999998
30
7.0499162063697831e-16
11
-1749.42499999999
21
-708.02499999999998
31
1.6214807274650466e-14
0
LINE
5
534
100
AcDbEntity
8
0
100
AcDbLine
10
-1736.7249999999899
20
-708.02499999999998
30
0
11
-1749.42499999999
21
-708.02499999999998
31
1.6214807274650466e-14
0
LINE
5
535
100
AcDbEntity
8
0
100
AcDbLine
10
-1736.7249999999899
20
-698.5
30
0
11
-1736.7249999999899
21
-708.02499999999998
31
0
0
ARC
5
536
100
AcDbEntity
8
0
100
AcDbCircle
10
-1531.6199999999917
20
-694.06261999997992
30
8.8817841970012523e-15
40
4.4373799999999619
210
0
220
1.8652362955863259e-48
230
1
100
AcDbArc
50
180
51
270
0
ARC
5
537
100
AcDbEntity
8
0
100
AcDbCircle
10
-1738.6299999999917
20
-694.06261999998026
30
8.8817841970012523e-15
40
4.4373799999998198
210
-1.2066075653777151e-28
220
-1.8838333041037778e-15
230
1
100
AcDbArc
50
-90.000000000002956
51
0
0
LINE
5
538
100
AcDbEntity
8
0
100
AcDbLine
10
-1536.0573799999918
20
-624.83999999997991
30
8.8817841970012523e-15
11
-1536.0573799999918
21
-694.06261999997992
31
8.8817841970012523e-15
0
LINE
5
539
100
AcDbEntity
8
0
100
AcDbLine
10
-1734.1926199999921
20
-624.83999999998002
30
8.8817841970012523e-15
11
-1734.1926199999921
21
-694.06261999997992
31
8.8817841970012523e-15
0
ARC
5
540
100
AcDbEntity
8
0
100
AcDbCircle
10
-1538.597379999992
20
-624.83999999997991
30
8.8817841970012523e-15
40
2.540000000000191
210
0
220
0
230
1
100
AcDbArc
50
0
51
90
0
ARC
5
541
100
AcDbEntity
8
0
100
AcDbCircle
10
-1731.6526199999919
20
-624.83999999997991
30
8.8817841970012523e-15
40
2.5399999999999068
210
0
220
-0
230
1
100
AcDbArc
50
90
51
180
0
LINE
5
542
100
AcDbEntity
8
0
100
AcDbLine
10
-1731.6526199999919
20
-622.29999999997995
30
8.8817841970012523e-15
11
-1538.597379999992
21
-622.29999999997995
31
8.8817841970012523e-15
0
ARC
5
543
100
AcDbEntity
8
0
100
AcDbCircle
10
-979.16999999999189
20
-694.06261999997992
30
0
40
4.4373799999999619
210
1.2325951644078416e-32
220
1.8652362955863259e-48
230
1
100
AcDbArc
50
180
51
270.00000000000148
0
ARC
5
544
100
AcDbEntity
8
0
100
AcDbCircle
10
-1186.1799999999917
20
-694.06261999998026
30
-6.4043718877345155e-45
40
4.4373799999998198
210
1.1325239826316074e-29
220
1.1774965633720601e-16
230
1
100
AcDbArc
50
-90.000000000005898
51
0
0
LINE
5
545
100
AcDbEntity
8
0
100
AcDbLine
10
-983.60737999999185
20
-624.83999999997991
30
0
11
-983.60737999999185
21
-694.06261999997992
31
5.469493130640021e-32
0
LINE
5
546
100
AcDbEntity
8
0
100
AcDbLine
10
-1181.7426199999918
20
-624.83999999998002
30
0
11
-1181.7426199999918
21
-694.06261999997992
31
-5.4694931306400407e-32
0
ARC
5
547
100
AcDbEntity
8
0
100
AcDbCircle
10
-986.14737999999193
20
-624.83999999997991
30
8.8817841970012523e-15
40
2.5400000000000489
210
3.4967654318901895e-15
220
0
230
1
100
AcDbArc
50
0
51
90
0
ARC
5
548
100
AcDbEntity
8
0
100
AcDbCircle
10
-1179.2026199999918
20
-624.83999999998002
30
0
40
2.5400000000000489
210
0
220
-0
230
1
100
AcDbArc
50
90
51
180
0
LINE
5
549
100
AcDbEntity
8
0
100
AcDbLine
10
-1179.2026199999918
20
-622.29999999997995
30
0
11
-986.14737999999193
21
-622.29999999997995
31
8.8817841970012523e-15
0
ARC
5
550
100
AcDbEntity
8
0
100
AcDbCircle
10
-426.71999999999196
20
-694.06261999997992
30
0
40
4.437380000000033
210
1.2325951644078221e-32
220
1.8652362955863259e-48
230
1
100
AcDbArc
50
180
51
269.99999999999932
0
ARC
5
551
100
AcDbEntity
8
0
100
AcDbCircle
10
-633.72999999999183
20
-694.06261999998014
30
-1.9432068548254299e-45
40
4.4373799999999619
210
5.6687828889797166e-30
220
1.1774965633720227e-16
230
1
100
AcDbArc
50
-90.000000000002956
51
0
0
LINE
5
552
100
AcDbEntity
8
0
100
AcDbLine
10
-431.15737999999197
20
-624.83999999997991
30
0
11
-431.15737999999197
21
-694.06261999997992
31
5.469493130640021e-32
0
LINE
5
553
100
AcDbEntity
8
0
100
AcDbLine
10
-629.29261999999198
20
-624.83999999998002
30
0
11
-629.29261999999198
21
-694.06261999997992
31
-5.4694931306399674e-32
0
ARC
5
554
100
AcDbEntity
8
0
100
AcDbCircle
10
-433.69737999999199
20
-624.83999999997991
30
0
40
2.5400000000000489
210
0
220
0
230
1
100
AcDbArc
50
0
51
90
0
ARC
5
555
100
AcDbEntity
8
0
100
AcDbCircle
10
-626.75261999999202
20
-624.8399999999798
30
0
40
2.5399999999998357
210
0
220
-0
230
1
100
AcDbArc
50
89.999999999997428
51
180
0
LINE
5
556
100
AcDbEntity
8
0
100
AcDbLine
10
-626.75261999999191
20
-622.29999999997995
30
0
11
-433.69737999999199
21
-622.29999999997995
31
0
0
LINE
5
557
100
AcDbEntity
8
0
100
AcDbLine
10
-428.62499999997976
20
-708.02499999999998
30
0
11
-415.92499999997983
21
-708.02499999999998
31
0
0
LINE
5
558
100
AcDbEntity
8
0
100
AcDbLine
10
-269.87499999997976
20
-708.02499999999998
30
0
11
-415.92499999997983
21
-708.02499999999998
31
0
0
LINE
5
559
100
AcDbEntity
8
0
100
AcDbLine
10
-263.5249999999798
20
-708.02499999999998
30
0
11
-269.87499999997976
21
-708.02499999999998
31
0
0
LINE
5
560
100
AcDbEntity
8
0
100
AcDbLine
10
-428.62499999997976
20
-708.02499999999998
30
0
11
-428.62499999997976
21
-698.5
31
0
0
LINE
5
561
100
AcDbEntity
8
0
100
AcDbLine
10
-260.35000000000332
20
-711.20000000000005
30
0
11
-260.35000000000332
21
-708.02500000000009
31
0
0
LINE
5
562
100
AcDbEntity
8
0
100
AcDbLine
10
273.0499999999966
20
-711.20000000000005
30
0
11
273.0499999999966
21
-708.02500000000009
31
0
0
LINE
5
563
100
AcDbEntity
8
0
100
AcDbLine
10
273.0499999999966
20
-711.20000000000005
30
0
11
-260.35000000000332
21
-711.20000000000005
31
0
0
LINE
5
564
100
AcDbEntity
8
0
100
AcDbLine
10
428.6249999999701
20
-708.02499999999998
30
0
11
415.92499999997011
21
-708.02499999999998
31
0
0
LINE
5
565
100
AcDbEntity
8
0
100
AcDbLine
10
428.6249999999701
20
-698.5
30
0
11
428.6249999999701
21
-708.02499999999998
31
0
0
ARC
5
566
100
AcDbEntity
8
0
100
AcDbCircle
10
426.71999999999201
20
-694.06261999997992
30
6.9107004344143811e-46
40
4.4373799999999619
210
1.6011172110571419e-29
220
1.0006766131420897e-15
230
1
100
AcDbArc
50
269.99999999999932
51
360
0
ARC
5
567
100
AcDbEntity
8
0
100
AcDbCircle
10
633.72999999999195
20
-694.06261999997992
30
0
40
4.437380000000033
210
-1.2325951644078221e-32
220
1.8652362955863259e-48
230
1
100
AcDbArc
50
180
51
270
0
LINE
5
568
100
AcDbEntity
8
0
100
AcDbLine
10
431.15737999999197
20
-624.83999999997991
30
0
11
431.15737999999197
21
-694.06261999998014
31
5.4694931306400385e-32
0
LINE
5
569
100
AcDbEntity
8
0
100
AcDbLine
10
629.29261999999198
20
-624.83999999997991
30
0
11
629.29261999999187
21
-694.06261999997992
31
-5.469493130640021e-32
0
ARC
5
570
100
AcDbEntity
8
0
100
AcDbCircle
10
433.69737999999194
20
-624.8399999999798
30
0
40
2.5399999999999068
210
0
220
-0
230
1
100
AcDbArc
50
89.999999999998721
51
180
0
ARC
5
571
100
AcDbEntity
8
0
100
AcDbCircle
10
626.75261999999191
20
-624.83999999997991
30
0
40
2.5400000000000489
210
0
220
0
230
1
100
AcDbArc
50
0
51
90
0
LINE
5
572
100
AcDbEntity
8
0
100
AcDbLine
10
433.69737999999199
20
-622.29999999997995
30
0
11
626.75261999999191
21
-622.29999999997995
31
0
0
ARC
5
573
100
AcDbEntity
8
0
100
AcDbCircle
10
979.16999999999223
20
-694.06261999998026
30
6.1922612803415989e-45
40
4.4373799999996777
210
9.6128662421661216e-29
220
1.0006766131421538e-15
230
1
100
AcDbArc
50
-90.000000000005898
51
0
0
ARC
5
574
100
AcDbEntity
8
0
100
AcDbCircle
10
1186.1799999999919
20
-694.06261999997992
30
0
40
4.4373799999999619
210
-1.2325951644078416e-32
220
1.8652362955863259e-48
230
1
100
AcDbArc
50
180
51
270
0
LINE
5
575
100
AcDbEntity
8
0
100
AcDbLine
10
983.60737999999185
20
-624.83999999997991
30
0
11
983.60737999999185
21
-694.06261999997992
31
5.4694931306400407e-32
0
LINE
5
576
100
AcDbEntity
8
0
100
AcDbLine
10
1181.7426199999918
20
-624.83999999997991
30
0
11
1181.7426199999918
21
-694.06261999997992
31
-5.469493130640021e-32
0
ARC
5
577
100
AcDbEntity
8
0
100
AcDbCircle
10
986.14737999999193
20
-624.83999999998014
30
8.8817841970012523e-15
40
2.540000000000191
210
0
220
-0
230
1
100
AcDbArc
50
90
51
180
0
ARC
5
578
100
AcDbEntity
8
0
100
AcDbCircle
10
1179.2026199999918
20
-624.83999999997991
30
0
40
2.5400000000000489
210
0
220
0
230
1
100
AcDbArc
50
0
51
90
0
LINE
5
579
100
AcDbEntity
8
0
100
AcDbLine
10
986.14737999999193
20
-622.29999999997995
30
8.8817841970012523e-15
11
1179.2026199999918
21
-622.29999999997995
31
0
0
ARC
5
580
100
AcDbEntity
8
0
100
AcDbCircle
10
1531.6199999999922
20
-694.06261999998014
30
8.8817841970012523e-15
40
4.4373799999996777
210
-6.4108706872024218e-29
220
-1.0009063472988943e-15
230
1
100
AcDbArc
50
-90.000000000005898
51
0
0
ARC
5
581
100
AcDbEntity
8
0
100
AcDbCircle
10
1738.6299999999919
20
-694.0626199999798
30
8.8817841970012523e-15
40
4.4373799999999619
210
0
220
1.8652362955863259e-48
230
1
100
AcDbArc
50
180
51
270
0
LINE
5
582
100
AcDbEntity
8
0
100
AcDbLine
10
1536.0573799999918
20
-624.8399999999798
30
8.8817841970012523e-15
11
1536.0573799999918
21
-694.0626199999798
31
8.8817841970012523e-15
0
LINE
5
583
100
AcDbEntity
8
0
100
AcDbLine
10
1734.1926199999921
20
-624.8399999999798
30
8.8817841970012523e-15
11
1734.1926199999921
21
-694.0626199999798
31
8.8817841970012523e-15
0
ARC
5
584
100
AcDbEntity
8
0
100
AcDbCircle
10
1538.597379999992
20
-624.83999999997968
30
8.8817841970012523e-15
40
2.5399999999999068
210
0
220
-0
230
1
100
AcDbArc
50
90
51
180
0
ARC
5
585
100
AcDbEntity
8
0
100
AcDbCircle
10
1731.6526199999919
20
-624.8399999999798
30
8.8817841970012523e-15
40
2.540000000000191
210
0
220
0
230
1
100
AcDbArc
50
0
51
90
0
LINE
5
586
100
AcDbEntity
8
0
100
AcDbLine
10
1538.597379999992
20
-622.29999999997983
30
8.8817841970012523e-15
11
1731.6526199999919
21
-622.29999999997983
31
8.8817841970012523e-15
0
LINE
5
587
100
AcDbEntity
8
0
100
AcDbLine
10
1736.7249999999949
20
-708.02499999998008
30
0
11
1749.4249999999952
21
-708.02499999998008
31
1.7958584249704034e-15
0
LINE
5
588
100
AcDbEntity
8
0
100
AcDbLine
10
1895.4749999999949
20
-708.02499999998008
30
0
11
1749.4249999999952
21
-708.02499999998008
31
1.7958584249704034e-15
0
LINE
5
589
100
AcDbEntity
8
0
100
AcDbLine
10
1901.8249999999953
20
-708.02499999998008
30
0
11
1895.4749999999949
21
-708.02499999998008
31
0
0
LINE
5
590
100
AcDbEntity
8
0
100
AcDbLine
10
1933.574999999995
20
-708.02499999998008
30
0
11
1901.8249999999953
21
-708.02499999998008
31
0
0
LINE
5
591
100
AcDbEntity
8
0
100
AcDbLine
10
1736.7249999999949
20
-708.02499999998008
30
0
11
1736.7249999999949
21
-698.49999999997999
31
1.0181298520739711e-30
0
LINE
5
592
100
AcDbEntity
8
0
100
AcDbLine
10
633.72999999999206
20
708.02499999999998
30
0
11
979.16999999999689
21
708.02499999999998
31
0
0
LINE
5
593
100
AcDbEntity
8
0
100
AcDbLine
10
979.16999999999689
20
698.49999999998988
30
8.3592842269636835e-15
11
979.16999999999689
21
708.02499999999998
31
0
0
LINE
5
594
100
AcDbEntity
8
0
100
AcDbLine
10
633.72999999999206
20
698.49999999997999
30
5.2249997003757001e-16
11
633.72999999999206
21
708.02499999999998
31
0
0
LINE
5
595
100
AcDbEntity
8
0
100
AcDbLine
10
1186.1799999999971
20
708.02499999999998
30
0
11
1531.6199999999917
21
708.02499999999998
31
0
0
LINE
5
596
100
AcDbEntity
8
0
100
AcDbLine
10
1531.6199999999917
20
708.02499999999998
30
0
11
1531.6199999999917
21
698.49999999997988
31
8.3592842269636835e-15
0
LINE
5
597
100
AcDbEntity
8
0
100
AcDbLine
10
1186.1799999999971
20
698.49999999999
30
5.2249997003757001e-16
11
1186.1799999999971
21
708.02499999999998
31
0
0
LINE
5
598
100
AcDbEntity
8
0
100
AcDbLine
10
2663.8250000000098
20
574.67499999999507
30
0
11
1933.5749999999898
21
708.02499999999998
31
0
0
LINE
5
599
100
AcDbEntity
8
0
100
AcDbLine
10
2663.8250000000098
20
172.71999999999511
30
0
11
2663.8250000000098
21
-172.71999999999483
31
0
0
LINE
5
600
100
AcDbEntity
8
0
100
AcDbLine
10
2663.8250000000098
20
-172.71999999999483
30
0
11
2654.3000000000193
21
-172.71999999999485
31
8.8817841970012523e-15
0
LINE
5
601
100
AcDbEntity
8
0
100
AcDbLine
10
2663.8250000000098
20
172.71999999999511
30
0
11
2654.3000000000193
21
172.71999999999511
31
1.0089801896183389e-14
0
LINE
5
602
100
AcDbEntity
8
0
100
AcDbLine
10
2663.8250000000198
20
-574.67500000000098
30
0
11
1933.574999999995
21
-708.02499999998008
31
0
0
LINE
5
603
100
AcDbEntity
8
0
100
AcDbLine
10
1531.6199999999917
20
-708.02499999998008
30
0
11
1186.1799999999919
21
-708.02499999998008
31
0
0
LINE
5
604
100
AcDbEntity
8
0
100
AcDbLine
10
1186.1799999999919
20
-708.02499999998008
30
0
11
1186.1799999999919
21
-698.49999999997988
31
0
0
LINE
5
605
100
AcDbEntity
8
0
100
AcDbLine
10
1531.6199999999917
20
-708.02499999998008
30
0
11
1531.6199999999917
21
-698.49999999997976
31
4.4403823896244077e-15
0
LINE
5
606
100
AcDbEntity
8
0
100
AcDbLine
10
979.16999999999177
20
-698.49999999997988
30
4.4403823896244077e-15
11
979.16999999999177
21
-708.02499999999998
31
8.8817841970012523e-15
0
LINE
5
607
100
AcDbEntity
8
0
100
AcDbLine
10
979.16999999999177
20
-708.02499999999998
30
8.8817841970012523e-15
11
633.72999999999206
21
-708.025000000001
31
8.8817841970012523e-15
0
LINE
5
608
100
AcDbEntity
8
0
100
AcDbLine
10
633.72999999999206
20
-708.025000000001
30
8.8817841970012523e-15
11
633.72999999999195
21
-698.49999999997988
31
-8.8817841970012523e-15
0
LINE
5
609
100
AcDbEntity
8
0
100
AcDbLine
10
-633.72999999999206
20
-698.49999999997999
30
5.2249997003757001e-16
11
-633.72999999999206
21
-708.02499999999998
31
5.2249997003757001e-16
0
LINE
5
610
100
AcDbEntity
8
0
100
AcDbLine
10
-633.72999999999206
20
-708.02499999999998
30
5.2249997003757001e-16
11
-979.16999999999177
21
-708.02499999999998
31
5.2249997003757001e-16
0
LINE
5
611
100
AcDbEntity
8
0
100
AcDbLine
10
-979.16999999999177
20
-708.02499999999998
30
5.2249997003757001e-16
11
-979.16999999999177
21
-698.49999999997988
31
8.3592842269636835e-15
0
LINE
5
612
100
AcDbEntity
8
0
100
AcDbLine
10
-1186.1799999999921
20
-696.60261999997999
30
9.404284167038818e-15
11
-1186.1799999999921
21
-708.02499999999998
31
0
0
LINE
5
613
100
AcDbEntity
8
0
100
AcDbLine
10
-1186.1799999999921
20
-708.02499999999998
30
0
11
-1531.6199999999917
21
-708.02499999999998
31
-1.6006836004495245e-15
0
LINE
5
614
100
AcDbEntity
8
0
100
AcDbLine
10
-1531.6199999999917
20
-708.02499999999998
30
-1.6006836004495245e-15
11
-1531.6199999999917
21
-698.49999999997988
31
8.3592842269636835e-15
0
LINE
5
615
100
AcDbEntity
8
0
100
AcDbLine
10
-1933.5749999999898
20
-708.02499999999998
30
0
11
-2663.8250000000098
21
-574.67500000000325
31
0
0
LINE
5
616
100
AcDbEntity
8
0
100
AcDbLine
10
-2654.3000000000097
20
-172.71999999999508
30
1.0089801896183389e-14
11
-2663.8250000000098
21
-172.71999999999508
31
1.0089801896183389e-14
0
LINE
5
617
100
AcDbEntity
8
0
100
AcDbLine
10
-2663.8250000000098
20
-172.71999999999508
30
1.0089801896183389e-14
11
-2663.8250000000098
21
172.71999999999494
31
1.0089801896183389e-14
0
LINE
5
618
100
AcDbEntity
8
0
100
AcDbLine
10
-2663.8250000000098
20
172.71999999999494
30
1.0089801896183389e-14
11
-2654.3000000000097
21
172.71999999999494
31
8.8817841970012523e-15
0
LINE
5
619
100
AcDbEntity
8
0
100
AcDbLine
10
-2663.8249999999994
20
574.67499999999882
30
0
11
-1933.5749999999898
21
708.02499999999998
31
0
0
LINE
5
620
100
AcDbEntity
8
0
100
AcDbLine
10
-1531.6199999999917
20
698.49999999997976
30
4.4403823896244077e-15
11
-1531.6199999999917
21
708.02499999999998
31
8.8817841970012523e-15
0
LINE
5
621
100
AcDbEntity
8
0
100
AcDbLine
10
-1531.6199999999917
20
708.02499999999998
30
8.8817841970012523e-15
11
-1186.1799999999917
21
708.02499999999998
31
0
0
LINE
5
622
100
AcDbEntity
8
0
100
AcDbLine
10
-1186.1799999999917
20
708.02499999999998
30
0
11
-1186.1799999999919
21
698.49999999997988
31
0
0
LINE
5
623
100
AcDbEntity
8
0
100
AcDbLine
10
-979.16999999999177
20
698.49999999997988
30
4.4403823896244077e-15
11
-979.16999999999177
21
708.0250000000002
31
0
0
LINE
5
624
100
AcDbEntity
8
0
100
AcDbLine
10
-979.16999999999177
20
708.0250000000002
30
0
11
-633.72999999999195
21
708.02499999999998
31
-9.3834177182531655e-15
0
LINE
5
625
100
AcDbEntity
8
0
100
AcDbLine
10
-633.72999999999195
20
708.02499999999998
30
-9.3834177182531655e-15
11
-633.72999999999195
21
698.49999999997988
31
-8.8817841970012523e-15
0
LINE
5
626
100
AcDbEntity
8
0
100
AcDbLine
10
1738.6299999999919
20
698.49999999997999
30
5.2249997003757001e-16
11
1736.7249999999899
21
698.5
31
0
0
LINE
5
627
100
AcDbEntity
8
0
100
AcDbLine
10
428.62499999996987
20
698.5
30
0
11
426.71999999999201
21
698.49999999997988
31
-5.2249997003756804e-16
0
LINE
5
628
100
AcDbEntity
8
0
100
AcDbLine
10
273.05000000000416
20
708.02499999999191
30
-3.5527136788005009e-14
11
415.92499999996988
21
708.02499999999998
31
0
0
LINE
5
629
100
AcDbEntity
8
0
100
AcDbLine
10
-263.52499999998003
20
708.02499999999998
30
0
11
-260.34999999999582
21
708.02499999999202
31
-2.0744517215121021e-14
0
LINE
5
630
100
AcDbEntity
8
0
100
AcDbLine
10
-426.71999999999196
20
698.49999999997988
30
4.4403823896244077e-15
11
-428.6249999999801
21
698.5
31
0
0
LINE
5
631
100
AcDbEntity
8
0
100
AcDbLine
10
-1736.7249999999899
20
698.5
30
1.0181298520739711e-30
11
-1738.6299999999919
21
698.49999999997976
31
0
0
LINE
5
632
100
AcDbEntity
8
0
100
AcDbLine
10
-2654.2999999999993
20
377.82499999999914
30
0
11
-2654.3000000000097
21
379.72999999999496
31
4.8637180242203384e-15
0
LINE
5
633
100
AcDbEntity
8
0
100
AcDbLine
10
-2654.3000000000097
20
-379.72999999999513
30
-1.2080176991821838e-15
11
-2654.3000000000097
21
-377.82500000000323
31
-3.3414133902529897e-17
0
LINE
5
634
100
AcDbEntity
8
0
100
AcDbLine
10
-1736.7249999999899
20
-698.5
30
0
11
-1738.6299999999919
21
-698.49999999997999
31
5.2249997003757001e-16
0
LINE
5
635
100
AcDbEntity
8
0
100
AcDbLine
10
-428.62499999997976
20
-698.5
30
0
11
-426.71999999999201
21
-698.49999999997988
31
-5.2249997003756804e-16
0
LINE
5
636
100
AcDbEntity
8
0
100
AcDbLine
10
-260.35000000000332
20
-708.02500000000009
30
0
11
-263.5249999999798
21
-708.02499999999998
31
0
0
LINE
5
637
100
AcDbEntity
8
0
100
AcDbLine
10
415.92499999997011
20
-708.02499999999998
30
0
11
273.0499999999966
21
-708.02500000000009
31
0
0
LINE
5
638
100
AcDbEntity
8
0
100
AcDbLine
10
428.6249999999701
20
-698.5
30
0
11
426.71999999999196
21
-698.49999999997988
31
4.4403823896244077e-15
0
LINE
5
639
100
AcDbEntity
8
0
100
AcDbLine
10
1738.6299999999919
20
-698.49999999997976
30
0
11
1736.7249999999949
21
-698.49999999997999
31
1.0181298520739711e-30
0
LINE
5
640
100
AcDbEntity
8
0
100
AcDbLine
10
2654.3000000000193
20
-379.7299999999949
30
4.8637180242203384e-15
11
2654.3000000000202
21
-377.8250000000013
31
0
0
LINE
5
641
100
AcDbEntity
8
0
100
AcDbLine
10
2654.3000000000097
20
377.82499999999516
30
-3.3414133902529897e-17
11
2654.3000000000193
21
379.72999999999513
31
-1.2080176991821838e-15
0
LINE
5
642
100
AcDbEntity
8
0
100
AcDbLine
10
2663.8250000000098
20
536.57499999999504
30
0
11
2663.8250000000098
21
542.92499999999507
31
0
0
LINE
5
643
100
AcDbEntity
8
0
100
AcDbLine
10
7038.9749999999995
20
-609.72699999999691
30
0
11
7038.9750000000013
21
609.47300000000246
31
-3.2770512070127972e-14
0
LINE
5
644
100
AcDbEntity
8
0
100
AcDbLine
10
8258.1750000000011
20
609.47300000000132
30
0
11
8258.1749999999993
21
2743.1999999999844
31
0
0
LINE
5
645
100
AcDbEntity
8
0
100
AcDbLine
10
8262.9375
20
2743.1999999999844
30
0
11
8262.9375
21
2765.4249999999838
31
0
0
LINE
5
646
100
AcDbEntity
8
0
100
AcDbLine
10
8262.9375
20
2765.4249999999838
30
0
11
8285.1624999999985
21
2765.4249999999838
31
0
0
LINE
5
647
100
AcDbEntity
8
0
100
AcDbLine
10
8285.1625000000022
20
2807.5889999999881
30
9.8698826889176502e-15
11
8262.9375
21
2807.5889999999881
31
0
0
LINE
5
648
100
AcDbEntity
8
0
100
AcDbLine
10
8262.9375
20
2807.5889999999881
30
0
11
8262.9374999999982
21
2826.6389999999869
31
8.8817841970012523e-15
0
ARC
5
649
100
AcDbEntity
8
0
100
AcDbCircle
10
8285.1625000000004
20
2786.5069999999873
30
0
40
21.082000000000676
210
-2.5246347705044943e-29
220
-4.6816633568529238e-16
230
1
100
AcDbArc
50
89.99999999999504
51
269.99999999999505
0
ARC
5
650
100
AcDbEntity
8
0
100
AcDbCircle
10
8267.3748799999976
20
3335.2663799999868
30
0
40
4.4373799999999619
210
0
220
-0
230
1
100
AcDbArc
50
90
51
180
0
ARC
5
651
100
AcDbEntity
8
0
100
AcDbCircle
10
8267.3748799999976
20
3542.2763799999884
30
0
40
4.4373800000005303
210
-7.195192301714846e-16
220
-2.7651406671756042e-28
230
1
100
AcDbArc
50
180
51
270
0
LINE
5
652
100
AcDbEntity
8
0
100
AcDbLine
10
8336.5974999999962
20
3339.7037599999867
30
0
11
8267.3748799999976
21
3339.7037599999867
31
0
0
LINE
5
653
100
AcDbEntity
8
0
100
AcDbLine
10
8336.5974999999962
20
3537.8389999999872
30
0
11
8267.3748799999976
21
3537.8389999999877
31
0
0
ARC
5
654
100
AcDbEntity
8
0
100
AcDbCircle
10
8336.5974999999962
20
3342.2437599999871
30
0
40
2.540000000000191
210
1.155183196220443e-47
220
0
230
1
100
AcDbArc
50
-90
51
0
0
ARC
5
655
100
AcDbEntity
8
0
100
AcDbCircle
10
8336.5974999999962
20
3535.2989999999863
30
-9.9815146472511872e-44
40
2.540000000000191
210
-1.829869718217285e-44
220
-9.860761315263427e-32
230
1
100
AcDbArc
50
0
51
90
0
LINE
5
656
100
AcDbEntity
8
0
100
AcDbLine
10
8339.1374999999971
20
3535.2989999999868
30
2.715482943207782e-45
11
8339.1374999999971
21
3342.2437599999871
31
8.4381515617724857e-46
0
LINE
5
657
100
AcDbEntity
8
0
100
AcDbLine
10
8256.5874999999978
20
3334.6389999999874
30
0
11
8262.9374999999982
21
3334.6389999999874
31
0
0
LINE
5
658
100
AcDbEntity
8
0
100
AcDbLine
10
8262.9374999999982
20
3537.8389999999872
30
0
11
8256.5874999999978
21
3537.8389999999872
31
0
0
LINE
5
659
100
AcDbEntity
8
0
100
AcDbLine
10
8262.9374999999982
20
3537.8389999999872
30
0
11
8262.9374999999964
21
3542.2763799999866
31
-3.1927802415787234e-15
0
LINE
5
660
100
AcDbEntity
8
0
100
AcDbLine
10
8256.5874999999978
20
3575.9389999999871
30
0
11
8243.8874999999989
21
3575.9389999999871
31
0
0
LINE
5
661
100
AcDbEntity
8
0
100
AcDbLine
10
8256.5874999999978
20
3550.5389999999875
30
3.9745984281582636e-15
11
8256.5874999999978
21
3575.9389999999871
31
0
0
LINE
5
662
100
AcDbEntity
8
0
100
AcDbLine
10
8243.8874999999989
20
3575.9389999999871
30
0
11
8237.5374999999985
21
3575.9389999999876
31
3.0020430585864161e-14
0
LINE
5
663
100
AcDbEntity
8
0
100
AcDbLine
10
8256.5874999999978
20
4007.7389999999873
30
0
11
8256.5874999999978
21
4039.4889999999873
31
0
0
LINE
5
664
100
AcDbEntity
8
0
100
AcDbLine
10
8262.9374999999982
20
4045.8389999999872
30
1.7624790515924346e-15
11
8262.9374999999982
21
4062.0230822266203
31
1.7624790515924346e-15
0
LINE
5
665
100
AcDbEntity
8
0
100
AcDbLine
10
6420.0881009360101
20
4143.9351572622509
30
0
11
6420.0881009360128
21
4202.879199542238
31
0
0
LINE
5
666
100
AcDbEntity
8
0
100
AcDbLine
10
6420.0881009360101
20
4143.9351572622509
30
0
11
6415.3401525401759
21
4143.9351572622509
31
0
0
LINE
5
667
100
AcDbEntity
8
0
100
AcDbLine
10
6415.3401525401759
20
4143.9351572622509
30
0
11
6415.3401525401759
21
4202.5317886840057
31
0
0
LINE
5
668
100
AcDbEntity
8
0
100
AcDbLine
10
6422.0567624659898
20
4205.5426827886804
30
0
11
6466.0621378420101
21
4205.5426827886804
31
0
0
LINE
5
669
100
AcDbEntity
8
0
100
AcDbLine
10
4586.2340789777581
20
4202.7281568595163
30
0
11
4586.2340789777581
21
4144.1016928573008
31
0
0
LINE
5
670
100
AcDbEntity
8
0
100
AcDbLine
10
4586.2340789777581
20
4144.1016928573008
30
0
11
4581.8183447338151
21
4144.1016928573008
31
0
0
LINE
5
671
100
AcDbEntity
8
0
100
AcDbLine
10
4581.8183447338151
20
4144.1016928573008
30
0
11
4581.8183447338151
21
4202.7882253897078
31
0
0
LINE
5
672
100
AcDbEntity
8
0
100
AcDbLine
10
4588.5336588066803
20
4205.6185788218236
30
0
11
4632.1212290856047
21
4205.6185788218236
31
0
0
ARC
5
673
100
AcDbEntity
8
0
100
AcDbCircle
10
2908.2999999999997
20
3865.1180000000013
30
0
40
21.082000000000107
210
0
220
0
230
1
100
AcDbArc
50
0
51
66.021486802039078
0
ARC
5
674
100
AcDbEntity
8
0
100
AcDbCircle
10
1968.5
20
3865.1180000000004
30
0
40
21.082000000000164
210
0
220
0
230
1
100
AcDbArc
50
121.03353969326953
51
177.31687321703711
0
LINE
5
675
100
AcDbEntity
8
0
100
AcDbLine
10
919.07735006943631
20
4202.1331304510686
30
0
11
919.07735006943631
21
4144.6940231332264
31
0
0
LINE
5
676
100
AcDbEntity
8
0
100
AcDbLine
10
919.07735006943631
20
4144.6940231332264
30
0
11
914.86715372153094
21
4144.6940231332264
31
0
0
LINE
5
677
100
AcDbEntity
8
0
100
AcDbLine
10
914.86715372153094
20
4144.6940231332264
30
0
11
914.86715372153094
21
4202.1331304510686
31
0
0
LINE
5
678
100
AcDbEntity
8
0
100
AcDbLine
10
921.78390486451781
20
4206.0425984884096
30
0
11
964.48732496469358
21
4206.0425984884096
31
0
0
LINE
5
679
100
AcDbEntity
8
0
100
AcDbLine
10
-919.12231561019416
20
4203.8714003059895
30
0
11
-919.12231561019416
21
4144.3137215508041
31
0
0
LINE
5
680
100
AcDbEntity
8
0
100
AcDbLine
10
-919.12231561019416
20
4144.3137215508041
30
0
11
-914.68535386912004
21
4144.3137215508041
31
0
0
LINE
5
681
100
AcDbEntity
8
0
100
AcDbLine
10
-914.68535386912004
20
4144.3137215508041
30
0
11
-914.68535386912004
21
4203.7007479313334
31
0
0
LINE
5
682
100
AcDbEntity
8
0
100
AcDbLine
10
-911.95491587461288
20
4205.5779240525571
30
0
11
-868.77986508646973
21
4205.5779240525571
31
0
0
LINE
5
683
100
AcDbEntity
8
0
100
AcDbLine
10
2752.6588983173992
20
4143.8822606365911
30
0
11
2748.2431640734558
21
4143.8822606365911
31
0
0
LINE
5
684
100
AcDbEntity
8
0
100
AcDbLine
10
2748.2431640734558
20
4143.8822606365911
30
0
11
2748.2431640734558
21
4202.568793168999
31
0
0
LINE
5
685
100
AcDbEntity
8
0
100
AcDbLine
10
2754.9584781463204
20
4205.3991466011139
30
0
11
2798.5460484252453
21
4205.3991466011139
31
0
0
LINE
5
686
100
AcDbEntity
8
0
100
AcDbLine
10
2752.6588983173992
20
4202.5087246388075
30
0
11
2752.6588983173992
21
4143.8822606365911
31
0
0
LINE
5
687
100
AcDbEntity
8
0
100
AcDbLine
10
-2748.4757618662725
20
4144.1366742836735
30
0
11
-2752.8914961102155
21
4144.1366742836735
31
0
0
LINE
5
688
100
AcDbEntity
8
0
100
AcDbLine
10
-2752.8914961102155
20
4144.1366742836735
30
0
11
-2752.8914961102155
21
4202.8232068160814
31
0
0
LINE
5
689
100
AcDbEntity
8
0
100
AcDbLine
10
-2746.1761820373513
20
4205.6535602481963
30
0
11
-2702.5886117584264
21
4205.6535602481963
31
0
0
LINE
5
690
100
AcDbEntity
8
0
100
AcDbLine
10
-2748.4757618662725
20
4202.763138285889
30
0
11
-2748.4757618662725
21
4144.1366742836735
31
0
0
LINE
5
691
100
AcDbEntity
8
0
100
AcDbLine
10
-2838.86154084074
20
4366.6081164215138
30
0
11
-2838.86154084074
21
4321.2642739264329
31
0
0
LINE
5
692
100
AcDbEntity
8
0
100
AcDbLine
10
-2838.86154084074
20
4321.2642739264329
30
0
11
-2876.5659316111069
21
4321.2642739264329
31
0
0
LINE
5
693
100
AcDbEntity
8
0
100
AcDbLine
10
-2876.5659316111069
20
4321.2642739264329
30
0
11
-2876.5659316111069
21
4366.3616824949113
31
0
0
LINE
5
694
100
AcDbEntity
8
0
100
AcDbLine
10
-2000.4299005820508
20
4321.1074379523016
30
0
11
-2038.1342913524172
21
4321.1074379523016
31
0
0
LINE
5
695
100
AcDbEntity
8
0
100
AcDbLine
10
-2038.1342913524172
20
4321.1074379523016
30
0
11
-2038.1342913524172
21
4366.2048465207799
31
0
0
LINE
5
696
100
AcDbEntity
8
0
100
AcDbLine
10
-2000.4299005820508
20
4366.4512804473834
30
0
11
-2000.4299005820508
21
4321.1074379523016
31
0
0
LINE
5
697
100
AcDbEntity
8
0
100
AcDbLine
10
2038.1417484949707
20
4320.714240364854
30
0
11
2000.4373577246042
21
4320.714240364854
31
0
0
LINE
5
698
100
AcDbEntity
8
0
100
AcDbLine
10
2000.4373577246042
20
4320.714240364854
30
0
11
2000.4373577246042
21
4365.8116489333324
31
0
0
LINE
5
699
100
AcDbEntity
8
0
100
AcDbLine
10
2038.1417484949707
20
4366.058082859935
30
0
11
2038.1417484949707
21
4320.714240364854
31
0
0
LINE
5
700
100
AcDbEntity
8
0
100
AcDbLine
10
2876.350413224684
20
4320.8442843875591
30
0
11
2838.646022454318
21
4320.8442843875591
31
0
0
LINE
5
701
100
AcDbEntity
8
0
100
AcDbLine
10
2838.646022454318
20
4320.8442843875591
30
0
11
2838.646022454318
21
4365.9416929560375
31
0
0
LINE
5
702
100
AcDbEntity
8
0
100
AcDbLine
10
2876.350413224684
20
4366.1881268826401
30
0
11
2876.350413224684
21
4320.8442843875591
31
0
0
ARC
5
703
100
AcDbEntity
8
0
100
AcDbCircle
10
-1968.5000000000002
20
3865.1180000000013
30
0
40
16.700500000000034
210
0
220
0
230
1
100
AcDbArc
50
0
51
61.384419464485283
0
ARC
5
704
100
AcDbEntity
8
0
100
AcDbCircle
10
-2908.2999999999997
20
3865.1180000000004
30
0
40
21.082000000000058
210
0
220
0
230
1
100
AcDbArc
50
121.20542063057295
51
180
0
LINE
5
705
100
AcDbEntity
8
0
100
AcDbLine
10
-4582.6647652910779
20
4144.2661045994309
30
0
11
-4587.0804995350209
21
4144.2661045994309
31
0
0
LINE
5
706
100
AcDbEntity
8
0
100
AcDbLine
10
-4582.6647652910779
20
4202.8925686016473
30
0
11
-4582.6647652910779
21
4144.2661045994309
31
0
0
LINE
5
707
100
AcDbEntity
8
0
100
AcDbLine
10
-4580.3651854621567
20
4205.7829905639537
30
0
11
-4536.7776151832313
21
4205.7829905639537
31
0
0
LINE
5
708
100
AcDbEntity
8
0
100
AcDbLine
10
-4587.0804995350209
20
4144.2661045994309
30
0
11
-4587.0804995350209
21
4202.9526371318389
31
0
0
LWPOLYLINE
5
709
100
AcDbEntity
8
0
100
AcDbPolyline
90
4
70
1
43
0.0
10
-6072.3780000000097
20
4089.4000000000001
10
-5034.1530000000103
20
4089.4000000000001
10
-4996.0530000000099
20
4089.4000000000001
10
-4929.3780000000097
20
4089.4000000000001
0
LINE
5
710
100
AcDbEntity
8
0
100
AcDbLine
10
-5386.5780000000095
20
4089.4000000000001
30
0
11
-5402.4530000000095
21
4089.4000000000001
31
0
0
LINE
5
711
100
AcDbEntity
8
0
100
AcDbLine
10
-5386.5780000000095
20
4089.4000000000001
30
0
11
-5323.0780000000095
21
4089.4000000000001
31
0
0
LINE
5
712
100
AcDbEntity
8
0
100
AcDbLine
10
-5307.2030000000095
20
4089.4000000000001
30
0
11
-5323.0780000000095
21
4089.4000000000001
31
0
0
LINE
5
713
100
AcDbEntity
8
0
100
AcDbLine
10
-5323.0780000000095
20
4089.4000000000001
30
0
11
-5386.5780000000095
21
4089.4000000000001
31
0
0
LINE
5
714
100
AcDbEntity
8
0
100
AcDbLine
10
-5640.5780000000104
20
4089.4000000000001
30
0
11
-5656.4530000000104
21
4089.4000000000001
31
0
0
LINE
5
715
100
AcDbEntity
8
0
100
AcDbLine
10
-5640.5780000000104
20
4089.4000000000001
30
0
11
-5577.0780000000104
21
4089.4000000000001
31
0
0
LINE
5
716
100
AcDbEntity
8
0
100
AcDbLine
10
-5561.2030000000104
20
4089.4000000000001
30
0
11
-5577.0780000000104
21
4089.4000000000001
31
0
0
LINE
5
717
100
AcDbEntity
8
0
100
AcDbLine
10
-5577.0780000000104
20
4089.4000000000001
30
0
11
-5640.5780000000104
21
4089.4000000000001
31
0
0
LINE
5
718
100
AcDbEntity
8
0
100
AcDbLine
10
-5710.5169000000215
20
4089.4000000000592
30
0
11
-5697.6390999999985
21
4089.4000000000592
31
0
0
LINE
5
719
100
AcDbEntity
8
0
100
AcDbLine
10
-5164.4168999999883
20
4089.4000000000592
30
0
11
-5151.5391000000318
21
4089.4000000000592
31
0
0
LINE
5
720
100
AcDbEntity
8
0
100
AcDbLine
10
-5266.0169000000269
20
4089.4000000000592
30
0
11
-5253.139099999994
21
4089.4000000000592
31
0
0
LINE
5
721
100
AcDbEntity
8
0
100
AcDbLine
10
-5812.1169000000018
20
4089.4000000000592
30
0
11
-5799.239100000018
21
4089.4000000000592
31
0
0
LINE
5
722
100
AcDbEntity
8
0
100
AcDbLine
10
-4958.0419000000247
20
4089.4000000000592
30
0
11
-4945.1640999999945
21
4089.4000000000592
31
0
0
LINE
5
723
100
AcDbEntity
8
0
100
AcDbLine
10
-4977.0919000000331
20
4089.4000000000592
30
0
11
-4964.2140999999883
21
4089.4000000000592
31
0
0
LINE
5
724
100
AcDbEntity
8
0
100
AcDbLine
10
-6037.5419000000293
20
4089.4000000000024
30
0
11
-6024.6640999999909
21
4089.4000000000024
31
0
0
LINE
5
725
100
AcDbEntity
8
0
100
AcDbLine
10
-6056.5919000000295
20
4089.4000000000024
30
0
11
-6043.7140999999901
21
4089.4000000000024
31
0
0
LINE
5
726
100
AcDbEntity
8
0
100
AcDbLine
10
-6413.3046272564889
20
4205.2125730257849
30
0
11
-6369.7170569775653
21
4205.2125730257849
31
0
0
LINE
5
727
100
AcDbEntity
8
0
100
AcDbLine
10
-6415.604207085411
20
4143.6956870612621
30
0
11
-6420.019941329354
21
4143.6956870612621
31
0
0
LINE
5
728
100
AcDbEntity
8
0
100
AcDbLine
10
-6420.019941329354
20
4143.6956870612621
30
0
11
-6420.019941329354
21
4202.38221959367
31
0
0
LINE
5
729
100
AcDbEntity
8
0
100
AcDbLine
10
-6415.604207085411
20
4202.3221510634776
30
0
11
-6415.604207085411
21
4143.6956870612621
31
0
0
LINE
5
730
100
AcDbEntity
8
0
100
AcDbLine
10
-8262.9375000000018
20
4045.8389999999854
30
0
11
-8262.9375
21
4064.8889999999856
31
0
0
LINE
5
731
100
AcDbEntity
8
0
100
AcDbLine
10
-8256.5875000000015
20
4007.7389999999855
30
4.2299497238218584e-15
11
-8256.5875000000015
21
4039.488999999985
31
1.4904744105595264e-15
0
LINE
5
732
100
AcDbEntity
8
0
100
AcDbLine
10
-8237.5375000000004
20
3575.9389999999858
30
-5.4556359430080114e-14
11
-8243.8875000000025
21
3575.9389999999858
31
0
0
LINE
5
733
100
AcDbEntity
8
0
100
AcDbLine
10
-8256.5875000000015
20
3550.5389999999852
30
0
11
-8256.5875000000015
21
3575.9389999999858
31
0
0
LINE
5
734
100
AcDbEntity
8
0
100
AcDbLine
10
-8256.5875000000015
20
3537.8389999999854
30
1.0574874309554614e-15
11
-8262.9375000000018
21
3537.8389999999854
31
1.0574874309554614e-15
0
LINE
5
735
100
AcDbEntity
8
0
100
AcDbLine
10
-8262.9375000000018
20
3537.8389999999854
30
1.0574874309554614e-15
11
-8262.9375
21
3542.2763799999848
31
4.3312575748189246e-15
0
LINE
5
736
100
AcDbEntity
8
0
100
AcDbLine
10
-8256.5875000000015
20
3334.6389999999856
30
8.8817841970012523e-15
11
-8262.9375
21
3334.6389999999856
31
8.8817841970012523e-15
0
ARC
5
737
100
AcDbEntity
8
0
100
AcDbCircle
10
-8285.1625000000004
20
2786.5069999999869
30
0
40
21.082000000004086
210
0
220
0
230
1
100
AcDbArc
50
-89.999999999995069
51
90.000000000004945
0
LINE
5
738
100
AcDbEntity
8
0
100
AcDbLine
10
-8285.1624999999985
20
2765.4249999999824
30
0
11
-8262.9375
21
2765.4249999999824
31
0
0
LINE
5
739
100
AcDbEntity
8
0
100
AcDbLine
10
-8285.1625000000022
20
2807.5889999999908
30
0
11
-8262.9375
21
2807.5889999999854
31
0
0
LINE
5
740
100
AcDbEntity
8
0
100
AcDbLine
10
-8262.9375
20
2807.5889999999854
30
0
11
-8262.9375
21
2826.6389999999856
31
1.9825411154020665e-15
0
LINE
5
741
100
AcDbEntity
8
0
100
AcDbLine
10
-8262.9375
20
2743.1999999999853
30
0
11
-8262.9375
21
2765.4249999999824
31
0
0
LINE
5
742
100
AcDbEntity
8
0
100
AcDbLine
10
-7038.9750000000013
20
-609.59999999999309
30
-6.0807557411733239e-14
11
-7038.9750000000004
21
609.60000000000423
31
0
0
LINE
5
743
100
AcDbEntity
8
0
100
AcDbLine
10
-8258.1749999999938
20
914.39999999998577
30
0
11
-8258.1749999999993
21
609.60000000000502
31
-3.9931458198022694e-14
0
LINE
5
744
100
AcDbEntity
8
0
100
AcDbLine
10
-8258.1749999999993
20
-914.40000000001135
30
0
11
-8258.1750000000011
21
-609.59999999999229
31
-7.1054273576010019e-14
0
ARC
5
745
100
AcDbEntity
8
0
100
AcDbCircle
10
-8285.1625000000004
20
-2786.5070000000146
30
0
40
21.082000000000676
210
0
220
4.6816633568529229e-16
230
1
100
AcDbArc
50
-90
51
89.99999999999504
0
LINE
5
746
100
AcDbEntity
8
0
100
AcDbLine
10
-8262.9374999999982
20
-2826.6390000000142
30
8.8817841970012523e-15
11
-8262.9375
21
-2807.5890000000154
31
0
0
LINE
5
747
100
AcDbEntity
8
0
100
AcDbLine
10
-8262.9375
20
-2743.2000000000112
30
0
11
-8262.9375
21
-2765.4250000000111
31
0
0
LINE
5
748
100
AcDbEntity
8
0
100
AcDbLine
10
-8262.9375
20
-2765.4250000000111
30
0
11
-8285.1624999999985
21
-2765.4250000000138
31
0
0
LINE
5
749
100
AcDbEntity
8
0
100
AcDbLine
10
-8262.9375
20
-2807.5890000000154
30
0
11
-8285.1625000000004
21
-2807.5890000000154
31
9.8698826889176486e-15
0
LINE
5
750
100
AcDbEntity
8
0
100
AcDbLine
10
-8256.5874999999978
20
-3334.6390000000147
30
1.1701750679549174e-14
11
-8262.9374999999982
21
-3334.6390000000147
31
1.1701750679549174e-14
0
LINE
5
751
100
AcDbEntity
8
0
100
AcDbLine
10
-8256.5874999999978
20
-3537.8390000000149
30
5.6399329650958138e-15
11
-8262.9374999999982
21
-3537.8390000000149
31
5.6399329650958138e-15
0
LINE
5
752
100
AcDbEntity
8
0
100
AcDbLine
10
-8237.5374999999985
20
-3575.9390000000149
30
1.2256862191861656e-14
11
-8243.8874999999989
21
-3575.9390000000144
31
2.8199664825478911e-15
0
LINE
5
753
100
AcDbEntity
8
0
100
AcDbLine
10
-8243.8874999999989
20
-3575.9390000000144
30
2.8199664825478911e-15
11
-8256.5874999999978
21
-3575.9390000000144
31
2.8199664825478911e-15
0
LINE
5
754
100
AcDbEntity
8
0
100
AcDbLine
10
-8256.5874999999978
20
-3575.9390000000144
30
2.8199664825478911e-15
11
-8256.5874999999978
21
-3550.5390000000148
31
3.9745984281582636e-15
0
LINE
5
755
100
AcDbEntity
8
0
100
AcDbLine
10
-8256.5874999999978
20
-4039.4890000000146
30
0
11
-8256.5874999999978
21
-4007.7390000000146
31
0
0
LINE
5
756
100
AcDbEntity
8
0
100
AcDbLine
10
-8262.9374999999982
20
-4045.8390000000145
30
-3.1307917175958887e-31
11
-8262.9374999999982
21
-4064.692436301043
31
-3.1307917175958887e-31
0
LINE
5
757
100
AcDbEntity
8
0
100
AcDbLine
10
-6415.3875907117308
20
-4202.0285618605285
30
0
11
-6415.3875907117308
21
-4143.7715070373279
31
0
0
LINE
5
758
100
AcDbEntity
8
0
100
AcDbLine
10
-6415.3875907117308
20
-4143.7715070373279
30
0
11
-6420.1993828505201
21
-4143.7715070373279
31
0
0
LINE
5
759
100
AcDbEntity
8
0
100
AcDbLine
10
-6420.1993828505201
20
-4143.7715070373279
30
0
11
-6420.1993828505201
21
-4202.0285618605285
31
0
0
LINE
5
760
100
AcDbEntity
8
0
100
AcDbLine
10
-6421.5741806044653
20
-4205.1218568068962
30
0
11
-6465.5677087305339
21
-4205.1218568068962
31
0
0
LINE
5
761
100
AcDbEntity
8
0
100
AcDbLine
10
-4581.0009659885009
20
-4201.4449914225424
30
0
11
-4581.0009659885009
21
-4143.1879365993418
31
0
0
LINE
5
762
100
AcDbEntity
8
0
100
AcDbLine
10
-4581.0009659885009
20
-4143.1879365993418
30
0
11
-4585.8127581272902
21
-4143.1879365993418
31
0
0
LINE
5
763
100
AcDbEntity
8
0
100
AcDbLine
10
-4587.1875558812353
20
-4204.5382863689101
30
0
11
-4631.181084007304
21
-4204.5382863689101
31
0
0
LINE
5
764
100
AcDbEntity
8
0
100
AcDbLine
10
-4585.8127581272902
20
-4143.1879365993418
30
0
11
-4585.8127581272902
21
-4201.4449914225424
31
0
0
ARC
5
765
100
AcDbEntity
8
0
100
AcDbCircle
10
-2908.2999999999997
20
-3865.1180000000013
30
0
40
21.082000000000107
210
0
220
0
230
1
100
AcDbArc
50
180
51
241.22055065559525
0
ARC
5
766
100
AcDbEntity
8
0
100
AcDbCircle
10
-1968.5000000000002
20
-3865.1180000000004
30
0
40
21.081999999999962
210
-0
220
0
230
1
100
AcDbArc
50
-57.653431125482683
51
0
0
LINE
5
767
100
AcDbEntity
8
0
100
AcDbLine
10
-2747.979917566372
20
-4143.4328427620567
30
0
11
-2752.7917097051613
21
-4143.4328427620567
31
0
0
LINE
5
768
100
AcDbEntity
8
0
100
AcDbLine
10
-2747.979917566372
20
-4201.6898975852573
30
0
11
-2747.979917566372
21
-4143.4328427620567
31
0
0
LINE
5
769
100
AcDbEntity
8
0
100
AcDbLine
10
-2754.166507459106
20
-4204.783192531625
30
0
11
-2798.1600355851751
21
-4204.783192531625
31
0
0
LINE
5
770
100
AcDbEntity
8
0
100
AcDbLine
10
-2752.7917097051613
20
-4143.4328427620567
30
0
11
-2752.7917097051613
21
-4201.6898975852573
31
0
0
LINE
5
771
100
AcDbEntity
8
0
100
AcDbLine
10
-2838.4021684897493
20
-4366.4648971345905
30
0
11
-2838.4021684897493
21
-4321.3486968307625
31
0
0
LINE
5
772
100
AcDbEntity
8
0
100
AcDbLine
10
-2838.4021684897493
20
-4321.3486968307625
30
0
11
-2876.4818971865589
21
-4321.3486968307625
31
0
0
LINE
5
773
100
AcDbEntity
8
0
100
AcDbLine
10
-2876.4818971865589
20
-4321.3486968307625
30
0
11
-2876.4818971865589
21
-4365.6370769455298
31
0
0
LINE
5
774
100
AcDbEntity
8
0
100
AcDbLine
10
-2038.4712415981376
20
-4320.93547658639
30
0
11
-2038.4712415981376
21
-4365.2238567011573
31
0
0
LINE
5
775
100
AcDbEntity
8
0
100
AcDbLine
10
-2000.391512901328
20
-4320.93547658639
30
0
11
-2038.4712415981376
21
-4320.93547658639
31
0
0
LINE
5
776
100
AcDbEntity
8
0
100
AcDbLine
10
-2000.391512901328
20
-4366.051676890218
30
0
11
-2000.391512901328
21
-4320.93547658639
31
0
0
LINE
5
777
100
AcDbEntity
8
0
100
AcDbLine
10
-920.47419474645972
20
-4204.3071287947569
30
0
11
-964.46772287252907
21
-4204.3071287947569
31
0
0
LINE
5
778
100
AcDbEntity
8
0
100
AcDbLine
10
-914.28760485372572
20
-4142.9567790251886
30
0
11
-919.09939699251504
21
-4142.9567790251886
31
0
0
LINE
5
779
100
AcDbEntity
8
0
100
AcDbLine
10
-919.09939699251504
20
-4142.9567790251886
30
0
11
-919.09939699251504
21
-4201.2138338483892
31
0
0
LINE
5
780
100
AcDbEntity
8
0
100
AcDbLine
10
-914.28760485372572
20
-4201.2138338483892
30
0
11
-914.28760485372572
21
-4142.9567790251886
31
0
0
LINE
5
781
100
AcDbEntity
8
0
100
AcDbLine
10
919.32809712247513
20
-4201.4430304372436
30
0
11
919.32809712247513
21
-4143.1859756140429
31
0
0
LINE
5
782
100
AcDbEntity
8
0
100
AcDbLine
10
913.14150722974114
20
-4204.5363253836113
30
0
11
869.14797910367179
21
-4204.5363253836113
31
0
0
LINE
5
783
100
AcDbEntity
8
0
100
AcDbLine
10
914.51630498368581
20
-4143.1859756140429
30
0
11
914.51630498368581
21
-4201.4430304372436
31
0
0
LINE
5
784
100
AcDbEntity
8
0
100
AcDbLine
10
919.32809712247513
20
-4143.1859756140429
30
0
11
914.51630498368581
21
-4143.1859756140429
31
0
0
LINE
5
785
100
AcDbEntity
8
0
100
AcDbLine
10
2746.5645456746211
20
-4204.7753256154874
30
0
11
2702.5710175485519
21
-4204.7753256154874
31
0
0
LINE
5
786
100
AcDbEntity
8
0
100
AcDbLine
10
2752.751135567355
20
-4143.4249758459191
30
0
11
2747.9393434285657
21
-4143.4249758459191
31
0
0
LINE
5
787
100
AcDbEntity
8
0
100
AcDbLine
10
2752.751135567355
20
-4201.6820306691197
30
0
11
2752.751135567355
21
-4143.4249758459191
31
0
0
LINE
5
788
100
AcDbEntity
8
0
100
AcDbLine
10
2747.9393434285657
20
-4143.4249758459191
30
0
11
2747.9393434285657
21
-4201.6820306691197
31
0
0
LINE
5
789
100
AcDbEntity
8
0
100
AcDbLine
10
2000.7655019380313
20
-4320.6682677342706
30
0
11
2000.7655019380313
21
-4364.9566478490387
31
0
0
LINE
5
790
100
AcDbEntity
8
0
100
AcDbLine
10
2038.8452306348408
20
-4365.7844680380995
30
0
11
2038.8452306348408
21
-4320.6682677342706
31
0
0
LINE
5
791
100
AcDbEntity
8
0
100
AcDbLine
10
2038.8452306348408
20
-4320.6682677342706
30
0
11
2000.7655019380313
21
-4320.6682677342706
31
0
0
LINE
5
792
100
AcDbEntity
8
0
100
AcDbLine
10
2838.493524117273
20
-4320.7388508402873
30
0
11
2838.493524117273
21
-4365.0272309550546
31
0
0
LINE
5
793
100
AcDbEntity
8
0
100
AcDbLine
10
2876.5732528140825
20
-4365.8550511441154
30
0
11
2876.5732528140825
21
-4320.7388508402873
31
0
0
LINE
5
794
100
AcDbEntity
8
0
100
AcDbLine
10
2876.5732528140825
20
-4320.7388508402873
30
0
11
2838.493524117273
21
-4320.7388508402873
31
0
0
ARC
5
795
100
AcDbEntity
8
0
100
AcDbCircle
10
2908.2999999999997
20
-3865.1180000000004
30
0
40
21.082000000000015
210
-0
220
0
230
1
100
AcDbArc
50
-58.591687787521977
51
0
0
ARC
5
796
100
AcDbEntity
8
0
100
AcDbCircle
10
1968.5000000000002
20
-3865.1180000000013
30
0
40
21.081999999999823
210
0
220
0
230
1
100
AcDbArc
50
180
51
237.90460702564297
0
LINE
5
797
100
AcDbEntity
8
0
100
AcDbLine
10
4586.3046173882067
20
-4201.8744232461067
30
0
11
4586.3046173882067
21
-4143.6173684229052
31
0
0
LINE
5
798
100
AcDbEntity
8
0
100
AcDbLine
10
4581.4928252494174
20
-4143.6173684229052
30
0
11
4581.4928252494174
21
-4201.8744232461067
31
0
0
LINE
5
799
100
AcDbEntity
8
0
100
AcDbLine
10
4580.1180274954731
20
-4204.9677181924735
30
0
11
4536.1244993694036
21
-4204.9677181924735
31
0
0
LINE
5
800
100
AcDbEntity
8
0
100
AcDbLine
10
4586.3046173882067
20
-4143.6173684229052
30
0
11
4581.4928252494174
21
-4143.6173684229052
31
0
0
LINE
5
801
100
AcDbEntity
8
0
100
AcDbLine
10
6414.1859318107363
20
-4204.5276774208905
30
0
11
6370.1924036846685
21
-4204.5276774208905
31
0
0
LINE
5
802
100
AcDbEntity
8
0
100
AcDbLine
10
6415.5607295646814
20
-4143.1773276513213
30
0
11
6415.5607295646814
21
-4201.4343824745229
31
0
0
LINE
5
803
100
AcDbEntity
8
0
100
AcDbLine
10
6420.3725217034707
20
-4201.4343824745229
30
0
11
6420.3725217034707
21
-4143.1773276513213
31
0
0
LINE
5
804
100
AcDbEntity
8
0
100
AcDbLine
10
6420.3725217034707
20
-4143.1773276513213
30
0
11
6415.5607295646814
21
-4143.1773276513213
31
0
0
LINE
5
805
100
AcDbEntity
8
0
100
AcDbLine
10
8262.9375000000018
20
-4045.8390000000127
30
0
11
8262.9375
21
-4064.8890000000129
31
0
0
LINE
5
806
100
AcDbEntity
8
0
100
AcDbLine
10
8256.5875000000015
20
-4007.7390000000128
30
0
11
8243.8875000000025
21
-4007.7390000000128
31
0
0
LINE
5
807
100
AcDbEntity
8
0
100
AcDbLine
10
8256.5875000000015
20
-4007.7390000000128
30
0
11
8256.5875000000015
21
-4039.4890000000123
31
1.0372258607560842e-14
0
LINE
5
808
100
AcDbEntity
8
0
100
AcDbLine
10
8243.8875000000025
20
-3575.939000000013
30
0
11
8256.5875000000015
21
-3575.939000000013
31
0
0
LINE
5
809
100
AcDbEntity
8
0
100
AcDbLine
10
8256.5875000000015
20
-3575.939000000013
30
0
11
8256.5875000000015
21
-3550.5390000000125
31
8.8817841970012523e-15
0
LINE
5
810
100
AcDbEntity
8
0
100
AcDbLine
10
8237.5375000000022
20
-3575.939000000013
30
0
11
8243.8875000000025
21
-3575.939000000013
31
0
0
LINE
5
811
100
AcDbEntity
8
0
100
AcDbLine
10
8262.9375000000018
20
-3537.8390000000127
30
0
11
8256.5875000000015
21
-3537.8390000000127
31
0
0
LINE
5
812
100
AcDbEntity
8
0
100
AcDbLine
10
8262.9375000000018
20
-3334.6390000000129
30
8.8817841970012523e-15
11
8256.5875000000015
21
-3334.6390000000129
31
8.8817841970012523e-15
0
LINE
5
813
100
AcDbEntity
8
0
100
AcDbLine
10
8262.9375
20
-2826.6390000000129
30
1.2626804363995754e-14
11
8262.9375
21
-2807.5890000000127
31
0
0
LINE
5
814
100
AcDbEntity
8
0
100
AcDbLine
10
8262.9375
20
-2807.5890000000127
30
0
11
8285.1625000000022
21
-2807.5890000000127
31
0
0
LINE
5
815
100
AcDbEntity
8
0
100
AcDbLine
10
8262.9375
20
-2743.2000000000126
30
0
11
8262.9375
21
-2765.4250000000097
31
0
0
LINE
5
816
100
AcDbEntity
8
0
100
AcDbLine
10
8262.9375
20
-2765.4250000000097
30
0
11
8285.1624999999985
21
-2765.4250000000097
31
0
0
ARC
5
817
100
AcDbEntity
8
0
100
AcDbCircle
10
8285.1625000000004
20
-2786.5070000000142
30
0
40
21.082000000004086
210
0
220
0
230
1
100
AcDbArc
50
90.000000000004945
51
270.00000000000495
0
ENDSEC
0
SECTION
2
OBJECTS
0
DICTIONARY
5
C
100
AcDbDictionary
3
ACAD_GROUP
350
D
3
ACAD_MLINESTYLE
350
17
0
DICTIONARY
5
D
100
AcDbDictionary
0
DICTIONARY
5
1A
330
C
100
AcDbDictionary
0
DICTIONARY
5
17
100
AcDbDictionary
0
ENDSEC
0
EOF
